<svg id="svg" version="1.1" xmlns="http://www.w3.org/2000/svg" xmlns:xlink="http://www.w3.org/1999/xlink" width="100%" height="100%" viewBox="0, 0, 400,331.11545988258314"><g id="svgg"><path id="path0" d="M113.825 41.950 C 113.506 42.033,113.245 42.240,113.245 42.408 C 113.245 42.577,112.724 42.715,112.086 42.715 C 111.449 42.715,110.927 42.864,110.927 43.046 C 110.927 43.228,110.422 43.377,109.804 43.377 C 109.110 43.377,108.607 43.568,108.490 43.874 C 108.385 44.147,107.931 44.371,107.480 44.371 C 107.030 44.371,106.570 44.520,106.457 44.702 C 106.344 44.884,105.889 45.033,105.444 45.033 C 104.999 45.033,104.636 45.182,104.636 45.364 C 104.636 45.546,104.274 45.695,103.832 45.695 C 103.389 45.695,102.804 45.919,102.531 46.192 C 102.258 46.465,101.809 46.689,101.533 46.689 C 101.258 46.689,100.940 46.838,100.828 47.020 C 100.715 47.202,100.259 47.351,99.815 47.351 C 99.370 47.351,99.007 47.500,99.007 47.682 C 99.007 47.864,98.704 48.013,98.334 48.013 C 97.964 48.013,97.576 48.237,97.471 48.510 C 97.366 48.783,96.998 49.007,96.653 49.007 C 96.309 49.007,96.026 49.156,96.026 49.338 C 96.026 49.520,95.654 49.669,95.199 49.669 C 94.743 49.669,94.371 49.815,94.371 49.994 C 94.371 50.172,93.998 50.412,93.543 50.526 C 93.088 50.641,92.715 50.867,92.715 51.029 C 92.715 51.192,92.426 51.325,92.073 51.325 C 91.719 51.325,91.338 51.474,91.225 51.656 C 91.113 51.838,90.731 51.987,90.378 51.987 C 90.024 51.987,89.735 52.180,89.735 52.417 C 89.735 52.654,89.214 53.036,88.576 53.266 C 87.939 53.497,87.417 53.825,87.417 53.995 C 87.417 54.165,87.045 54.305,86.589 54.305 C 86.074 54.305,85.762 54.492,85.762 54.801 C 85.762 55.077,85.467 55.298,85.099 55.298 C 84.735 55.298,84.437 55.447,84.437 55.629 C 84.437 55.811,84.214 55.960,83.940 55.960 C 83.667 55.960,83.444 56.109,83.444 56.291 C 83.444 56.474,83.227 56.623,82.962 56.623 C 82.697 56.623,82.108 56.995,81.653 57.450 C 81.197 57.906,80.676 58.278,80.494 58.278 C 80.312 58.278,79.790 58.651,79.335 59.106 C 78.879 59.561,78.287 59.934,78.019 59.934 C 77.751 59.934,77.238 60.306,76.880 60.762 C 76.522 61.217,76.077 61.589,75.891 61.589 C 75.704 61.589,75.502 61.727,75.442 61.896 C 75.381 62.064,75.108 62.250,74.834 62.310 C 74.561 62.369,73.863 62.901,73.284 63.493 C 72.704 64.085,72.135 64.570,72.018 64.570 C 71.902 64.570,71.599 64.756,71.345 64.983 C 70.242 65.973,69.874 66.225,69.531 66.225 C 69.330 66.225,69.258 66.374,69.371 66.556 C 69.483 66.738,69.343 66.887,69.059 66.887 C 68.775 66.887,68.543 67.047,68.543 67.242 C 68.543 67.621,67.730 68.543,67.397 68.543 C 67.286 68.543,66.767 68.953,66.242 69.454 C 63.303 72.260,62.239 73.179,61.932 73.179 C 61.744 73.179,61.589 73.402,61.589 73.675 C 61.589 73.949,61.420 74.172,61.214 74.172 C 60.713 74.172,59.264 75.880,59.475 76.221 C 59.567 76.369,59.409 76.490,59.126 76.490 C 58.842 76.490,58.609 76.620,58.609 76.779 C 58.609 76.937,57.864 77.836,56.954 78.776 C 56.043 79.716,55.298 80.629,55.298 80.805 C 55.298 80.982,55.138 81.126,54.943 81.126 C 54.748 81.126,54.376 81.339,54.115 81.599 C 53.855 81.859,53.642 82.232,53.642 82.427 C 53.642 82.622,53.493 82.781,53.311 82.781 C 53.129 82.781,52.980 83.010,52.980 83.289 C 52.980 83.567,52.757 83.881,52.483 83.986 C 52.210 84.091,51.987 84.317,51.987 84.488 C 51.987 84.658,51.614 85.171,51.159 85.626 C 50.704 86.081,50.331 86.605,50.331 86.790 C 50.331 86.974,50.182 87.033,50.000 86.921 C 49.818 86.808,49.669 86.987,49.669 87.319 C 49.669 87.651,49.299 88.200,48.847 88.539 C 48.395 88.879,48.097 89.271,48.183 89.411 C 48.270 89.551,48.118 89.751,47.846 89.856 C 47.574 89.960,47.351 90.274,47.351 90.553 C 47.351 90.831,47.202 91.060,47.020 91.060 C 46.838 91.060,46.689 91.267,46.689 91.521 C 46.689 91.775,46.465 92.068,46.192 92.173 C 45.919 92.278,45.695 92.633,45.695 92.963 C 45.695 93.293,45.397 93.777,45.033 94.040 C 44.669 94.302,44.371 94.857,44.371 95.272 C 44.371 95.722,44.170 96.026,43.874 96.026 C 43.601 96.026,43.377 96.250,43.377 96.523 C 43.377 96.796,43.228 97.020,43.046 97.020 C 42.864 97.020,42.715 97.254,42.715 97.540 C 42.715 97.826,42.490 98.285,42.215 98.560 C 41.941 98.835,41.801 99.198,41.905 99.367 C 42.010 99.536,41.862 99.763,41.577 99.872 C 41.293 99.981,41.060 100.278,41.060 100.532 C 41.060 100.786,40.911 100.993,40.728 100.993 C 40.546 100.993,40.397 101.275,40.397 101.620 C 40.397 101.965,40.174 102.333,39.901 102.438 C 39.627 102.542,39.404 102.856,39.404 103.135 C 39.404 103.414,39.255 103.642,39.073 103.642 C 38.891 103.642,38.742 104.015,38.742 104.470 C 38.742 104.925,38.593 105.298,38.411 105.298 C 38.228 105.298,38.079 105.671,38.079 106.126 C 38.079 106.581,37.941 106.954,37.773 106.954 C 37.419 106.954,36.424 108.824,36.424 109.488 C 36.424 109.733,36.275 109.934,36.093 109.934 C 35.911 109.934,35.762 110.306,35.762 110.762 C 35.762 111.277,35.574 111.589,35.265 111.589 C 34.959 111.589,34.768 111.900,34.768 112.398 C 34.768 112.842,34.619 113.298,34.437 113.411 C 34.255 113.523,34.106 113.904,34.106 114.258 C 34.106 114.611,33.964 114.901,33.790 114.901 C 33.616 114.901,33.376 115.422,33.256 116.060 C 33.137 116.697,32.906 117.219,32.745 117.219 C 32.583 117.219,32.450 117.591,32.450 118.046 C 32.450 118.502,32.301 118.874,32.119 118.874 C 31.937 118.874,31.788 119.305,31.788 119.832 C 31.788 120.406,31.575 120.872,31.257 120.994 C 30.965 121.106,30.804 121.401,30.900 121.650 C 30.995 121.899,30.862 122.511,30.603 123.010 C 30.344 123.509,30.132 124.263,30.132 124.687 C 30.132 125.111,29.983 125.550,29.801 125.662 C 29.619 125.775,29.470 126.364,29.470 126.971 C 29.470 127.647,29.278 128.149,28.974 128.265 C 28.646 128.391,28.477 128.910,28.477 129.791 C 28.477 130.525,28.328 131.126,28.146 131.126 C 27.964 131.126,27.815 131.639,27.815 132.265 C 27.815 132.892,27.693 133.480,27.543 133.572 C 27.394 133.664,27.236 134.529,27.192 135.494 C 27.141 136.607,26.938 137.345,26.636 137.515 C 26.334 137.683,26.159 138.314,26.159 139.235 C 26.159 140.035,26.010 140.781,25.828 140.894 C 25.646 141.007,25.497 142.046,25.497 143.204 C 25.497 144.564,25.354 145.357,25.093 145.444 C 24.827 145.532,24.661 146.553,24.605 148.456 C 24.559 150.040,24.368 151.621,24.181 151.970 C 23.754 152.769,23.710 180.359,24.136 180.519 C 24.298 180.579,24.495 181.961,24.574 183.590 C 24.663 185.453,24.861 186.598,25.107 186.680 C 25.351 186.762,25.497 187.594,25.497 188.915 C 25.497 190.073,25.646 191.113,25.828 191.225 C 26.010 191.338,26.159 192.092,26.159 192.900 C 26.159 193.987,26.289 194.371,26.656 194.371 C 27.036 194.371,27.152 194.792,27.152 196.173 C 27.152 197.163,27.301 198.066,27.483 198.179 C 27.666 198.291,27.815 198.896,27.815 199.523 C 27.815 200.150,27.964 200.662,28.146 200.662 C 28.328 200.662,28.477 201.248,28.477 201.963 C 28.477 202.679,28.700 203.487,28.974 203.761 C 29.247 204.034,29.470 204.715,29.470 205.274 C 29.470 205.834,29.619 206.291,29.801 206.291 C 29.983 206.291,30.132 206.813,30.132 207.450 C 30.132 208.088,30.281 208.609,30.464 208.609 C 30.646 208.609,30.795 209.131,30.795 209.768 C 30.795 210.578,30.944 210.927,31.291 210.927 C 31.638 210.927,31.788 211.277,31.788 212.086 C 31.788 212.724,31.937 213.245,32.119 213.245 C 32.301 213.245,32.450 213.618,32.450 214.073 C 32.450 214.528,32.599 214.901,32.781 214.901 C 32.964 214.901,33.113 215.170,33.113 215.500 C 33.113 215.829,33.331 216.388,33.599 216.741 C 33.866 217.095,34.090 217.719,34.095 218.129 C 34.101 218.539,34.255 218.874,34.437 218.874 C 34.619 218.874,34.768 219.172,34.768 219.536 C 34.768 219.904,34.989 220.199,35.265 220.199 C 35.574 220.199,35.762 220.511,35.762 221.026 C 35.762 221.482,35.911 221.854,36.093 221.854 C 36.275 221.854,36.424 222.227,36.424 222.682 C 36.424 223.137,36.573 223.510,36.755 223.510 C 36.937 223.510,37.086 223.882,37.086 224.338 C 37.086 224.853,37.274 225.166,37.583 225.166 C 37.859 225.166,38.079 225.460,38.079 225.828 C 38.079 226.192,38.228 226.490,38.411 226.490 C 38.593 226.490,38.742 226.863,38.742 227.318 C 38.742 227.773,38.891 228.146,39.073 228.146 C 39.255 228.146,39.404 228.448,39.404 228.818 C 39.404 229.188,39.627 229.577,39.901 229.682 C 40.174 229.786,40.397 230.154,40.397 230.499 C 40.397 230.844,40.546 231.126,40.728 231.126 C 40.911 231.126,41.060 231.333,41.060 231.587 C 41.060 231.841,41.293 232.138,41.577 232.247 C 41.862 232.356,42.010 232.584,41.905 232.752 C 41.801 232.921,41.941 233.284,42.215 233.559 C 42.490 233.834,42.715 234.293,42.715 234.579 C 42.715 234.865,42.864 235.099,43.046 235.099 C 43.228 235.099,43.377 235.323,43.377 235.596 C 43.377 235.869,43.601 236.093,43.874 236.093 C 44.150 236.093,44.371 236.387,44.371 236.755 C 44.371 237.119,44.520 237.417,44.702 237.417 C 44.884 237.417,45.033 237.641,45.033 237.914 C 45.033 238.187,45.182 238.411,45.364 238.411 C 45.546 238.411,45.695 238.641,45.695 238.923 C 45.695 239.205,46.068 239.781,46.523 240.203 C 46.978 240.625,47.351 241.214,47.351 241.511 C 47.351 241.809,47.500 242.053,47.682 242.053 C 47.864 242.053,48.013 242.276,48.013 242.550 C 48.013 242.823,48.173 243.046,48.368 243.046 C 48.952 243.046,49.669 243.945,49.669 244.678 C 49.669 245.056,49.829 245.364,50.024 245.364 C 50.410 245.364,51.325 246.179,51.325 246.523 C 51.325 247.890,49.678 247.842,99.976 247.948 C 126.123 248.004,148.746 247.953,150.249 247.836 C 154.588 247.497,153.075 247.020,147.663 247.020 C 144.585 247.020,142.715 246.895,142.715 246.689 C 142.715 246.500,141.722 246.358,140.397 246.358 C 138.558 246.358,138.079 246.255,138.079 245.861 C 138.079 245.475,137.638 245.364,136.093 245.364 C 134.989 245.364,134.106 245.217,134.106 245.033 C 134.106 244.851,133.603 244.702,132.988 244.702 C 132.372 244.702,131.684 244.478,131.457 244.205 C 131.230 243.932,130.541 243.709,129.926 243.709 C 129.311 243.709,128.808 243.560,128.808 243.377 C 128.808 243.195,128.286 243.046,127.649 243.046 C 127.012 243.046,126.490 242.897,126.490 242.715 C 126.490 242.533,126.133 242.384,125.698 242.384 C 125.262 242.384,124.820 242.161,124.715 241.887 C 124.603 241.597,124.107 241.391,123.520 241.391 C 122.968 241.391,122.517 241.242,122.517 241.060 C 122.517 240.877,122.144 240.728,121.689 240.728 C 121.233 240.728,120.861 240.579,120.861 240.397 C 120.861 240.215,120.488 240.066,120.033 240.066 C 119.518 240.066,119.205 239.879,119.205 239.570 C 119.205 239.296,118.916 239.073,118.563 239.073 C 118.209 239.073,117.828 238.924,117.715 238.742 C 117.603 238.560,117.221 238.411,116.868 238.411 C 116.514 238.411,116.225 238.262,116.225 238.079 C 116.225 237.897,115.945 237.748,115.603 237.748 C 115.262 237.748,114.796 237.525,114.570 237.252 C 114.343 236.978,113.952 236.755,113.701 236.755 C 113.450 236.755,113.245 236.606,113.245 236.424 C 113.245 236.242,112.873 236.093,112.417 236.093 C 111.902 236.093,111.589 235.905,111.589 235.596 C 111.589 235.323,111.366 235.099,111.093 235.099 C 110.820 235.099,110.596 234.950,110.596 234.768 C 110.596 234.586,110.298 234.437,109.934 234.437 C 109.570 234.437,109.272 234.288,109.272 234.106 C 109.272 233.924,109.112 233.775,108.917 233.775 C 108.722 233.775,108.354 233.589,108.100 233.361 C 107.005 232.378,106.630 232.119,106.305 232.119 C 106.116 232.119,105.960 231.970,105.960 231.788 C 105.960 231.606,105.662 231.457,105.298 231.457 C 104.930 231.457,104.636 231.236,104.636 230.960 C 104.636 230.687,104.485 230.464,104.300 230.464 C 104.115 230.464,103.274 229.793,102.430 228.974 C 101.587 228.154,100.621 227.483,100.283 227.483 C 99.945 227.483,99.669 227.328,99.669 227.137 C 99.669 226.688,98.147 225.166,97.697 225.166 C 97.507 225.166,97.351 224.997,97.351 224.790 C 97.351 224.394,95.705 222.849,95.281 222.848 C 95.145 222.848,95.033 222.688,95.033 222.493 C 95.033 222.034,94.191 221.192,93.732 221.192 C 93.537 221.192,93.377 221.080,93.377 220.944 C 93.376 220.520,91.831 218.874,91.435 218.874 C 91.229 218.874,91.060 218.604,91.060 218.274 C 91.060 217.944,90.762 217.355,90.397 216.964 C 90.033 216.573,89.735 216.098,89.735 215.908 C 89.735 215.718,89.575 215.563,89.380 215.563 C 88.890 215.563,88.082 214.710,88.069 214.179 C 88.055 213.580,87.263 212.583,86.801 212.583 C 86.594 212.583,86.424 212.201,86.424 211.735 C 86.424 211.255,86.281 210.977,86.093 211.093 C 85.911 211.205,85.762 211.065,85.762 210.781 C 85.762 210.497,85.538 210.265,85.265 210.265 C 84.969 210.265,84.768 209.960,84.768 209.510 C 84.768 209.095,84.470 208.541,84.106 208.278 C 83.742 208.016,83.444 207.461,83.444 207.046 C 83.444 206.596,83.243 206.291,82.947 206.291 C 82.638 206.291,82.450 205.979,82.450 205.464 C 82.450 205.008,82.301 204.636,82.119 204.636 C 81.937 204.636,81.788 204.338,81.788 203.974 C 81.788 203.609,81.655 203.311,81.493 203.311 C 81.330 203.311,81.104 202.939,80.990 202.483 C 80.876 202.028,80.636 201.656,80.457 201.656 C 80.279 201.656,80.132 201.283,80.132 200.828 C 80.132 200.373,79.983 200.000,79.801 200.000 C 79.619 200.000,79.470 199.627,79.470 199.172 C 79.470 198.717,79.321 198.344,79.139 198.344 C 78.957 198.344,78.808 198.046,78.808 197.682 C 78.808 197.314,78.587 197.020,78.311 197.020 C 77.964 197.020,77.815 196.670,77.815 195.861 C 77.815 195.224,77.666 194.702,77.483 194.702 C 77.301 194.702,77.152 194.329,77.152 193.874 C 77.152 193.359,76.965 193.046,76.656 193.046 C 76.309 193.046,76.159 192.697,76.159 191.887 C 76.159 191.250,76.010 190.728,75.828 190.728 C 75.646 190.728,75.497 190.058,75.497 189.238 C 75.497 188.419,75.348 187.748,75.166 187.748 C 74.983 187.748,74.834 187.222,74.834 186.579 C 74.834 185.845,74.650 185.339,74.338 185.219 C 73.974 185.079,73.841 184.506,73.841 183.077 C 73.841 181.997,73.693 181.126,73.510 181.126 C 73.324 181.126,73.179 180.197,73.179 179.001 C 73.179 177.796,73.027 176.826,72.827 176.759 C 72.379 176.610,72.324 155.776,72.770 155.198 C 72.939 154.980,73.112 153.907,73.153 152.815 C 73.195 151.722,73.367 150.778,73.535 150.717 C 73.703 150.657,73.841 149.725,73.841 148.648 C 73.841 147.127,73.952 146.689,74.338 146.689 C 74.695 146.689,74.834 146.323,74.834 145.384 C 74.834 144.666,74.983 143.987,75.166 143.874 C 75.348 143.762,75.497 143.157,75.497 142.530 C 75.497 141.903,75.646 141.391,75.828 141.391 C 76.010 141.391,76.159 140.885,76.159 140.267 C 76.159 139.574,76.349 139.071,76.656 138.953 C 76.929 138.848,77.152 138.469,77.152 138.109 C 77.152 137.750,77.301 137.364,77.483 137.252 C 77.666 137.139,77.815 136.625,77.815 136.109 C 77.815 135.563,78.031 135.087,78.332 134.972 C 78.617 134.862,78.765 134.635,78.660 134.466 C 78.556 134.297,78.696 133.934,78.970 133.660 C 79.245 133.385,79.470 132.768,79.470 132.289 C 79.470 131.810,79.588 131.491,79.733 131.580 C 79.877 131.669,80.017 131.453,80.043 131.100 C 80.070 130.746,80.324 130.224,80.609 129.940 C 81.081 129.468,81.178 129.200,81.098 128.597 C 81.082 128.480,81.194 128.294,81.346 128.183 C 81.786 127.861,82.450 126.546,82.450 125.998 C 82.450 125.722,82.674 125.497,82.947 125.497 C 83.223 125.497,83.444 125.202,83.444 124.834 C 83.444 124.470,83.593 124.172,83.775 124.172 C 83.957 124.172,84.106 123.949,84.106 123.675 C 84.106 123.402,84.255 123.179,84.437 123.179 C 84.619 123.179,84.768 122.897,84.768 122.552 C 84.768 122.207,84.992 121.839,85.265 121.735 C 85.538 121.630,85.762 121.307,85.762 121.017 C 85.762 120.704,85.916 120.586,86.144 120.727 C 86.379 120.872,86.436 120.818,86.293 120.586 C 86.162 120.375,86.504 119.774,87.070 119.221 C 87.625 118.678,88.079 117.995,88.079 117.703 C 88.079 117.143,88.835 116.226,89.298 116.225 C 89.447 116.224,89.993 115.554,90.511 114.735 C 91.028 113.915,91.587 113.245,91.752 113.245 C 91.918 113.245,92.053 113.099,92.053 112.921 C 92.053 112.492,99.751 104.802,100.449 104.534 C 100.748 104.419,100.993 104.172,100.993 103.984 C 100.993 103.796,101.217 103.642,101.490 103.642 C 101.763 103.642,101.987 103.519,101.987 103.367 C 101.987 103.216,102.359 102.893,102.815 102.649 C 103.270 102.405,103.642 102.008,103.642 101.765 C 103.642 101.523,103.866 101.325,104.139 101.325 C 104.412 101.325,104.636 101.175,104.636 100.993 C 104.636 100.811,104.934 100.662,105.298 100.662 C 105.666 100.662,105.960 100.442,105.960 100.166 C 105.960 99.892,106.184 99.669,106.457 99.669 C 106.730 99.669,106.954 99.520,106.954 99.338 C 106.954 99.156,107.197 99.007,107.495 99.007 C 107.793 99.007,108.382 98.634,108.804 98.179 C 109.226 97.724,109.802 97.351,110.084 97.351 C 110.365 97.351,110.596 97.202,110.596 97.020 C 110.596 96.838,110.820 96.689,111.093 96.689 C 111.366 96.689,111.589 96.540,111.589 96.358 C 111.589 96.175,111.880 96.026,112.235 96.026 C 112.590 96.026,113.000 95.840,113.146 95.613 C 113.505 95.051,114.767 94.371,115.448 94.371 C 115.754 94.371,115.903 94.269,115.778 94.145 C 115.507 93.874,117.794 92.742,118.645 92.726 C 118.975 92.720,119.152 92.566,119.040 92.384 C 118.866 92.102,119.792 91.884,120.613 92.014 C 120.749 92.035,120.861 91.829,120.861 91.556 C 120.861 91.247,121.174 91.060,121.689 91.060 C 122.144 91.060,122.517 90.911,122.517 90.728 C 122.517 90.546,122.955 90.397,123.490 90.397 C 124.026 90.397,124.556 90.248,124.669 90.066 C 124.781 89.884,125.167 89.735,125.527 89.735 C 125.886 89.735,126.265 89.512,126.370 89.238 C 126.475 88.965,126.843 88.742,127.188 88.742 C 127.908 88.742,127.963 88.463,127.390 87.728 C 127.047 87.288,102.517 66.715,99.935 64.702 C 97.348 62.684,95.364 60.769,95.364 60.287 C 95.364 59.821,96.953 58.386,102.962 53.425 C 108.915 48.511,110.121 47.506,110.265 47.339 C 110.356 47.233,111.660 46.136,113.162 44.901 C 116.010 42.560,116.236 42.255,115.370 41.923 C 114.816 41.710,114.738 41.711,113.825 41.950 " stroke="none" fill="#9291e7" fill-rule="evenodd"></path><path id="path1" d="M330.082 212.831 C 330.054 212.968,329.997 213.228,329.955 213.411 C 329.912 213.593,329.861 221.378,329.840 230.712 L 329.801 247.682 292.029 247.682 C 262.219 247.682,254.175 247.769,253.867 248.096 C 253.652 248.324,252.883 249.256,252.157 250.166 C 250.425 252.337,240.032 262.751,237.927 264.424 C 237.024 265.141,236.041 265.952,235.742 266.225 C 235.042 266.865,234.256 267.491,232.616 268.714 C 231.887 269.257,230.920 270.037,230.467 270.447 C 230.014 270.857,229.455 271.192,229.225 271.192 C 228.996 271.192,228.808 271.309,228.808 271.452 C 228.808 271.595,228.324 271.997,227.732 272.346 C 227.140 272.695,226.367 273.248,226.014 273.576 C 225.661 273.904,225.241 274.172,225.081 274.172 C 224.921 274.172,224.302 274.545,223.705 275.000 C 223.108 275.455,222.460 275.828,222.265 275.828 C 222.069 275.828,221.860 275.940,221.799 276.076 C 221.606 276.511,218.909 278.146,218.385 278.146 C 218.107 278.146,217.881 278.263,217.881 278.407 C 217.881 278.551,217.024 279.106,215.977 279.640 C 214.930 280.175,213.517 280.951,212.838 281.366 C 212.158 281.780,211.376 282.119,211.099 282.119 C 210.822 282.119,210.596 282.268,210.596 282.450 C 210.596 282.632,210.316 282.781,209.974 282.781 C 209.632 282.781,209.167 283.005,208.940 283.278 C 208.714 283.551,208.321 283.775,208.068 283.775 C 207.814 283.775,207.348 283.907,207.032 284.069 C 206.716 284.230,205.563 284.765,204.470 285.257 C 203.377 285.749,202.225 286.287,201.908 286.453 C 201.592 286.619,201.106 286.755,200.828 286.755 C 200.318 286.755,200.080 286.850,198.069 287.858 C 197.463 288.162,196.689 288.411,196.350 288.411 C 196.012 288.411,195.642 288.560,195.530 288.742 C 195.417 288.924,194.924 289.078,194.434 289.083 C 193.944 289.089,193.254 289.313,192.900 289.580 C 192.547 289.847,191.839 290.066,191.327 290.066 C 190.816 290.066,190.397 290.215,190.397 290.397 C 190.397 290.579,189.885 290.728,189.258 290.728 C 188.631 290.728,188.026 290.877,187.914 291.060 C 187.801 291.242,187.159 291.395,186.487 291.401 C 185.815 291.407,184.976 291.631,184.622 291.898 C 184.269 292.165,183.421 292.384,182.738 292.384 C 182.055 292.384,181.404 292.533,181.291 292.715 C 181.179 292.897,180.423 293.046,179.612 293.046 C 178.800 293.046,177.878 293.180,177.562 293.342 C 176.723 293.774,172.393 294.473,169.619 294.624 C 168.299 294.696,167.219 294.892,167.219 295.059 C 167.219 295.244,199.185 295.364,248.510 295.364 L 329.801 295.364 329.853 312.666 C 329.882 322.181,329.899 330.153,329.890 330.381 C 329.869 330.958,331.305 330.899,331.906 330.298 C 332.180 330.025,332.501 329.801,332.622 329.801 C 332.742 329.801,333.492 329.131,334.289 328.311 C 335.085 327.492,335.911 326.821,336.124 326.821 C 336.337 326.821,337.003 326.300,337.604 325.662 C 338.205 325.025,338.865 324.503,339.070 324.503 C 339.275 324.503,339.367 324.381,339.275 324.231 C 339.073 323.904,340.236 322.852,340.815 322.837 C 341.392 322.822,342.384 322.021,342.384 321.569 C 342.384 321.362,342.553 321.192,342.759 321.192 C 343.156 321.192,344.701 319.546,344.702 319.123 C 344.702 318.986,344.986 318.874,345.334 318.874 C 345.681 318.874,346.656 318.204,347.499 317.384 C 348.342 316.565,349.184 315.894,349.370 315.894 C 349.556 315.894,349.619 315.749,349.509 315.573 C 349.400 315.396,349.689 315.156,350.152 315.040 C 350.615 314.924,350.993 314.721,350.993 314.590 C 350.993 314.458,351.366 314.151,351.821 313.907 C 352.276 313.664,352.649 313.330,352.649 313.165 C 352.649 312.769,353.511 311.921,353.914 311.921 C 354.090 311.921,354.320 311.697,354.424 311.424 C 354.529 311.151,354.843 310.927,355.122 310.927 C 355.401 310.927,355.629 310.778,355.629 310.596 C 355.629 310.414,355.771 310.265,355.945 310.265 C 356.118 310.265,356.922 309.594,357.730 308.775 C 358.537 307.955,359.310 307.285,359.445 307.285 C 359.581 307.285,360.031 306.950,360.444 306.540 C 361.574 305.420,362.186 304.967,362.569 304.967 C 362.759 304.967,362.914 304.807,362.914 304.612 C 362.914 304.134,363.764 303.311,364.258 303.311 C 364.478 303.311,365.149 302.790,365.750 302.152 C 366.351 301.515,366.938 300.993,367.054 300.993 C 367.397 300.993,368.212 300.078,368.212 299.693 C 368.212 299.497,368.503 299.338,368.858 299.338 C 369.213 299.338,369.655 299.077,369.841 298.758 C 370.027 298.440,370.183 298.302,370.189 298.453 C 370.203 298.850,372.848 296.120,372.848 295.708 C 372.848 295.519,373.185 295.364,373.597 295.364 C 374.009 295.364,374.624 294.995,374.963 294.543 C 375.302 294.091,375.710 293.802,375.870 293.900 C 376.029 293.998,376.159 293.910,376.159 293.704 C 376.159 293.303,376.966 292.384,377.318 292.384 C 377.435 292.384,377.738 292.198,377.992 291.970 C 378.995 291.071,379.451 290.728,379.645 290.728 C 379.914 290.728,380.795 289.841,380.795 289.570 C 380.795 289.226,381.710 288.411,382.096 288.411 C 382.291 288.411,382.450 288.262,382.450 288.079 C 382.450 287.897,382.679 287.748,382.957 287.748 C 383.236 287.748,383.550 287.525,383.655 287.252 C 383.760 286.978,383.992 286.755,384.171 286.755 C 384.350 286.755,385.148 286.084,385.944 285.265 C 386.741 284.445,387.554 283.775,387.752 283.775 C 387.949 283.775,388.791 283.104,389.622 282.285 C 390.453 281.465,391.266 280.795,391.428 280.795 C 391.590 280.795,391.722 280.571,391.722 280.298 C 391.722 280.025,391.983 279.797,392.301 279.791 C 393.017 279.778,394.040 279.032,394.040 278.523 C 394.040 278.316,394.196 278.146,394.386 278.146 C 394.835 278.146,396.358 276.623,396.358 276.174 C 396.358 275.984,396.635 275.828,396.974 275.828 C 398.422 275.828,400.000 273.696,400.000 271.738 C 400.000 269.772,399.776 268.874,399.287 268.874 C 399.116 268.874,398.604 268.502,398.149 268.046 C 397.693 267.591,397.182 267.219,397.012 267.219 C 396.842 267.219,395.871 266.399,394.853 265.397 C 393.835 264.396,392.740 263.576,392.418 263.576 C 392.097 263.576,391.634 263.204,391.391 262.748 C 391.147 262.293,390.749 261.921,390.507 261.921 C 390.265 261.921,390.066 261.761,390.066 261.566 C 390.066 261.107,389.224 260.265,388.765 260.265 C 388.570 260.265,388.411 260.116,388.411 259.934 C 388.411 259.752,388.113 259.603,387.748 259.603 C 387.384 259.603,387.086 259.443,387.086 259.248 C 387.086 258.851,386.267 257.947,385.907 257.947 C 385.779 257.947,385.182 257.425,384.581 256.788 C 383.980 256.151,383.255 255.629,382.969 255.629 C 382.684 255.629,382.450 255.480,382.450 255.298 C 382.450 255.116,382.227 254.967,381.954 254.967 C 381.680 254.967,381.457 254.801,381.457 254.598 C 381.457 254.021,378.713 251.656,378.044 251.656 C 377.714 251.656,377.536 251.507,377.649 251.325 C 377.762 251.142,377.621 250.993,377.337 250.993 C 377.053 250.993,376.821 250.770,376.821 250.497 C 376.821 250.224,376.701 250.000,376.555 250.000 C 376.408 250.000,375.719 249.478,375.023 248.841 C 374.327 248.204,373.586 247.682,373.376 247.682 C 373.166 247.682,372.779 247.384,372.517 247.020 C 372.254 246.656,371.853 246.358,371.626 246.358 C 371.395 246.358,371.297 246.139,371.403 245.861 C 371.524 245.546,371.399 245.364,371.062 245.364 C 370.769 245.364,370.530 245.247,370.530 245.105 C 370.530 244.962,370.070 244.573,369.507 244.241 C 368.945 243.909,367.669 242.833,366.671 241.852 C 365.673 240.870,364.569 240.066,364.216 240.066 C 363.864 240.066,363.576 239.907,363.576 239.711 C 363.576 239.326,362.761 238.411,362.417 238.411 C 362.073 238.411,361.258 237.496,361.258 237.110 C 361.258 236.915,361.035 236.755,360.762 236.755 C 360.488 236.755,360.265 236.606,360.265 236.424 C 360.265 236.242,359.967 236.093,359.603 236.093 C 359.235 236.093,358.940 235.872,358.940 235.596 C 358.940 235.323,358.816 235.099,358.663 235.099 C 358.511 235.099,357.768 234.511,357.012 233.793 C 356.257 233.074,355.115 232.237,354.475 231.934 C 353.835 231.630,353.311 231.210,353.311 231.001 C 353.311 230.792,352.914 230.325,352.429 229.963 C 351.943 229.601,351.321 229.081,351.045 228.808 C 350.770 228.535,350.459 228.306,350.355 228.299 C 349.966 228.275,348.675 227.314,348.675 227.049 C 348.675 226.730,347.826 225.828,347.525 225.828 C 347.413 225.828,346.948 225.455,346.493 225.000 C 346.038 224.545,345.526 224.172,345.357 224.172 C 345.187 224.172,344.215 223.353,343.197 222.351 C 342.180 221.349,341.170 220.525,340.955 220.520 C 340.440 220.507,338.411 218.654,338.411 218.197 C 338.411 218.002,338.262 217.934,338.079 218.046 C 337.897 218.159,337.748 218.019,337.748 217.735 C 337.748 217.451,337.525 217.219,337.252 217.219 C 336.978 217.219,336.755 217.070,336.755 216.887 C 336.755 216.705,336.457 216.556,336.093 216.556 C 335.728 216.556,335.430 216.397,335.430 216.202 C 335.430 216.006,335.218 215.634,334.957 215.374 C 334.697 215.114,334.325 214.901,334.130 214.901 C 333.934 214.901,333.775 214.752,333.775 214.570 C 333.775 214.387,333.526 214.238,333.223 214.238 C 332.919 214.238,332.758 214.151,332.864 214.045 C 333.225 213.684,331.792 212.583,330.960 212.583 C 330.505 212.583,330.110 212.695,330.082 212.831 M0.000 271.854 L 0.000 296.026 76.600 296.026 C 118.731 296.026,153.263 295.964,153.339 295.889 C 153.874 295.354,153.266 247.633,152.727 247.897 C 151.860 248.322,52.980 248.450,52.980 248.025 C 52.980 247.791,44.557 247.682,26.490 247.682 L 0.000 247.682 0.000 271.854 " stroke="none" fill="#f37e5d" fill-rule="evenodd"></path><path id="path2" d="M162.140 2.815 C 161.272 3.634,160.508 4.305,160.442 4.305 C 160.254 4.305,158.634 5.666,157.190 7.036 C 156.471 7.719,155.815 8.278,155.732 8.278 C 155.649 8.278,155.374 8.464,155.120 8.692 C 154.126 9.584,153.662 9.934,153.476 9.934 C 153.137 9.934,151.486 11.718,151.573 11.991 C 151.618 12.134,151.432 12.252,151.159 12.252 C 150.886 12.252,150.662 12.401,150.662 12.583 C 150.662 12.765,150.497 12.914,150.295 12.914 C 149.920 12.914,149.261 13.457,146.986 15.646 C 146.276 16.329,145.573 16.887,145.424 16.887 C 145.275 16.887,144.657 17.330,144.051 17.871 C 143.445 18.412,142.599 19.117,142.170 19.439 C 141.741 19.761,141.391 20.213,141.391 20.443 C 141.391 20.673,141.111 20.861,140.769 20.861 C 140.060 20.861,136.755 23.874,136.755 24.520 C 136.755 24.754,136.660 24.849,136.543 24.733 C 136.296 24.486,134.437 25.515,134.437 25.899 C 134.437 26.042,134.214 26.159,133.940 26.159 C 133.667 26.159,133.444 26.319,133.444 26.514 C 133.444 26.894,132.631 27.815,132.294 27.815 C 132.069 27.815,131.498 28.265,130.297 29.387 C 129.859 29.797,129.370 30.132,129.210 30.132 C 129.050 30.132,128.720 30.505,128.477 30.960 C 128.233 31.416,127.899 31.788,127.735 31.788 C 127.571 31.788,127.228 31.974,126.975 32.202 C 125.918 33.150,125.510 33.444,125.253 33.444 C 125.103 33.444,124.766 33.742,124.503 34.106 C 124.241 34.470,123.835 34.768,123.602 34.768 C 123.369 34.768,123.179 34.928,123.179 35.123 C 123.179 35.601,122.328 36.424,121.834 36.424 C 121.615 36.424,120.944 36.945,120.343 37.583 C 119.742 38.220,119.116 38.742,118.952 38.742 C 118.789 38.742,118.456 39.114,118.212 39.570 C 117.968 40.025,117.564 40.397,117.314 40.397 C 116.596 40.397,115.525 41.570,115.738 42.124 C 115.870 42.468,115.068 43.334,113.180 44.886 C 111.668 46.129,110.356 47.233,110.265 47.339 C 110.121 47.506,108.915 48.511,102.962 53.425 C 96.953 58.386,95.364 59.821,95.364 60.287 C 95.364 60.796,97.295 62.633,100.343 65.024 C 107.850 70.915,127.211 87.457,127.707 88.406 C 128.436 89.798,128.965 90.397,129.466 90.397 C 129.672 90.397,129.748 90.546,129.636 90.728 C 129.523 90.911,129.600 91.060,129.805 91.060 C 130.011 91.060,130.387 91.246,130.641 91.474 C 131.737 92.456,132.112 92.715,132.436 92.715 C 132.626 92.715,132.781 92.939,132.781 93.212 C 132.781 93.485,132.895 93.709,133.033 93.709 C 133.172 93.709,133.880 94.227,134.606 94.861 C 135.333 95.495,136.036 96.017,136.168 96.020 C 136.301 96.024,137.242 96.846,138.260 97.848 C 139.277 98.849,140.398 99.669,140.750 99.669 C 141.103 99.669,141.391 99.818,141.391 100.000 C 141.391 100.403,144.002 102.980,144.411 102.980 C 144.571 102.980,144.702 103.129,144.702 103.311 C 144.702 103.493,145.000 103.642,145.364 103.642 C 145.732 103.642,146.026 103.863,146.026 104.139 C 146.026 104.412,146.147 104.636,146.294 104.636 C 146.440 104.636,147.281 105.306,148.161 106.126 C 149.041 106.945,149.964 107.616,150.212 107.616 C 150.459 107.616,150.662 107.765,150.662 107.947 C 150.662 108.129,150.886 108.278,151.159 108.278 C 151.432 108.278,151.618 108.396,151.573 108.539 C 151.485 108.816,153.140 110.596,153.485 110.596 C 153.598 110.596,153.897 110.782,154.151 111.010 C 155.247 111.993,155.622 112.252,155.946 112.252 C 156.136 112.252,156.291 112.420,156.291 112.627 C 156.291 113.016,156.946 113.659,158.459 114.756 C 158.946 115.109,159.541 115.584,159.781 115.811 C 160.021 116.039,160.313 116.225,160.430 116.225 C 160.774 116.225,161.589 117.140,161.589 117.526 C 161.589 117.721,161.813 117.881,162.086 117.881 C 162.359 117.881,162.583 117.998,162.583 118.141 C 162.583 118.504,164.396 119.536,165.035 119.536 C 165.511 119.536,165.563 117.889,165.563 102.649 L 165.563 85.762 166.391 85.762 C 166.846 85.762,167.219 85.911,167.219 86.093 C 167.219 86.276,168.090 86.424,169.170 86.424 C 170.599 86.424,171.172 86.557,171.312 86.921 C 171.438 87.248,171.956 87.417,172.837 87.417 C 173.571 87.417,174.172 87.566,174.172 87.748 C 174.172 87.930,174.768 88.079,175.497 88.079 C 176.225 88.079,176.821 88.228,176.821 88.411 C 176.821 88.593,177.279 88.742,177.838 88.742 C 178.398 88.742,179.079 88.965,179.352 89.238 C 179.625 89.512,180.127 89.735,180.468 89.735 C 180.808 89.735,181.179 89.884,181.291 90.066 C 181.404 90.248,181.934 90.397,182.470 90.397 C 183.005 90.397,183.444 90.546,183.444 90.728 C 183.444 90.911,183.821 91.060,184.282 91.060 C 184.743 91.060,185.206 91.283,185.311 91.556 C 185.416 91.829,185.775 92.053,186.109 92.053 C 186.443 92.053,186.808 92.202,186.921 92.384 C 187.033 92.566,187.494 92.715,187.944 92.715 C 188.394 92.715,188.848 92.939,188.953 93.212 C 189.058 93.485,189.389 93.712,189.688 93.716 C 189.987 93.720,190.604 94.015,191.060 94.371 C 191.515 94.727,192.148 95.022,192.467 95.026 C 192.786 95.030,193.046 95.179,193.046 95.358 C 193.046 95.537,193.419 95.776,193.874 95.891 C 194.329 96.005,194.702 96.231,194.702 96.394 C 194.702 96.556,195.000 96.689,195.364 96.689 C 195.728 96.689,196.026 96.838,196.026 97.020 C 196.026 97.202,196.250 97.351,196.523 97.351 C 196.796 97.351,197.020 97.493,197.020 97.667 C 197.020 97.840,197.541 98.230,198.179 98.532 C 198.816 98.835,199.338 99.214,199.338 99.375 C 199.338 99.537,199.636 99.669,200.000 99.669 C 200.368 99.669,200.662 99.890,200.662 100.166 C 200.662 100.439,200.886 100.662,201.159 100.662 C 201.432 100.662,201.656 100.779,201.656 100.922 C 201.656 101.065,202.140 101.464,202.732 101.809 C 203.324 102.154,204.049 102.708,204.343 103.039 C 204.638 103.371,205.023 103.642,205.198 103.642 C 205.374 103.642,205.717 104.015,205.960 104.470 C 206.204 104.925,206.602 105.298,206.844 105.298 C 207.086 105.298,207.285 105.447,207.285 105.629 C 207.285 105.811,207.475 105.960,207.708 105.960 C 207.941 105.960,208.359 106.221,208.637 106.540 C 208.915 106.858,209.544 107.415,210.035 107.777 C 210.526 108.139,210.927 108.623,210.927 108.853 C 210.927 109.083,211.087 109.272,211.282 109.272 C 211.702 109.272,212.583 110.099,212.583 110.494 C 212.583 110.646,212.955 111.050,213.411 111.392 C 213.866 111.734,214.238 112.216,214.238 112.464 C 214.238 112.711,214.387 112.914,214.570 112.914 C 214.752 112.914,214.901 113.112,214.901 113.355 C 214.901 113.597,215.273 113.995,215.728 114.238 C 216.184 114.482,216.556 114.847,216.556 115.049 C 216.556 115.251,216.854 115.632,217.219 115.894 C 217.583 116.157,217.881 116.556,217.881 116.782 C 217.881 117.007,218.440 117.774,219.123 118.485 C 219.805 119.196,220.413 119.984,220.472 120.236 C 220.531 120.489,220.717 120.745,220.886 120.806 C 221.054 120.866,221.192 121.127,221.192 121.385 C 221.192 121.643,221.341 121.854,221.523 121.854 C 221.705 121.854,221.854 122.152,221.854 122.517 C 221.854 122.884,222.075 123.179,222.351 123.179 C 222.624 123.179,222.848 123.449,222.848 123.779 C 222.848 124.109,223.146 124.698,223.510 125.089 C 223.874 125.480,224.172 126.104,224.172 126.476 C 224.172 126.856,224.390 127.152,224.669 127.152 C 224.978 127.152,225.166 127.465,225.166 127.980 C 225.166 128.435,225.315 128.808,225.497 128.808 C 225.679 128.808,225.828 129.106,225.828 129.470 C 225.828 129.834,225.977 130.132,226.159 130.132 C 226.341 130.132,226.490 130.435,226.490 130.805 C 226.490 131.175,226.714 131.564,226.987 131.668 C 227.260 131.773,227.483 132.216,227.483 132.651 C 227.483 133.087,227.632 133.444,227.815 133.444 C 227.997 133.444,228.146 133.800,228.146 134.236 C 228.146 134.672,228.351 135.107,228.601 135.203 C 228.851 135.299,229.056 135.793,229.056 136.301 C 229.056 136.809,229.224 137.280,229.429 137.348 C 229.634 137.417,229.801 137.833,229.801 138.273 C 229.801 138.713,229.950 139.073,230.132 139.073 C 230.315 139.073,230.464 139.578,230.464 140.196 C 230.464 140.890,230.654 141.393,230.960 141.510 C 231.288 141.636,231.457 142.155,231.457 143.036 C 231.457 143.770,231.606 144.371,231.788 144.371 C 231.970 144.371,232.119 144.884,232.119 145.510 C 232.119 146.137,232.268 146.742,232.450 146.854 C 232.632 146.967,232.781 147.800,232.781 148.705 C 232.781 149.864,232.929 150.408,233.278 150.543 C 233.652 150.686,233.775 151.289,233.775 152.988 C 233.775 154.240,233.926 155.293,234.116 155.356 C 234.587 155.514,234.587 176.274,234.116 176.432 C 233.923 176.496,233.775 177.611,233.775 179.001 C 233.775 180.723,233.657 181.432,233.381 181.374 C 233.132 181.322,232.941 181.897,232.858 182.947 C 232.787 183.858,232.591 184.744,232.424 184.917 C 232.256 185.090,232.119 185.724,232.119 186.325 C 232.119 186.925,231.970 187.417,231.788 187.417 C 231.606 187.417,231.457 188.162,231.457 189.073 C 231.457 190.324,231.336 190.728,230.960 190.728 C 230.613 190.728,230.464 191.078,230.464 191.887 C 230.464 192.525,230.315 193.046,230.132 193.046 C 229.950 193.046,229.801 193.406,229.801 193.847 C 229.801 194.287,229.649 194.698,229.463 194.760 C 229.277 194.822,229.044 195.318,228.947 195.863 C 228.849 196.408,228.629 196.904,228.457 196.965 C 228.286 197.025,228.146 197.361,228.146 197.710 C 228.146 198.059,227.997 198.344,227.815 198.344 C 227.632 198.344,227.483 198.699,227.483 199.132 C 227.483 199.565,227.260 200.104,226.987 200.331 C 226.714 200.558,226.490 200.949,226.490 201.199 C 226.490 201.450,226.341 201.656,226.159 201.656 C 225.977 201.656,225.828 202.028,225.828 202.483 C 225.828 202.939,225.679 203.311,225.497 203.311 C 225.315 203.311,225.166 203.609,225.166 203.974 C 225.166 204.338,225.019 204.636,224.841 204.636 C 224.662 204.636,224.422 205.008,224.308 205.464 C 224.194 205.919,223.968 206.291,223.805 206.291 C 223.643 206.291,223.510 206.629,223.510 207.041 C 223.510 207.453,223.138 208.069,222.682 208.411 C 222.227 208.753,221.854 209.277,221.854 209.576 C 221.854 209.874,221.556 210.333,221.192 210.596 C 220.828 210.859,220.530 211.331,220.530 211.646 C 220.530 211.961,220.343 212.338,220.114 212.484 C 219.885 212.629,219.258 213.344,218.720 214.073 C 218.183 214.801,217.625 215.447,217.481 215.508 C 217.336 215.568,217.219 215.796,217.219 216.014 C 217.219 216.232,216.908 216.629,216.528 216.897 C 216.149 217.165,215.605 217.831,215.320 218.377 C 215.036 218.924,214.117 220.032,213.279 220.839 C 212.441 221.646,211.792 222.429,211.838 222.577 C 211.883 222.726,211.759 222.848,211.561 222.848 C 211.363 222.848,210.401 223.667,209.423 224.669 C 208.445 225.671,207.489 226.490,207.299 226.490 C 207.109 226.490,206.954 226.714,206.954 226.987 C 206.954 227.260,206.739 227.483,206.476 227.483 C 206.214 227.483,205.344 228.117,204.543 228.891 C 203.084 230.300,202.253 230.936,201.325 231.353 C 201.051 231.476,200.587 231.848,200.292 232.179 C 199.998 232.510,199.534 232.781,199.263 232.781 C 198.991 232.781,198.489 233.154,198.147 233.609 C 197.805 234.065,197.273 234.437,196.965 234.437 C 196.658 234.437,196.113 234.810,195.755 235.265 C 195.396 235.720,194.790 236.093,194.406 236.093 C 194.022 236.093,193.709 236.242,193.709 236.424 C 193.709 236.606,193.406 236.755,193.036 236.755 C 192.666 236.755,192.278 236.978,192.173 237.252 C 192.068 237.525,191.700 237.748,191.355 237.748 C 191.011 237.748,190.728 237.897,190.728 238.079 C 190.728 238.262,190.420 238.411,190.043 238.411 C 189.665 238.411,189.132 238.635,188.857 238.910 C 188.582 239.185,188.219 239.325,188.050 239.220 C 187.882 239.116,187.654 239.264,187.545 239.549 C 187.436 239.833,187.064 240.066,186.720 240.066 C 186.375 240.066,186.093 240.215,186.093 240.397 C 186.093 240.579,185.720 240.728,185.265 240.728 C 184.810 240.728,184.437 240.877,184.437 241.060 C 184.437 241.242,183.985 241.391,183.433 241.391 C 182.847 241.391,182.350 241.597,182.239 241.887 C 182.134 242.161,181.692 242.384,181.256 242.384 C 180.820 242.384,180.464 242.533,180.464 242.715 C 180.464 242.897,179.942 243.046,179.305 243.046 C 178.667 243.046,178.146 243.176,178.146 243.334 C 178.146 243.492,177.516 243.706,176.746 243.809 C 175.975 243.913,175.292 244.156,175.228 244.350 C 175.163 244.543,174.527 244.702,173.813 244.702 C 173.100 244.702,172.517 244.851,172.517 245.033 C 172.517 245.215,171.697 245.364,170.695 245.364 C 169.297 245.364,168.874 245.480,168.874 245.861 C 168.874 246.258,168.377 246.358,166.391 246.358 C 164.956 246.358,163.907 246.497,163.907 246.689 C 163.907 246.895,162.043 247.020,158.976 247.020 C 154.784 247.020,154.014 247.098,153.843 247.544 C 153.733 247.832,153.642 258.709,153.642 271.716 L 153.642 295.364 158.416 295.364 C 161.669 295.364,163.230 295.245,163.315 294.990 C 163.387 294.774,165.179 294.423,167.564 294.159 C 169.833 293.907,172.657 293.560,173.841 293.387 C 177.719 292.820,182.920 291.782,183.940 291.371 C 184.305 291.225,185.050 291.038,185.596 290.956 C 186.599 290.807,190.994 289.555,192.219 289.070 C 192.583 288.926,193.775 288.550,194.868 288.236 C 195.960 287.921,196.996 287.533,197.169 287.375 C 197.342 287.216,197.754 287.086,198.084 287.086 C 198.414 287.086,198.943 286.954,199.259 286.792 C 199.927 286.450,201.785 285.643,202.980 285.177 C 206.808 283.683,215.704 279.197,219.136 277.031 C 219.895 276.551,220.584 276.159,220.667 276.159 C 220.947 276.159,226.986 272.054,227.097 271.787 C 227.158 271.642,227.349 271.523,227.523 271.523 C 227.971 271.523,232.723 267.866,237.583 263.781 C 241.614 260.393,247.873 254.141,251.434 249.948 C 252.309 248.917,253.387 247.983,253.830 247.872 C 254.273 247.760,254.636 247.523,254.636 247.345 C 254.636 247.166,254.859 247.020,255.132 247.020 C 255.406 247.020,255.629 246.864,255.629 246.674 C 255.629 246.483,256.002 245.955,256.457 245.500 C 256.912 245.044,257.285 244.488,257.285 244.263 C 257.285 244.039,257.583 243.640,257.947 243.377 C 258.311 243.115,258.609 242.778,258.609 242.628 C 258.609 242.479,258.761 242.176,258.947 241.956 C 260.549 240.058,260.926 239.493,260.927 238.990 C 260.927 238.671,261.151 238.411,261.424 238.411 C 261.697 238.411,261.921 238.187,261.921 237.914 C 261.921 237.641,262.070 237.417,262.252 237.417 C 262.434 237.417,262.583 237.119,262.583 236.755 C 262.583 236.391,262.732 236.093,262.914 236.093 C 263.096 236.093,263.245 235.885,263.245 235.631 C 263.245 235.378,263.469 235.084,263.742 234.980 C 264.015 234.875,264.238 234.561,264.238 234.282 C 264.238 234.003,264.387 233.775,264.570 233.775 C 264.752 233.775,264.901 233.402,264.901 232.947 C 264.901 232.432,265.088 232.119,265.397 232.119 C 265.671 232.119,265.894 231.896,265.894 231.623 C 265.894 231.349,266.043 231.126,266.225 231.126 C 266.407 231.126,266.556 230.828,266.556 230.464 C 266.556 230.099,266.705 229.801,266.887 229.801 C 267.070 229.801,267.219 229.429,267.219 228.974 C 267.219 228.458,267.406 228.146,267.715 228.146 C 268.024 228.146,268.212 227.833,268.212 227.318 C 268.212 226.863,268.361 226.490,268.543 226.490 C 268.725 226.490,268.874 226.192,268.874 225.828 C 268.874 225.464,269.023 225.166,269.205 225.166 C 269.387 225.166,269.536 224.793,269.536 224.338 C 269.536 223.823,269.724 223.510,270.033 223.510 C 270.342 223.510,270.530 223.197,270.530 222.682 C 270.530 222.227,270.679 221.854,270.861 221.854 C 271.043 221.854,271.192 221.482,271.192 221.026 C 271.192 220.571,271.341 220.199,271.523 220.199 C 271.705 220.199,271.854 219.917,271.854 219.572 C 271.854 219.227,272.078 218.859,272.351 218.754 C 272.624 218.650,272.848 218.261,272.848 217.891 C 272.848 217.521,272.997 217.219,273.179 217.219 C 273.361 217.219,273.510 216.713,273.510 216.095 C 273.510 215.402,273.700 214.899,274.007 214.781 C 274.280 214.676,274.503 214.213,274.503 213.752 C 274.503 213.291,274.652 212.914,274.834 212.914 C 275.017 212.914,275.166 212.467,275.166 211.921 C 275.166 211.374,275.315 210.927,275.497 210.927 C 275.679 210.927,275.828 210.406,275.828 209.768 C 275.828 208.959,275.978 208.609,276.325 208.609 C 276.671 208.609,276.821 208.260,276.821 207.450 C 276.821 206.813,276.970 206.291,277.152 206.291 C 277.334 206.291,277.483 205.770,277.483 205.132 C 277.483 204.495,277.632 203.974,277.815 203.974 C 277.997 203.974,278.146 203.228,278.146 202.318 C 278.146 201.067,278.267 200.662,278.642 200.662 C 278.989 200.662,279.139 200.313,279.139 199.503 C 279.139 198.866,279.288 198.344,279.470 198.344 C 279.654 198.344,279.801 197.461,279.801 196.358 C 279.801 195.254,279.948 194.371,280.132 194.371 C 280.315 194.371,280.464 193.764,280.464 193.023 C 280.464 192.266,280.681 191.457,280.960 191.178 C 281.289 190.849,281.457 190.024,281.457 188.738 C 281.457 187.669,281.606 186.702,281.788 186.589 C 281.970 186.477,282.119 185.068,282.119 183.460 C 282.119 181.148,282.225 180.494,282.622 180.341 C 283.364 180.057,283.345 152.597,282.602 151.855 C 282.250 151.503,282.119 150.559,282.119 148.368 C 282.119 146.586,281.984 145.364,281.788 145.364 C 281.601 145.364,281.457 144.423,281.457 143.202 C 281.457 141.585,281.332 140.991,280.960 140.848 C 280.612 140.715,280.464 140.172,280.464 139.037 C 280.464 138.146,280.315 137.417,280.132 137.417 C 279.950 137.417,279.801 136.598,279.801 135.596 C 279.801 134.594,279.652 133.775,279.470 133.775 C 279.288 133.775,279.139 133.179,279.139 132.450 C 279.139 131.494,279.001 131.126,278.642 131.126 C 278.274 131.126,278.146 130.740,278.146 129.636 C 278.146 128.816,277.997 128.146,277.815 128.146 C 277.632 128.146,277.483 127.624,277.483 126.987 C 277.483 126.349,277.334 125.828,277.152 125.828 C 276.970 125.828,276.821 125.302,276.821 124.658 C 276.821 123.925,276.636 123.418,276.325 123.299 C 276.016 123.180,275.828 122.675,275.828 121.965 C 275.828 121.287,275.693 120.905,275.497 121.026 C 275.304 121.146,275.166 120.816,275.166 120.238 C 275.166 119.691,275.017 119.152,274.834 119.040 C 274.652 118.927,274.503 118.487,274.503 118.062 C 274.503 117.637,274.280 117.204,274.007 117.099 C 273.733 116.994,273.510 116.540,273.510 116.090 C 273.510 115.639,273.361 115.179,273.179 115.066 C 272.997 114.954,272.848 114.498,272.848 114.053 C 272.848 113.556,272.657 113.245,272.351 113.245 C 272.042 113.245,271.854 112.932,271.854 112.417 C 271.854 111.962,271.705 111.589,271.523 111.589 C 271.341 111.589,271.192 111.217,271.192 110.762 C 271.192 110.306,271.053 109.934,270.884 109.934 C 270.715 109.934,270.525 109.599,270.462 109.189 C 270.400 108.779,270.166 108.481,269.942 108.526 C 269.708 108.574,269.536 108.259,269.536 107.781 C 269.536 107.326,269.387 106.954,269.205 106.954 C 269.023 106.954,268.874 106.581,268.874 106.126 C 268.874 105.671,268.725 105.298,268.543 105.298 C 268.361 105.298,268.212 104.995,268.212 104.625 C 268.212 104.255,267.988 103.867,267.715 103.762 C 267.442 103.657,267.219 103.289,267.219 102.945 C 267.219 102.600,267.070 102.318,266.887 102.318 C 266.705 102.318,266.556 102.020,266.556 101.656 C 266.556 101.291,266.407 100.993,266.225 100.993 C 266.043 100.993,265.894 100.786,265.894 100.532 C 265.894 100.278,265.671 99.985,265.397 99.880 C 265.124 99.775,264.901 99.387,264.901 99.017 C 264.901 98.647,264.752 98.344,264.570 98.344 C 264.387 98.344,264.238 98.067,264.238 97.729 C 264.238 97.390,263.866 96.833,263.411 96.491 C 262.955 96.149,262.583 95.596,262.583 95.262 C 262.583 94.595,261.841 93.709,261.282 93.709 C 261.087 93.709,260.927 93.391,260.927 93.002 C 260.927 92.614,260.650 92.055,260.312 91.761 C 259.974 91.466,259.592 90.890,259.462 90.480 C 259.333 90.070,259.088 89.735,258.918 89.735 C 258.748 89.735,258.609 89.579,258.609 89.389 C 258.609 89.199,258.237 88.670,257.781 88.215 C 257.326 87.760,256.953 87.282,256.953 87.154 C 256.953 86.742,255.400 85.099,255.011 85.099 C 254.805 85.099,254.636 84.876,254.636 84.603 C 254.636 84.329,254.487 84.106,254.305 84.106 C 254.123 84.106,253.974 83.867,253.974 83.575 C 253.974 83.283,252.930 82.012,251.656 80.749 C 250.381 79.487,249.338 78.325,249.338 78.167 C 249.338 77.698,242.973 71.382,241.805 70.692 C 241.213 70.342,240.728 69.928,240.728 69.773 C 240.728 69.442,239.881 68.543,239.570 68.543 C 239.226 68.543,238.411 67.628,238.411 67.242 C 238.411 67.047,238.220 66.887,237.987 66.887 C 237.754 66.887,237.349 66.589,237.086 66.225 C 236.824 65.861,236.432 65.563,236.216 65.563 C 236.000 65.563,235.051 64.818,234.106 63.907 C 233.161 62.997,232.179 62.252,231.923 62.252 C 231.666 62.252,231.457 62.103,231.457 61.921 C 231.457 61.738,231.233 61.589,230.960 61.589 C 230.687 61.589,230.464 61.402,230.464 61.174 C 230.464 60.945,229.982 60.545,229.393 60.284 C 228.805 60.023,227.978 59.466,227.557 59.044 C 227.136 58.623,226.574 58.278,226.309 58.278 C 226.045 58.278,225.828 58.129,225.828 57.947 C 225.828 57.765,225.668 57.616,225.473 57.616 C 225.278 57.616,224.911 57.430,224.657 57.202 C 223.561 56.219,223.186 55.960,222.862 55.960 C 222.672 55.960,222.517 55.811,222.517 55.629 C 222.517 55.447,222.219 55.298,221.854 55.298 C 221.490 55.298,221.192 55.152,221.192 54.973 C 221.192 54.795,220.820 54.555,220.364 54.441 C 219.909 54.326,219.536 54.136,219.536 54.018 C 219.536 53.901,219.052 53.591,218.460 53.330 C 217.868 53.069,217.187 52.660,216.947 52.421 C 216.706 52.182,216.296 51.987,216.036 51.987 C 215.776 51.987,215.563 51.838,215.563 51.656 C 215.563 51.474,215.302 51.320,214.983 51.314 C 214.665 51.308,214.121 51.089,213.776 50.828 C 213.430 50.566,213.036 50.421,212.900 50.505 C 212.764 50.590,212.567 50.436,212.462 50.164 C 212.358 49.892,211.970 49.669,211.600 49.669 C 211.230 49.669,210.927 49.520,210.927 49.338 C 210.927 49.156,210.555 49.007,210.099 49.007 C 209.644 49.007,209.271 48.895,209.269 48.758 C 209.267 48.425,207.352 47.351,206.761 47.351 C 206.503 47.351,206.291 47.202,206.291 47.020 C 206.291 46.838,205.770 46.689,205.132 46.689 C 204.323 46.689,203.974 46.539,203.974 46.192 C 203.974 45.886,203.663 45.695,203.165 45.695 C 202.721 45.695,202.265 45.546,202.152 45.364 C 202.040 45.182,201.593 45.033,201.159 45.033 C 200.725 45.033,200.278 44.884,200.166 44.702 C 200.053 44.520,199.615 44.371,199.193 44.371 C 198.771 44.371,198.240 44.147,198.013 43.874 C 197.787 43.601,197.247 43.377,196.814 43.377 C 196.381 43.377,196.026 43.228,196.026 43.046 C 196.026 42.864,195.517 42.715,194.895 42.715 C 194.273 42.715,193.714 42.569,193.653 42.390 C 193.593 42.211,193.053 42.011,192.453 41.946 C 191.854 41.880,191.191 41.654,190.980 41.443 C 190.769 41.232,190.113 41.060,189.523 41.060 C 188.933 41.060,188.358 40.911,188.245 40.728 C 188.132 40.546,187.443 40.397,186.712 40.397 C 185.972 40.397,185.163 40.177,184.886 39.901 C 184.613 39.627,183.888 39.404,183.274 39.404 C 182.660 39.404,182.066 39.255,181.954 39.073 C 181.841 38.891,180.938 38.742,179.947 38.742 C 178.956 38.742,178.146 38.593,178.146 38.411 C 178.146 38.221,177.149 38.079,175.817 38.079 C 174.155 38.079,173.440 37.950,173.316 37.627 C 173.190 37.300,172.345 37.158,170.263 37.113 C 168.680 37.078,167.243 36.909,167.070 36.737 C 166.897 36.565,166.487 36.424,166.159 36.424 C 165.592 36.424,165.563 35.553,165.563 18.874 L 165.563 1.325 164.640 1.325 C 164.001 1.325,163.233 1.782,162.140 2.815 " stroke="none" fill="#6fde83" fill-rule="evenodd"></path><path id="path3" d="M146.941 248.247 C 147.353 248.327,147.949 248.324,148.265 248.241 C 148.582 248.158,148.245 248.093,147.517 248.097 C 146.788 248.100,146.529 248.168,146.941 248.247 M251.737 250.123 C 250.962 251.057,249.874 252.305,249.319 252.897 C 248.765 253.489,248.420 253.974,248.552 253.974 C 249.000 253.974,253.526 248.768,253.275 248.542 C 253.204 248.477,252.512 249.189,251.737 250.123 M246.942 255.304 C 246.445 255.847,246.159 256.291,246.308 256.291 C 246.457 256.291,246.978 255.844,247.464 255.298 C 247.951 254.752,248.237 254.307,248.099 254.311 C 247.961 254.314,247.440 254.761,246.942 255.304 M244.847 257.699 L 243.874 258.775 244.950 257.802 C 245.542 257.267,246.026 256.783,246.026 256.726 C 246.026 256.470,245.753 256.696,244.847 257.699 M242.176 260.075 C 241.474 260.699,240.974 261.278,241.063 261.362 C 241.152 261.445,241.821 260.936,242.550 260.230 C 244.187 258.641,243.914 258.528,242.176 260.075 M238.411 263.659 C 236.595 265.347,236.517 265.459,237.914 264.375 C 240.092 262.684,240.877 261.957,240.704 261.793 C 240.627 261.719,239.594 262.559,238.411 263.659 M234.161 267.055 C 231.955 268.806,230.832 269.997,232.616 268.694 C 233.344 268.162,234.164 267.540,234.437 267.313 C 234.710 267.086,235.232 266.686,235.596 266.424 C 235.959 266.162,236.183 265.882,236.092 265.801 C 236.001 265.719,235.132 266.284,234.161 267.055 M228.070 271.652 C 224.847 273.954,224.585 274.172,225.048 274.172 C 225.226 274.172,225.661 273.904,226.014 273.576 C 226.367 273.248,227.140 272.695,227.732 272.346 C 228.324 271.997,228.808 271.595,228.808 271.452 C 228.808 271.309,228.994 271.187,229.222 271.181 C 229.692 271.169,231.288 269.920,231.089 269.720 C 231.017 269.648,229.659 270.518,228.070 271.652 M223.510 274.834 C 223.055 275.191,222.514 275.485,222.309 275.489 C 222.103 275.493,221.770 275.696,221.568 275.939 C 221.366 276.182,220.512 276.736,219.670 277.169 C 218.828 277.602,218.294 278.008,218.484 278.071 C 218.836 278.188,221.599 276.525,221.799 276.076 C 221.860 275.940,222.083 275.827,222.296 275.826 C 222.508 275.825,223.129 275.458,223.675 275.010 C 224.851 274.047,224.709 273.896,223.510 274.834 M217.053 278.598 C 216.689 278.805,216.316 279.051,216.225 279.146 C 216.134 279.241,215.631 279.507,215.106 279.738 C 214.582 279.968,214.229 280.233,214.322 280.326 C 214.458 280.462,217.324 279.059,217.853 278.597 C 218.229 278.269,217.633 278.270,217.053 278.598 M212.140 281.228 C 211.442 281.617,211.013 281.982,211.188 282.041 C 211.496 282.143,213.907 280.863,213.907 280.596 C 213.907 280.345,213.408 280.524,212.140 281.228 M207.285 283.625 C 206.465 284.050,206.047 284.407,206.355 284.418 C 206.663 284.428,207.007 284.288,207.119 284.106 C 207.232 283.924,207.595 283.775,207.926 283.775 C 208.257 283.775,208.714 283.551,208.940 283.278 C 209.494 282.611,209.066 282.701,207.285 283.625 M202.815 285.556 C 201.213 286.166,200.375 286.733,201.057 286.745 C 201.365 286.750,201.709 286.606,201.821 286.424 C 201.934 286.242,202.278 286.088,202.586 286.082 C 202.894 286.076,203.435 285.853,203.788 285.585 C 204.528 285.026,204.230 285.018,202.815 285.556 M197.020 287.743 C 196.747 287.902,195.927 288.258,195.199 288.535 C 194.276 288.886,194.094 289.044,194.600 289.056 C 194.999 289.065,195.417 288.924,195.530 288.742 C 195.642 288.560,196.061 288.406,196.460 288.400 C 196.859 288.394,197.475 288.171,197.828 287.903 C 198.543 287.363,197.898 287.235,197.020 287.743 M192.550 289.404 C 192.437 289.586,191.937 289.735,191.437 289.735 C 190.938 289.735,190.388 289.871,190.215 290.038 C 190.042 290.205,189.528 290.408,189.073 290.490 C 188.379 290.614,188.419 290.646,189.321 290.683 C 189.913 290.708,190.397 290.579,190.397 290.397 C 190.397 290.215,190.816 290.066,191.327 290.066 C 192.206 290.066,193.986 289.106,193.149 289.083 C 192.932 289.078,192.662 289.222,192.550 289.404 M186.921 291.060 C 186.282 291.334,186.284 291.345,186.984 291.367 C 187.383 291.380,187.801 291.242,187.914 291.060 C 188.156 290.668,187.832 290.668,186.921 291.060 M184.255 291.688 C 184.082 291.851,183.344 292.067,182.616 292.168 C 181.887 292.269,180.621 292.489,179.801 292.657 L 178.311 292.963 179.699 293.005 C 180.462 293.028,181.179 292.897,181.291 292.715 C 181.404 292.533,182.055 292.384,182.738 292.384 C 183.794 292.384,185.907 291.431,184.917 291.401 C 184.726 291.395,184.428 291.524,184.255 291.688 M176.656 293.377 C 176.017 293.652,176.019 293.663,176.719 293.685 C 177.118 293.698,177.536 293.560,177.649 293.377 C 177.891 292.986,177.567 292.986,176.656 293.377 M172.185 294.040 C 171.730 294.186,170.464 294.322,169.371 294.342 C 167.121 294.385,165.894 294.642,165.894 295.072 C 165.894 295.233,166.192 295.364,166.556 295.364 C 166.921 295.364,167.219 295.215,167.219 295.033 C 167.219 294.849,168.138 294.696,169.288 294.688 C 170.426 294.680,172.177 294.469,173.179 294.219 C 174.447 293.903,174.698 293.766,174.007 293.770 C 173.460 293.772,172.641 293.894,172.185 294.040 " stroke="none" fill="#c48074" fill-rule="evenodd"></path><path id="path4" d="M150.745 247.910 C 151.064 247.994,151.585 247.994,151.904 247.910 C 152.223 247.827,151.962 247.759,151.325 247.759 C 150.687 247.759,150.426 247.827,150.745 247.910 M153.468 271.523 C 153.468 284.727,153.509 290.128,153.559 283.526 C 153.610 276.925,153.610 266.122,153.559 259.520 C 153.509 252.918,153.468 258.320,153.468 271.523 M76.599 248.262 C 89.498 248.310,110.508 248.310,123.287 248.262 C 136.067 248.214,125.513 248.174,99.834 248.174 C 74.156 248.174,63.700 248.214,76.599 248.262 M251.460 249.917 C 247.870 254.145,241.625 260.383,237.583 263.781 C 232.723 267.866,227.971 271.523,227.523 271.523 C 227.349 271.523,227.158 271.652,227.097 271.810 C 227.036 271.967,225.891 272.796,224.551 273.651 C 223.212 274.506,222.200 275.290,222.303 275.393 C 222.568 275.658,230.544 269.995,235.294 266.169 C 239.540 262.749,247.431 255.124,251.000 250.993 C 252.180 249.627,253.294 248.400,253.476 248.267 C 253.690 248.110,253.678 248.022,253.442 248.018 C 253.241 248.016,252.349 248.870,251.460 249.917 M221.020 275.943 C 220.652 276.153,219.609 276.768,218.702 277.309 C 214.681 279.712,206.522 283.794,202.980 285.177 C 201.785 285.643,199.927 286.450,199.259 286.792 C 198.943 286.954,198.476 287.086,198.221 287.086 C 197.966 287.086,197.331 287.309,196.809 287.581 C 196.209 287.894,196.067 288.076,196.421 288.077 C 196.729 288.079,197.073 287.930,197.185 287.748 C 197.298 287.566,197.689 287.417,198.053 287.417 C 198.418 287.417,199.490 287.065,200.434 286.635 C 201.379 286.205,202.674 285.661,203.311 285.426 C 204.658 284.930,215.979 279.437,216.225 279.160 C 216.316 279.058,216.689 278.811,217.053 278.613 C 220.247 276.872,221.091 276.371,221.511 275.965 C 222.077 275.419,221.949 275.414,221.020 275.943 M193.874 288.490 C 193.328 288.677,192.583 288.943,192.219 289.081 C 190.565 289.708,186.472 290.836,185.346 290.975 C 184.662 291.060,184.019 291.263,183.919 291.426 C 183.818 291.589,183.260 291.733,182.679 291.747 C 182.098 291.761,181.026 291.981,180.298 292.234 L 178.974 292.696 180.132 292.521 C 180.770 292.425,181.887 292.265,182.616 292.166 C 183.344 292.066,184.082 291.851,184.255 291.688 C 184.428 291.524,184.862 291.391,185.219 291.391 C 185.960 291.391,189.281 290.473,190.145 290.030 C 190.461 289.868,191.085 289.735,191.532 289.735 C 191.979 289.735,192.437 289.586,192.550 289.404 C 192.662 289.222,193.006 289.066,193.314 289.058 C 193.622 289.050,194.321 288.838,194.868 288.588 C 196.022 288.060,195.331 287.991,193.874 288.490 M176.159 293.012 C 175.886 293.164,174.619 293.402,173.344 293.541 C 167.975 294.126,166.813 294.330,169.702 294.180 C 172.845 294.017,176.268 293.551,177.649 293.098 L 178.642 292.772 177.649 292.754 C 177.103 292.744,176.432 292.860,176.159 293.012 M163.825 294.599 C 162.757 294.878,163.231 295.364,164.570 295.364 C 165.298 295.364,165.894 295.226,165.894 295.057 C 165.894 294.889,166.155 294.682,166.474 294.599 C 166.792 294.516,166.457 294.448,165.728 294.448 C 165.000 294.448,164.143 294.516,163.825 294.599 " stroke="none" fill="#b18e74" fill-rule="evenodd"></path></g></svg>