<svg id="svg" version="1.1" xmlns="http://www.w3.org/2000/svg" xmlns:xlink="http://www.w3.org/1999/xlink" width="100%" height="100%" viewBox="0, 0, 400,355.8792924037461"><g id="svgg"><path id="path0" d="M261.799 71.876 C 261.799 72.034,261.946 72.316,262.125 72.502 C 262.305 72.688,264.606 76.607,267.238 81.211 C 269.870 85.815,274.241 93.428,276.950 98.130 C 279.659 102.832,282.461 107.720,283.175 108.994 C 283.890 110.267,285.408 112.912,286.549 114.871 C 287.689 116.830,290.467 121.638,292.720 125.557 C 294.973 129.475,297.971 134.684,299.381 137.133 C 305.766 148.223,311.887 158.878,313.089 160.997 C 313.812 162.271,315.977 166.037,317.900 169.368 C 319.824 172.698,321.766 176.069,322.218 176.859 L 323.038 178.296 321.514 180.956 C 320.675 182.418,318.730 185.779,317.192 188.424 C 315.653 191.069,313.806 194.274,313.088 195.548 C 312.370 196.821,309.614 201.630,306.964 206.233 C 304.314 210.837,299.983 218.370,297.339 222.974 C 292.687 231.075,290.920 234.138,286.551 241.674 C 285.415 243.633,283.488 246.999,282.269 249.154 C 281.049 251.309,278.886 255.076,277.461 257.524 C 276.037 259.973,272.012 266.946,268.517 273.019 C 265.022 279.092,262.022 284.284,261.849 284.556 C 261.428 285.222,262.558 285.196,230.098 285.293 C 213.822 285.342,201.965 285.507,202.675 285.676 C 203.362 285.839,204.404 286.223,204.990 286.528 C 205.838 286.971,207.349 287.084,212.405 287.086 C 215.898 287.087,220.626 287.243,222.913 287.432 C 225.199 287.621,229.580 287.878,232.648 288.002 C 237.664 288.206,238.243 288.295,238.398 288.886 C 238.507 289.304,238.357 289.589,237.985 289.666 C 237.663 289.733,240.004 290.008,243.188 290.277 C 246.371 290.546,248.976 290.889,248.976 291.039 C 248.976 291.349,252.191 291.760,256.990 292.063 C 257.194 292.076,257.175 292.198,256.947 292.347 C 256.727 292.491,255.956 293.731,255.235 295.102 C 253.347 298.690,247.902 308.275,232.875 334.461 C 223.912 350.080,221.681 353.921,221.045 354.829 C 220.735 355.272,220.481 355.760,220.481 355.912 C 220.481 356.355,289.444 356.254,291.920 355.807 C 294.860 355.276,297.690 354.436,298.219 353.937 C 298.464 353.706,299.466 353.141,300.445 352.680 C 301.425 352.219,302.467 351.635,302.760 351.381 C 303.915 350.382,307.960 346.244,308.555 345.451 C 309.675 343.961,312.275 339.618,312.532 338.811 C 312.668 338.380,312.994 337.814,313.255 337.553 C 313.516 337.292,314.233 336.129,314.847 334.968 C 316.352 332.128,318.118 329.094,318.878 328.042 C 319.221 327.567,319.501 327.057,319.501 326.908 C 319.501 326.759,320.102 325.626,320.837 324.389 C 322.787 321.105,323.265 320.264,324.499 317.943 C 325.111 316.792,325.774 315.670,325.973 315.450 C 326.374 315.004,328.169 311.814,329.707 308.816 C 330.260 307.738,330.836 306.766,330.988 306.655 C 331.249 306.464,331.802 305.481,334.484 300.445 C 335.110 299.270,335.740 298.228,335.885 298.130 C 336.030 298.032,336.592 297.070,337.133 295.993 C 337.674 294.915,338.228 293.954,338.364 293.856 C 338.500 293.758,339.080 292.724,339.653 291.558 C 340.226 290.392,340.975 289.150,341.318 288.797 C 341.661 288.445,341.941 287.974,341.941 287.750 C 341.941 287.526,342.582 286.328,343.366 285.087 C 344.150 283.847,344.791 282.700,344.791 282.539 C 344.791 282.378,345.043 281.933,345.351 281.551 C 345.952 280.805,347.664 277.802,349.302 274.622 C 349.857 273.544,350.589 272.354,350.930 271.976 C 351.271 271.599,351.644 270.995,351.758 270.634 C 351.873 270.273,352.596 268.942,353.365 267.676 C 354.135 266.410,354.764 265.222,354.764 265.036 C 354.764 264.851,354.988 264.475,355.262 264.201 C 355.536 263.927,356.267 262.754,356.886 261.593 C 357.505 260.433,358.635 258.442,359.396 257.168 C 360.158 255.895,361.159 254.132,361.622 253.250 C 362.085 252.369,362.872 251.006,363.370 250.223 C 363.869 249.439,364.391 248.438,364.531 247.999 C 364.670 247.559,364.997 246.987,365.257 246.727 C 365.517 246.467,366.168 245.384,366.705 244.320 C 367.241 243.257,367.799 242.306,367.944 242.208 C 368.089 242.110,368.749 241.014,369.411 239.772 C 371.179 236.453,371.680 235.570,373.085 233.294 C 373.783 232.163,374.354 231.083,374.354 230.894 C 374.354 230.705,374.654 230.168,375.019 229.701 C 375.385 229.234,376.138 227.970,376.693 226.892 C 377.248 225.815,377.809 224.853,377.940 224.755 C 378.072 224.657,378.618 223.707,379.155 222.643 C 379.691 221.580,380.343 220.497,380.603 220.237 C 380.863 219.977,381.185 219.417,381.320 218.993 C 381.455 218.569,382.111 217.368,382.780 216.323 C 383.448 215.278,384.094 214.144,384.215 213.801 C 384.337 213.459,384.634 212.939,384.876 212.645 C 385.118 212.351,385.767 211.229,386.318 210.151 C 386.868 209.074,387.427 208.112,387.558 208.014 C 387.690 207.916,388.339 206.820,389.001 205.578 C 390.770 202.259,391.271 201.376,392.675 199.100 C 393.373 197.969,393.945 196.963,393.945 196.866 C 393.945 196.769,394.586 195.634,395.370 194.344 C 396.153 193.054,396.794 191.847,396.794 191.661 C 396.794 191.476,397.064 191.055,397.393 190.725 C 399.318 188.800,400.680 177.907,399.655 172.640 C 399.159 170.095,397.924 166.245,397.519 165.984 C 397.367 165.886,396.730 164.844,396.104 163.669 C 393.423 158.633,392.869 157.650,392.608 157.459 C 392.456 157.348,391.883 156.376,391.333 155.298 C 390.784 154.221,389.713 152.297,388.955 151.024 C 387.746 148.996,386.996 147.675,384.262 142.754 C 383.932 142.160,383.090 140.748,382.392 139.617 C 381.693 138.485,381.122 137.395,381.122 137.193 C 381.122 136.992,380.912 136.616,380.656 136.357 C 380.399 136.098,379.719 135.004,379.145 133.927 C 378.570 132.850,377.999 131.888,377.876 131.790 C 377.753 131.692,377.138 130.650,376.509 129.475 C 374.059 124.893,373.220 123.420,372.961 123.245 C 372.813 123.145,372.265 122.151,371.742 121.036 C 371.219 119.921,370.652 118.922,370.482 118.817 C 370.312 118.712,369.713 117.701,369.151 116.570 C 368.588 115.440,368.027 114.435,367.904 114.337 C 367.781 114.239,367.237 113.277,366.696 112.199 C 366.155 111.122,365.594 110.160,365.450 110.062 C 365.305 109.964,364.744 109.003,364.203 107.925 C 363.662 106.848,363.109 105.886,362.975 105.788 C 362.841 105.690,362.327 104.790,361.834 103.788 C 361.340 102.785,360.744 101.744,360.508 101.472 C 360.272 101.201,359.615 100.098,359.048 99.020 C 356.408 94.006,355.722 92.775,355.477 92.609 C 355.332 92.511,354.783 91.630,354.257 90.650 C 351.649 85.793,350.769 84.231,350.551 84.064 C 350.419 83.964,349.856 83.001,349.300 81.923 C 348.744 80.846,347.669 78.923,346.912 77.649 C 346.156 76.376,345.096 74.495,344.558 73.470 L 343.579 71.605 302.689 71.597 C 280.199 71.592,261.799 71.718,261.799 71.876 " stroke="none" fill="#d85c3c" fill-rule="evenodd"></path><path id="path1" d="M107.391 0.940 C 101.711 2.146,92.745 8.165,91.694 11.476 C 91.579 11.838,91.097 12.552,90.622 13.064 C 90.148 13.576,89.760 14.191,89.760 14.430 C 89.760 14.668,89.460 15.246,89.095 15.713 C 88.729 16.181,87.991 17.364,87.455 18.344 C 86.919 19.323,85.864 21.167,85.112 22.440 C 84.359 23.713,83.361 25.476,82.893 26.358 C 82.426 27.240,81.554 28.778,80.956 29.777 C 80.358 30.775,79.759 31.937,79.625 32.359 C 79.492 32.781,79.254 33.126,79.099 33.126 C 78.943 33.126,78.389 34.075,77.868 35.236 C 77.347 36.396,76.784 37.398,76.617 37.462 C 76.450 37.526,75.800 38.540,75.172 39.715 C 73.155 43.492,72.086 45.374,70.937 47.176 C 70.319 48.145,69.813 49.127,69.813 49.358 C 69.813 49.590,69.577 49.975,69.289 50.214 C 69.000 50.454,68.352 51.550,67.848 52.651 C 67.344 53.752,66.810 54.738,66.662 54.842 C 66.514 54.946,65.942 55.913,65.392 56.990 C 64.841 58.068,64.194 59.190,63.955 59.484 C 63.715 59.777,63.155 60.739,62.709 61.621 C 62.264 62.502,61.783 63.304,61.641 63.402 C 61.499 63.500,60.956 64.492,60.433 65.607 C 59.910 66.722,59.322 67.733,59.127 67.854 C 58.932 67.975,58.345 68.986,57.822 70.101 C 57.299 71.216,56.759 72.208,56.621 72.306 C 56.483 72.404,55.828 73.501,55.166 74.743 C 53.643 77.601,53.193 78.390,51.554 81.080 C 50.822 82.281,50.223 83.423,50.223 83.618 C 50.223 83.814,49.982 84.173,49.689 84.416 C 49.395 84.660,48.732 85.801,48.216 86.953 C 47.699 88.105,47.167 89.047,47.034 89.047 C 46.901 89.047,46.321 90.049,45.747 91.273 C 45.172 92.498,44.524 93.660,44.306 93.856 C 44.089 94.052,43.387 95.174,42.747 96.349 C 40.162 101.099,39.811 101.713,39.381 102.226 C 39.135 102.520,38.560 103.562,38.103 104.541 C 37.645 105.521,37.117 106.426,36.930 106.552 C 36.742 106.678,39.198 111.327,42.388 116.882 C 45.578 122.436,50.354 130.748,53.002 135.352 C 55.650 139.955,58.404 144.764,59.123 146.037 C 59.841 147.311,62.006 151.077,63.933 154.408 C 65.861 157.738,68.026 161.505,68.744 162.778 C 73.194 170.662,77.292 177.560,77.583 177.657 C 77.770 177.719,78.482 176.761,79.167 175.528 C 79.851 174.295,82.541 169.599,85.143 165.093 C 87.746 160.588,90.463 155.859,91.180 154.586 C 91.898 153.313,94.653 148.504,97.303 143.900 C 99.952 139.297,104.974 130.561,108.462 124.488 C 111.950 118.415,116.277 110.882,118.077 107.747 C 119.878 104.613,123.887 97.640,126.988 92.253 C 130.088 86.866,134.003 80.053,135.689 77.115 L 138.753 71.772 240.881 71.682 C 297.052 71.633,343.010 71.508,343.010 71.403 C 343.010 71.069,341.145 67.504,340.874 67.320 C 340.730 67.222,340.160 66.180,339.608 65.004 C 339.055 63.829,338.409 62.672,338.173 62.434 C 337.936 62.196,337.376 61.235,336.928 60.297 C 336.480 59.360,336.003 58.513,335.868 58.415 C 335.734 58.317,335.181 57.355,334.639 56.278 C 334.098 55.200,333.545 54.239,333.410 54.141 C 333.276 54.043,332.799 53.196,332.351 52.258 C 331.903 51.321,331.353 50.359,331.129 50.121 C 330.905 49.883,330.270 48.770,329.718 47.646 C 329.166 46.523,328.585 45.525,328.427 45.427 C 328.269 45.330,327.688 44.325,327.135 43.195 C 326.582 42.065,325.987 40.980,325.813 40.784 C 325.442 40.366,323.934 37.746,322.328 34.728 C 321.702 33.553,321.078 32.511,320.941 32.413 C 320.804 32.315,320.243 31.310,319.695 30.180 C 319.147 29.050,318.569 28.045,318.410 27.947 C 318.251 27.849,317.700 26.930,317.184 25.906 C 316.669 24.881,315.626 23.001,314.867 21.728 C 314.109 20.454,312.977 18.451,312.353 17.275 C 311.728 16.100,311.118 15.058,310.996 14.960 C 310.874 14.862,310.574 14.421,310.329 13.980 C 308.935 11.470,308.469 10.861,305.788 8.040 C 304.809 7.010,303.486 5.866,302.850 5.500 C 302.213 5.133,301.692 4.735,301.692 4.615 C 301.692 4.494,300.850 4.016,299.822 3.551 C 298.793 3.086,297.711 2.518,297.418 2.287 C 297.124 2.057,295.841 1.569,294.568 1.203 C 291.350 0.279,111.694 0.026,107.391 0.940 " stroke="none" fill="#508cf0" fill-rule="evenodd"></path><path id="path2" d="M138.424 72.395 C 138.145 72.836,136.356 75.922,134.447 79.252 C 132.539 82.582,128.811 89.074,126.164 93.678 C 123.517 98.281,119.878 104.613,118.078 107.747 C 116.277 110.882,111.950 118.415,108.462 124.488 C 104.974 130.561,99.952 139.297,97.303 143.900 C 94.653 148.504,91.897 153.313,91.178 154.586 C 90.458 155.859,87.653 160.748,84.943 165.450 C 82.233 170.151,79.491 174.966,78.849 176.148 L 77.682 178.299 79.922 182.204 C 86.132 193.032,99.386 216.108,102.826 222.084 C 104.969 225.806,108.054 231.175,109.683 234.016 C 111.312 236.857,113.722 241.024,115.038 243.277 C 116.355 245.530,119.177 250.419,121.309 254.141 C 123.441 257.863,128.265 266.278,132.030 272.841 L 138.874 284.773 200.189 284.773 L 261.503 284.773 265.087 278.540 C 267.059 275.111,270.837 268.540,273.484 263.936 C 276.130 259.332,278.899 254.524,279.636 253.250 C 280.373 251.977,281.520 249.973,282.186 248.798 C 282.851 247.622,284.226 245.235,285.242 243.493 C 286.257 241.751,287.088 240.291,287.088 240.249 C 287.088 240.180,288.703 237.372,292.006 231.701 C 292.691 230.525,293.841 228.522,294.564 227.248 C 295.286 225.975,297.450 222.208,299.374 218.878 C 301.298 215.548,303.464 211.781,304.187 210.508 C 304.911 209.234,306.112 207.150,306.857 205.877 C 307.601 204.604,308.797 202.520,309.514 201.247 C 310.634 199.258,313.386 194.495,319.186 184.506 C 319.926 183.232,321.006 181.302,321.587 180.215 L 322.644 178.240 321.518 176.220 C 319.712 172.982,318.154 170.256,312.916 161.175 C 310.205 156.474,307.398 151.585,306.680 150.312 C 305.961 149.038,303.793 145.272,301.862 141.941 C 299.931 138.611,297.765 134.844,297.048 133.571 C 296.331 132.297,295.132 130.214,294.384 128.940 C 293.635 127.667,292.477 125.663,291.810 124.488 C 291.143 123.313,289.808 120.988,288.843 119.323 C 287.878 117.658,286.273 114.853,285.276 113.090 C 283.411 109.792,281.719 106.851,279.539 103.117 C 277.781 100.106,268.720 84.350,267.147 81.567 C 266.427 80.294,264.929 77.691,263.818 75.782 C 262.707 73.874,261.799 72.151,261.799 71.953 C 261.799 71.713,241.436 71.594,200.364 71.594 L 138.930 71.594 138.424 72.395 M203.960 126.086 C 208.529 126.540,213.420 127.409,213.696 127.815 C 213.803 127.973,214.693 128.307,215.672 128.557 C 217.825 129.106,220.234 129.985,220.480 130.312 C 220.578 130.443,221.621 130.940,222.796 131.416 C 223.972 131.893,225.150 132.498,225.416 132.760 C 225.681 133.023,226.506 133.548,227.248 133.927 C 227.991 134.306,228.816 134.827,229.081 135.085 C 229.347 135.342,230.063 135.904,230.674 136.333 C 233.543 138.350,239.232 143.899,240.692 146.105 C 241.186 146.851,241.696 147.462,241.824 147.462 C 241.953 147.462,242.519 148.344,243.083 149.421 C 243.647 150.499,244.212 151.380,244.339 151.380 C 244.467 151.380,245.041 152.382,245.616 153.606 C 246.190 154.831,246.771 155.916,246.905 156.018 C 247.039 156.119,247.589 157.402,248.127 158.867 C 248.665 160.333,249.196 161.612,249.308 161.710 C 249.419 161.808,249.537 162.048,249.569 162.244 C 249.601 162.440,249.949 163.963,250.342 165.628 C 251.418 170.184,251.794 173.076,252.046 178.718 C 252.150 181.039,252.087 182.725,251.898 182.725 C 251.719 182.725,251.464 184.014,251.333 185.589 C 251.078 188.643,249.770 194.895,249.324 195.191 C 249.176 195.289,248.893 195.931,248.695 196.616 C 248.149 198.503,247.045 201.402,246.796 201.603 C 246.675 201.701,246.133 202.663,245.592 203.740 C 245.051 204.817,244.495 205.779,244.357 205.877 C 244.219 205.975,243.645 206.857,243.083 207.836 C 242.520 208.816,241.773 209.827,241.422 210.083 C 241.071 210.339,240.784 210.738,240.784 210.969 C 240.784 211.201,240.398 211.793,239.926 212.285 C 239.454 212.777,238.372 213.947,237.522 214.887 C 236.134 216.419,233.851 218.453,230.940 220.752 C 228.910 222.355,224.646 225.111,224.197 225.111 C 223.944 225.111,223.526 225.312,223.267 225.557 C 222.735 226.060,220.276 227.248,219.767 227.248 C 219.583 227.248,218.562 227.647,217.496 228.135 C 215.621 228.992,210.104 230.454,208.743 230.454 C 208.375 230.454,208.007 230.654,207.925 230.899 C 207.720 231.515,191.774 231.538,190.526 230.924 C 190.056 230.692,188.126 230.184,186.239 229.794 C 184.352 229.404,182.108 228.777,181.253 228.401 C 180.397 228.025,179.136 227.506,178.451 227.247 C 173.487 225.376,166.588 220.654,161.983 215.977 C 158.028 211.960,157.674 211.555,156.721 209.973 C 156.249 209.190,155.731 208.493,155.570 208.426 C 155.408 208.359,154.893 207.547,154.425 206.623 C 153.956 205.698,153.320 204.732,153.011 204.475 C 152.702 204.219,152.449 203.871,152.449 203.703 C 152.449 203.535,151.837 202.072,151.089 200.452 C 150.341 198.832,149.432 196.465,149.068 195.191 C 148.704 193.918,148.289 192.716,148.147 192.520 C 146.089 189.683,146.095 168.441,148.155 164.642 C 148.339 164.302,148.928 162.622,149.463 160.908 C 149.999 159.194,150.569 157.792,150.731 157.792 C 150.892 157.792,151.024 157.611,151.024 157.391 C 151.024 156.759,152.873 152.805,153.168 152.805 C 153.315 152.805,153.529 152.524,153.644 152.182 C 153.958 151.249,155.175 149.237,155.997 148.292 C 156.396 147.832,156.723 147.337,156.723 147.190 C 156.723 146.083,165.489 137.482,167.984 136.142 C 168.451 135.891,168.833 135.550,168.833 135.384 C 168.833 135.100,170.786 133.960,176.245 131.056 C 177.556 130.359,179.831 129.402,181.300 128.928 C 182.769 128.455,184.052 127.970,184.150 127.851 C 184.434 127.505,190.468 126.400,193.216 126.191 C 194.596 126.086,195.766 125.966,195.816 125.925 C 196.127 125.670,200.676 125.760,203.960 126.086 " stroke="none" fill="#ebebeb" fill-rule="evenodd"></path><path id="path3" d="M35.395 109.499 C 35.037 110.364,34.638 111.007,34.509 110.927 C 34.380 110.847,33.915 111.665,33.477 112.744 C 33.039 113.824,32.500 114.824,32.280 114.967 C 32.059 115.110,31.497 116.028,31.031 117.008 C 30.565 117.988,29.951 118.976,29.668 119.204 C 29.385 119.433,29.110 119.833,29.058 120.095 C 28.840 121.180,27.425 123.954,27.090 123.954 C 26.891 123.954,26.629 124.348,26.508 124.830 C 26.387 125.311,26.063 125.892,25.789 126.120 C 25.514 126.348,25.289 126.772,25.289 127.063 C 25.289 127.353,24.889 128.067,24.399 128.649 C 23.909 129.231,23.508 129.911,23.508 130.161 C 23.508 130.410,23.059 131.240,22.510 132.004 C 21.514 133.391,18.242 139.177,17.703 140.506 C 17.546 140.893,17.287 141.293,17.127 141.397 C 16.840 141.583,15.185 144.600,15.154 144.994 C 15.145 145.106,14.858 145.478,14.515 145.821 C 14.172 146.164,13.891 146.597,13.891 146.784 C 13.891 146.971,13.280 148.121,12.533 149.341 C 10.087 153.335,9.068 155.101,8.454 156.407 C 8.121 157.115,7.606 157.895,7.308 158.142 C 7.011 158.389,6.768 158.819,6.768 159.096 C 6.768 159.374,6.481 160.036,6.130 160.567 C 4.435 163.132,2.850 166.175,2.850 166.863 C 2.850 167.163,2.715 167.409,2.550 167.409 C 0.551 167.409,-0.356 181.859,1.343 186.643 C 2.221 189.115,6.235 196.859,7.727 198.958 C 8.134 199.531,8.731 200.561,9.053 201.247 C 9.375 201.932,10.265 203.535,11.031 204.809 C 11.797 206.082,12.855 207.925,13.382 208.905 C 13.910 209.884,14.440 210.766,14.561 210.864 C 14.683 210.962,15.096 211.683,15.479 212.467 C 15.863 213.250,16.504 214.370,16.904 214.955 C 17.304 215.540,17.828 216.392,18.068 216.849 C 18.308 217.305,19.831 219.994,21.452 222.824 C 23.073 225.654,24.940 228.961,25.601 230.172 C 26.262 231.384,27.005 232.577,27.253 232.824 C 27.500 233.072,28.071 234.162,28.520 235.248 C 28.970 236.334,29.462 237.222,29.613 237.222 C 29.763 237.222,30.221 237.977,30.629 238.901 C 31.038 239.824,31.586 240.826,31.848 241.127 C 32.109 241.428,32.824 242.636,33.436 243.811 C 34.048 244.987,34.549 245.788,34.550 245.592 C 34.550 245.396,35.037 246.198,35.632 247.373 C 36.927 249.932,37.743 251.416,39.982 255.282 C 40.913 256.889,41.674 258.371,41.674 258.576 C 41.674 258.781,41.805 258.949,41.966 258.949 C 42.127 258.949,42.668 259.711,43.168 260.641 C 46.009 265.924,46.811 267.339,47.064 267.510 C 47.219 267.615,47.692 268.497,48.116 269.469 C 48.539 270.442,49.134 271.521,49.437 271.868 C 49.741 272.214,50.402 273.280,50.907 274.236 C 52.746 277.716,53.904 279.608,54.197 279.608 C 54.362 279.608,54.497 279.828,54.497 280.098 C 54.497 280.603,56.227 283.923,56.655 284.239 C 56.788 284.337,57.340 285.298,57.881 286.376 C 58.422 287.453,58.971 288.415,59.100 288.513 C 59.230 288.611,59.810 289.653,60.389 290.828 C 60.969 292.004,61.723 293.276,62.066 293.656 C 62.409 294.036,62.689 294.529,62.689 294.752 C 62.689 294.976,63.157 295.867,63.729 296.733 C 65.000 298.660,66.247 300.849,67.635 303.591 C 68.213 304.733,68.916 305.935,69.196 306.262 C 69.688 306.836,72.289 311.431,73.364 313.624 C 73.652 314.212,74.079 314.890,74.312 315.132 C 74.545 315.373,75.099 316.375,75.544 317.358 C 75.988 318.341,76.463 319.145,76.600 319.145 C 76.737 319.145,77.190 319.937,77.606 320.906 C 78.023 321.874,78.506 322.754,78.680 322.862 C 78.854 322.970,79.493 324.087,80.100 325.345 C 80.706 326.602,81.345 327.686,81.519 327.752 C 81.692 327.818,82.336 328.833,82.949 330.009 C 84.981 333.908,86.223 336.038,86.599 336.270 C 86.804 336.397,86.974 336.642,86.979 336.816 C 86.989 337.249,88.368 339.940,88.692 340.160 C 88.836 340.258,89.397 341.220,89.938 342.297 C 90.479 343.375,91.029 344.337,91.161 344.435 C 91.292 344.533,91.869 345.236,92.441 345.999 C 93.402 347.278,95.352 349.286,97.320 351.024 C 97.764 351.416,98.964 352.153,99.988 352.663 C 101.011 353.173,102.053 353.741,102.304 353.925 C 103.150 354.547,106.305 355.466,108.816 355.821 C 110.375 356.042,131.721 356.176,165.806 356.179 L 220.303 356.184 220.878 355.207 C 224.398 349.221,232.990 334.303,242.672 317.364 C 251.360 302.166,253.706 298.007,255.235 295.102 C 255.956 293.731,256.727 292.491,256.947 292.347 C 257.175 292.198,257.194 292.076,256.990 292.063 C 252.191 291.760,248.976 291.349,248.976 291.039 C 248.976 290.889,246.371 290.546,243.188 290.277 C 240.004 290.008,237.663 289.733,237.985 289.666 C 238.357 289.589,238.507 289.304,238.398 288.886 C 238.243 288.295,237.664 288.206,232.648 288.002 C 229.580 287.878,225.199 287.621,222.913 287.432 C 220.626 287.243,215.898 287.083,212.405 287.076 C 206.874 287.066,205.871 286.975,204.630 286.376 C 203.847 285.997,202.805 285.643,202.315 285.590 C 201.825 285.536,214.408 285.409,230.276 285.307 C 252.777 285.163,245.865 285.104,198.873 285.037 L 138.618 284.951 136.864 281.834 C 135.899 280.120,132.894 274.871,130.185 270.169 C 127.477 265.467,124.671 260.579,123.949 259.305 C 123.227 258.032,122.075 256.028,121.388 254.853 C 119.962 252.409,115.016 243.802,113.816 241.674 C 113.374 240.890,111.844 238.246,110.416 235.797 C 108.988 233.348,107.228 230.303,106.504 229.029 C 105.781 227.756,102.975 222.867,100.269 218.166 C 97.563 213.464,94.757 208.575,94.034 207.302 C 93.312 206.028,91.146 202.262,89.223 198.931 C 87.299 195.601,85.137 191.834,84.417 190.561 C 83.698 189.288,81.823 186.002,80.250 183.259 C 78.677 180.516,76.384 176.509,75.153 174.354 C 73.923 172.199,71.391 167.792,69.528 164.559 C 67.664 161.327,65.551 157.640,64.831 156.367 C 64.111 155.093,62.263 151.888,60.725 149.243 C 59.186 146.598,57.018 142.832,55.908 140.873 C 54.798 138.914,53.281 136.269,52.537 134.996 C 51.793 133.722,50.592 131.638,49.868 130.365 C 49.144 129.092,46.336 124.203,43.628 119.501 C 40.920 114.800,38.317 110.272,37.844 109.439 C 36.751 107.518,36.209 107.531,35.395 109.499 " stroke="none" fill="#fbce47" fill-rule="evenodd"></path><path id="path4" d="M262.537 73.553 C 262.978 74.337,263.490 75.138,263.677 75.334 C 264.211 75.893,262.991 73.636,262.330 72.841 C 262.004 72.449,262.097 72.769,262.537 73.553 M264.759 77.471 C 265.060 78.059,265.573 78.860,265.898 79.252 C 266.224 79.644,266.130 79.323,265.690 78.540 C 264.720 76.811,263.993 75.977,264.759 77.471 M267.608 82.458 C 267.909 83.045,268.422 83.847,268.748 84.239 C 269.074 84.630,268.980 84.310,268.540 83.526 C 267.569 81.797,266.842 80.964,267.608 82.458 M270.169 86.910 C 270.473 87.498,270.802 87.979,270.900 87.979 C 270.998 87.979,270.829 87.498,270.525 86.910 C 270.221 86.322,269.893 85.841,269.795 85.841 C 269.697 85.841,269.865 86.322,270.169 86.910 M272.663 91.184 C 272.966 91.772,273.295 92.253,273.393 92.253 C 273.491 92.253,273.323 91.772,273.019 91.184 C 272.715 90.597,272.386 90.116,272.288 90.116 C 272.190 90.116,272.359 90.597,272.663 91.184 M274.788 94.924 C 275.336 95.904,275.950 96.866,276.152 97.061 C 276.354 97.257,276.071 96.616,275.523 95.637 C 274.975 94.657,274.361 93.695,274.159 93.500 C 273.957 93.304,274.240 93.945,274.788 94.924 M277.225 99.199 C 277.526 99.786,278.039 100.588,278.365 100.980 C 278.691 101.371,278.597 101.051,278.157 100.267 C 277.186 98.538,276.459 97.705,277.225 99.199 M279.786 103.651 C 280.090 104.239,280.419 104.720,280.517 104.720 C 280.615 104.720,280.446 104.239,280.142 103.651 C 279.839 103.063,279.510 102.582,279.412 102.582 C 279.314 102.582,279.482 103.063,279.786 103.651 M282.458 108.281 C 282.857 109.065,283.265 109.706,283.363 109.706 C 283.461 109.706,283.214 109.065,282.814 108.281 C 282.414 107.498,282.007 106.857,281.909 106.857 C 281.811 106.857,282.058 107.498,282.458 108.281 M37.934 109.706 C 38.238 110.294,38.567 110.775,38.665 110.775 C 38.763 110.775,38.594 110.294,38.290 109.706 C 37.986 109.118,37.658 108.638,37.560 108.638 C 37.462 108.638,37.630 109.118,37.934 109.706 M285.129 112.912 C 285.433 113.500,285.762 113.980,285.860 113.980 C 285.958 113.980,285.789 113.500,285.485 112.912 C 285.181 112.324,284.853 111.843,284.755 111.843 C 284.657 111.843,284.825 112.324,285.129 112.912 M43.277 118.967 C 43.581 119.555,43.910 120.036,44.008 120.036 C 44.106 120.036,43.937 119.555,43.633 118.967 C 43.329 118.379,43.000 117.898,42.902 117.898 C 42.805 117.898,42.973 118.379,43.277 118.967 M289.537 120.635 C 289.948 121.454,290.477 122.244,290.713 122.390 C 290.949 122.536,290.765 122.026,290.305 121.256 C 289.101 119.246,288.664 118.892,289.537 120.635 M292.185 125.200 C 292.486 125.788,292.999 126.589,293.325 126.981 C 293.651 127.373,293.557 127.053,293.117 126.269 C 292.146 124.540,291.419 123.706,292.185 125.200 M47.684 126.625 C 47.876 127.017,48.294 127.658,48.613 128.050 L 49.193 128.762 48.844 128.050 C 48.651 127.658,48.233 127.017,47.914 126.625 L 47.334 125.913 47.684 126.625 M294.746 129.653 C 295.050 130.240,295.379 130.721,295.477 130.721 C 295.575 130.721,295.406 130.240,295.102 129.653 C 294.798 129.065,294.470 128.584,294.372 128.584 C 294.274 128.584,294.442 129.065,294.746 129.653 M50.401 131.434 C 50.705 132.021,51.033 132.502,51.131 132.502 C 51.229 132.502,51.061 132.021,50.757 131.434 C 50.453 130.846,50.124 130.365,50.026 130.365 C 49.928 130.365,50.097 130.846,50.401 131.434 M297.418 134.283 C 297.817 135.067,298.225 135.708,298.323 135.708 C 298.421 135.708,298.174 135.067,297.774 134.283 C 297.374 133.500,296.967 132.858,296.869 132.858 C 296.771 132.858,297.018 133.500,297.418 134.283 M52.894 135.708 C 53.198 136.296,53.527 136.776,53.625 136.776 C 53.723 136.776,53.554 136.296,53.250 135.708 C 52.946 135.120,52.618 134.639,52.520 134.639 C 52.422 134.639,52.590 135.120,52.894 135.708 M300.089 138.914 C 300.393 139.501,300.722 139.982,300.820 139.982 C 300.918 139.982,300.749 139.501,300.445 138.914 C 300.141 138.326,299.813 137.845,299.715 137.845 C 299.617 137.845,299.785 138.326,300.089 138.914 M302.074 142.297 C 302.514 143.081,303.027 143.882,303.214 144.078 C 303.748 144.637,302.528 142.381,301.866 141.585 C 301.541 141.193,301.634 141.514,302.074 142.297 M57.729 144.078 C 58.169 144.862,58.682 145.663,58.869 145.859 C 59.402 146.418,58.182 144.162,57.521 143.366 C 57.195 142.974,57.289 143.295,57.729 144.078 M304.295 146.215 C 304.597 146.803,305.110 147.605,305.435 147.996 C 305.761 148.388,305.667 148.068,305.227 147.284 C 304.257 145.555,303.530 144.722,304.295 146.215 M307.213 151.380 C 307.517 151.968,307.846 152.449,307.943 152.449 C 308.041 152.449,307.873 151.968,307.569 151.380 C 307.265 150.793,306.936 150.312,306.838 150.312 C 306.740 150.312,306.909 150.793,307.213 151.380 M62.511 152.449 C 62.815 153.037,63.144 153.517,63.242 153.517 C 63.340 153.517,63.171 153.037,62.867 152.449 C 62.563 151.861,62.235 151.380,62.137 151.380 C 62.039 151.380,62.207 151.861,62.511 152.449 M309.706 155.654 C 310.010 156.242,310.339 156.723,310.437 156.723 C 310.535 156.723,310.366 156.242,310.062 155.654 C 309.758 155.067,309.430 154.586,309.332 154.586 C 309.234 154.586,309.402 155.067,309.706 155.654 M65.361 157.435 C 65.665 158.023,65.993 158.504,66.091 158.504 C 66.189 158.504,66.021 158.023,65.717 157.435 C 65.413 156.848,65.084 156.367,64.986 156.367 C 64.888 156.367,65.057 156.848,65.361 157.435 M311.692 159.038 C 312.132 159.822,312.645 160.623,312.831 160.819 C 313.365 161.378,312.145 159.122,311.484 158.326 C 311.158 157.934,311.252 158.255,311.692 159.038 M67.854 161.710 C 68.158 162.297,68.487 162.778,68.585 162.778 C 68.683 162.778,68.514 162.297,68.210 161.710 C 67.906 161.122,67.577 160.641,67.479 160.641 C 67.382 160.641,67.550 161.122,67.854 161.710 M314.541 164.025 C 314.981 164.809,315.494 165.610,315.681 165.806 C 316.214 166.365,314.995 164.108,314.333 163.313 C 314.007 162.921,314.101 163.241,314.541 164.025 M316.762 167.943 C 317.063 168.531,317.576 169.332,317.902 169.724 C 318.228 170.116,318.134 169.795,317.694 169.012 C 316.723 167.283,315.996 166.449,316.762 167.943 M319.501 172.752 C 319.901 173.535,320.308 174.176,320.406 174.176 C 320.504 174.176,320.257 173.535,319.858 172.752 C 319.458 171.968,319.051 171.327,318.953 171.327 C 318.855 171.327,319.102 171.968,319.501 172.752 M321.951 176.939 C 322.623 178.258,322.623 178.297,321.949 179.611 C 321.573 180.344,321.345 180.944,321.443 180.944 C 322.361 180.944,322.952 178.204,322.307 176.939 C 321.931 176.203,321.544 175.601,321.446 175.601 C 321.348 175.601,321.575 176.203,321.951 176.939 M77.654 178.817 C 78.051 179.595,78.457 180.232,78.556 180.232 C 78.655 180.232,78.498 179.771,78.207 179.208 C 77.916 178.645,77.758 178.104,77.857 178.005 C 77.955 177.907,77.788 177.731,77.485 177.615 C 77.036 177.442,77.067 177.666,77.654 178.817 M79.597 182.191 C 80.145 183.170,80.759 184.132,80.961 184.328 C 81.163 184.524,80.880 183.882,80.332 182.903 C 79.784 181.923,79.170 180.962,78.968 180.766 C 78.766 180.570,79.049 181.211,79.597 182.191 M320.302 182.458 C 319.792 183.097,318.641 185.466,319.047 185.040 C 319.544 184.519,321.013 182.012,320.821 182.012 C 320.731 182.012,320.497 182.213,320.302 182.458 M82.034 186.465 C 82.335 187.053,82.848 187.854,83.174 188.246 C 83.499 188.638,83.406 188.317,82.966 187.533 C 81.995 185.805,81.268 184.971,82.034 186.465 M317.639 187.088 C 316.859 188.290,316.161 189.720,316.551 189.314 C 317.051 188.795,318.520 186.287,318.325 186.287 C 318.233 186.287,317.925 186.647,317.639 187.088 M84.706 191.095 C 85.104 191.879,85.693 192.841,86.014 193.232 C 86.336 193.624,86.162 193.143,85.627 192.164 C 84.431 189.972,83.710 189.136,84.706 191.095 M315.184 191.362 C 314.951 191.803,314.528 192.565,314.244 193.054 C 313.748 193.909,313.752 193.916,314.326 193.232 C 315.036 192.388,316.033 190.561,315.783 190.561 C 315.687 190.561,315.417 190.922,315.184 191.362 M87.266 195.548 C 87.666 196.331,88.073 196.972,88.171 196.972 C 88.269 196.972,88.022 196.331,87.622 195.548 C 87.223 194.764,86.815 194.123,86.717 194.123 C 86.620 194.123,86.866 194.764,87.266 195.548 M312.512 195.993 C 312.184 196.630,311.682 197.551,311.397 198.041 C 310.899 198.895,310.902 198.902,311.477 198.219 C 312.180 197.385,313.541 194.835,313.284 194.835 C 313.188 194.835,312.840 195.356,312.512 195.993 M89.214 198.931 C 89.762 199.911,90.376 200.873,90.578 201.069 C 90.780 201.264,90.497 200.623,89.949 199.644 C 89.401 198.664,88.787 197.703,88.585 197.507 C 88.383 197.311,88.666 197.952,89.214 198.931 M309.884 200.534 C 309.484 201.318,309.238 201.959,309.335 201.959 C 309.433 201.959,309.841 201.318,310.240 200.534 C 310.640 199.751,310.887 199.110,310.789 199.110 C 310.691 199.110,310.284 199.751,309.884 200.534 M91.651 203.206 C 91.952 203.793,92.465 204.595,92.791 204.987 C 93.116 205.378,93.023 205.058,92.583 204.274 C 91.612 202.545,90.885 201.712,91.651 203.206 M308.022 203.829 C 307.242 205.030,306.543 206.461,306.934 206.055 C 307.434 205.536,308.903 203.028,308.708 203.028 C 308.616 203.028,308.307 203.388,308.022 203.829 M94.500 208.192 C 94.802 208.780,95.315 209.581,95.640 209.973 C 95.966 210.365,95.872 210.045,95.432 209.261 C 94.461 207.532,93.734 206.698,94.500 208.192 M305.526 208.103 C 304.736 209.314,303.699 211.447,304.097 211.042 C 304.589 210.541,306.426 207.302,306.219 207.302 C 306.125 207.302,305.813 207.663,305.526 208.103 M97.061 212.645 C 97.365 213.232,97.694 213.713,97.792 213.713 C 97.890 213.713,97.722 213.232,97.418 212.645 C 97.114 212.057,96.785 211.576,96.687 211.576 C 96.589 211.576,96.758 212.057,97.061 212.645 M302.679 213.090 C 302.393 213.531,301.965 214.292,301.728 214.782 C 301.122 216.032,302.221 214.698,302.975 213.268 C 303.597 212.088,303.404 211.972,302.679 213.090 M99.555 216.919 C 99.859 217.507,100.187 217.988,100.285 217.988 C 100.383 217.988,100.215 217.507,99.911 216.919 C 99.607 216.331,99.278 215.850,99.180 215.850 C 99.082 215.850,99.251 216.331,99.555 216.919 M300.517 216.830 C 300.436 216.977,299.919 217.898,299.369 218.878 C 298.819 219.858,298.534 220.499,298.736 220.303 C 299.252 219.803,301.089 216.563,300.856 216.563 C 300.751 216.563,300.599 216.683,300.517 216.830 M101.681 220.659 C 102.229 221.638,102.842 222.600,103.045 222.796 C 103.247 222.992,102.964 222.351,102.416 221.371 C 101.867 220.392,101.254 219.430,101.052 219.234 C 100.850 219.038,101.133 219.679,101.681 220.659 M297.596 221.906 C 297.292 222.493,297.123 222.974,297.221 222.974 C 297.319 222.974,297.648 222.493,297.952 221.906 C 298.256 221.318,298.424 220.837,298.326 220.837 C 298.228 220.837,297.900 221.318,297.596 221.906 M104.117 224.933 C 104.419 225.521,104.932 226.322,105.257 226.714 C 105.583 227.106,105.489 226.785,105.049 226.002 C 104.079 224.273,103.351 223.439,104.117 224.933 M295.909 224.844 C 295.141 226.021,294.075 228.197,294.469 227.783 C 294.934 227.293,296.771 224.043,296.583 224.043 C 296.499 224.043,296.196 224.403,295.909 224.844 M106.790 229.564 C 107.188 230.347,107.781 231.309,108.108 231.701 C 108.435 232.093,108.266 231.612,107.732 230.632 C 106.542 228.447,105.789 227.594,106.790 229.564 M293.062 229.831 C 292.776 230.272,292.348 231.033,292.111 231.523 C 291.505 232.772,292.604 231.439,293.358 230.009 C 293.980 228.829,293.787 228.713,293.062 229.831 M109.517 234.194 C 110.065 235.174,110.679 236.135,110.881 236.331 C 111.083 236.527,110.800 235.886,110.252 234.907 C 109.704 233.927,109.090 232.965,108.888 232.769 C 108.686 232.573,108.969 233.215,109.517 234.194 M290.566 234.105 C 289.776 235.316,288.739 237.449,289.137 237.044 C 289.629 236.543,291.467 233.304,291.259 233.304 C 291.165 233.304,290.853 233.664,290.566 234.105 M112.021 238.646 C 112.325 239.234,112.654 239.715,112.752 239.715 C 112.850 239.715,112.681 239.234,112.378 238.646 C 112.074 238.059,111.745 237.578,111.647 237.578 C 111.549 237.578,111.717 238.059,112.021 238.646 M287.821 238.869 C 287.402 239.580,287.117 240.219,287.188 240.290 C 287.259 240.361,287.677 239.780,288.116 238.999 C 289.114 237.224,288.858 237.112,287.821 238.869 M113.630 241.208 C 113.623 241.531,115.074 243.989,115.271 243.989 C 115.355 243.989,115.185 243.549,114.893 243.010 C 114.167 241.669,113.636 240.912,113.630 241.208 M285.129 243.633 C 284.825 244.221,284.657 244.702,284.755 244.702 C 284.853 244.702,285.181 244.221,285.485 243.633 C 285.789 243.045,285.958 242.565,285.860 242.565 C 285.762 242.565,285.433 243.045,285.129 243.633 M116.455 246.305 C 117.096 247.480,117.789 248.602,117.996 248.798 C 118.202 248.994,117.846 248.192,117.205 247.017 C 116.564 245.841,115.870 244.720,115.664 244.524 C 115.458 244.328,115.814 245.129,116.455 246.305 M282.458 248.264 C 282.058 249.047,281.811 249.688,281.909 249.688 C 282.007 249.688,282.414 249.047,282.814 248.264 C 283.214 247.480,283.461 246.839,283.363 246.839 C 283.265 246.839,282.857 247.480,282.458 248.264 M118.900 250.579 C 119.298 251.362,119.891 252.324,120.218 252.716 C 120.545 253.108,120.376 252.627,119.843 251.647 C 118.652 249.463,117.900 248.609,118.900 250.579 M280.765 251.202 C 280.255 251.841,279.104 254.211,279.510 253.785 C 280.007 253.264,281.476 250.757,281.284 250.757 C 281.194 250.757,280.960 250.957,280.765 251.202 M121.571 255.209 C 121.872 255.797,122.385 256.598,122.711 256.990 C 123.036 257.382,122.943 257.061,122.503 256.278 C 121.532 254.549,120.805 253.715,121.571 255.209 M278.102 255.833 C 277.323 257.034,276.624 258.465,277.014 258.059 C 277.514 257.540,278.983 255.031,278.788 255.031 C 278.696 255.031,278.388 255.392,278.102 255.833 M124.243 259.840 C 124.641 260.623,125.230 261.585,125.551 261.977 C 125.873 262.369,125.699 261.888,125.164 260.908 C 123.968 258.716,123.247 257.880,124.243 259.840 M275.647 260.107 C 275.414 260.548,274.991 261.309,274.707 261.799 C 274.211 262.653,274.215 262.660,274.789 261.977 C 275.499 261.133,276.496 259.305,276.246 259.305 C 276.150 259.305,275.881 259.666,275.647 260.107 M126.803 264.292 C 127.203 265.076,127.610 265.717,127.708 265.717 C 127.806 265.717,127.559 265.076,127.159 264.292 C 126.760 263.508,126.352 262.867,126.254 262.867 C 126.156 262.867,126.403 263.508,126.803 264.292 M273.019 264.648 C 272.715 265.236,272.546 265.717,272.644 265.717 C 272.742 265.717,273.071 265.236,273.375 264.648 C 273.679 264.061,273.847 263.580,273.749 263.580 C 273.651 263.580,273.323 264.061,273.019 264.648 M128.751 267.676 C 129.299 268.655,129.913 269.617,130.115 269.813 C 130.317 270.009,130.034 269.368,129.486 268.388 C 128.938 267.409,128.324 266.447,128.122 266.251 C 127.920 266.055,128.203 266.696,128.751 267.676 M270.169 269.635 C 269.865 270.223,269.697 270.703,269.795 270.703 C 269.893 270.703,270.221 270.223,270.525 269.635 C 270.829 269.047,270.998 268.566,270.900 268.566 C 270.802 268.566,270.473 269.047,270.169 269.635 M131.600 272.663 C 132.149 273.642,132.762 274.604,132.964 274.800 C 133.166 274.996,132.883 274.354,132.335 273.375 C 131.787 272.395,131.174 271.434,130.971 271.238 C 130.769 271.042,131.052 271.683,131.600 272.663 M268.485 272.573 C 267.705 273.775,267.006 275.206,267.397 274.800 C 267.897 274.281,269.366 271.772,269.171 271.772 C 269.079 271.772,268.771 272.133,268.485 272.573 M133.860 276.581 C 134.258 277.364,134.847 278.326,135.168 278.718 C 135.490 279.110,135.316 278.629,134.781 277.649 C 133.585 275.457,132.864 274.621,133.860 276.581 M266.323 276.313 C 266.241 276.460,265.725 277.382,265.175 278.362 C 264.625 279.341,264.340 279.982,264.542 279.786 C 265.058 279.287,266.894 276.046,266.662 276.046 C 266.557 276.046,266.405 276.167,266.323 276.313 M136.598 281.389 C 136.902 281.977,137.231 282.458,137.329 282.458 C 137.427 282.458,137.259 281.977,136.955 281.389 C 136.651 280.801,136.322 280.321,136.224 280.321 C 136.126 280.321,136.294 280.801,136.598 281.389 M263.181 281.834 C 262.947 282.275,262.524 283.037,262.240 283.526 C 261.745 284.381,261.748 284.388,262.323 283.704 C 263.033 282.860,264.029 281.033,263.779 281.033 C 263.683 281.033,263.414 281.394,263.181 281.834 M138.023 283.882 C 138.327 284.470,138.656 284.951,138.754 284.951 C 138.852 284.951,138.683 284.470,138.379 283.882 C 138.075 283.295,137.747 282.814,137.649 282.814 C 137.551 282.814,137.719 283.295,138.023 283.882 " stroke="none" fill="#dab6a2" fill-rule="evenodd"></path></g></svg>