<svg id="svg" version="1.1" xmlns="http://www.w3.org/2000/svg" xmlns:xlink="http://www.w3.org/1999/xlink" width="100%" height="100%" viewBox="0, 0, 400,277.5988286969253"><g id="svgg"><path id="path0" d="M37.037 94.603 C 36.831 95.141,37.064 98.540,38.026 109.028 C 38.389 112.991,38.817 117.789,39.173 121.875 C 39.568 126.421,39.935 130.467,40.263 133.889 C 40.416 135.493,40.736 139.056,40.972 141.806 C 41.209 144.556,41.533 148.181,41.692 149.861 C 42.033 153.466,42.365 157.354,42.766 162.450 C 42.926 164.485,43.186 166.392,43.344 166.686 C 43.625 167.212,44.424 167.222,85.052 167.222 L 126.473 167.222 126.284 170.069 C 126.179 171.635,125.968 174.229,125.815 175.833 C 125.661 177.438,125.418 180.125,125.274 181.806 C 123.695 200.245,124.106 198.297,121.667 198.874 C 120.826 199.073,118.326 199.733,116.111 200.340 C 113.896 200.947,111.427 201.619,110.625 201.833 C 109.187 202.217,106.899 202.844,105.000 203.376 C 104.465 203.526,103.590 203.752,103.056 203.880 C 101.247 204.311,97.666 205.314,97.441 205.453 C 97.233 205.582,94.691 204.967,89.722 203.588 C 88.576 203.270,86.764 202.780,85.694 202.500 C 84.625 202.219,82.750 201.717,81.528 201.384 C 79.379 200.799,76.692 200.078,72.639 198.999 C 70.120 198.328,70.314 198.950,69.433 188.750 C 68.924 182.861,68.579 179.618,68.438 179.389 C 68.362 179.267,62.914 179.167,56.331 179.167 L 44.361 179.167 44.543 181.875 C 44.644 183.365,44.841 185.771,44.981 187.222 C 45.334 190.867,46.324 201.913,46.675 206.111 C 46.835 208.021,47.086 210.495,47.233 211.609 C 47.380 212.722,47.502 214.285,47.504 215.081 C 47.510 217.014,47.582 217.087,50.142 217.782 C 53.265 218.628,53.781 218.770,55.972 219.382 C 57.042 219.681,59.415 220.328,61.246 220.820 C 63.077 221.312,64.645 221.758,64.731 221.811 C 64.816 221.864,65.881 222.177,67.096 222.506 C 68.311 222.836,69.681 223.210,70.139 223.339 C 70.597 223.468,71.972 223.840,73.194 224.167 C 75.731 224.845,75.548 224.794,81.667 226.524 C 88.365 228.417,90.446 228.994,95.716 230.419 C 97.224 230.826,97.343 230.815,100.230 229.998 C 103.947 228.946,105.164 228.605,106.389 228.271 C 106.924 228.125,107.736 227.897,108.194 227.764 C 108.653 227.631,111.340 226.882,114.167 226.100 C 119.218 224.701,120.071 224.463,122.153 223.870 C 122.726 223.707,123.632 223.466,124.167 223.333 C 125.143 223.092,125.444 223.009,129.028 222.006 C 130.097 221.706,132.847 220.947,135.139 220.318 C 139.816 219.035,141.214 218.643,142.222 218.333 C 142.846 218.142,144.033 217.813,145.738 217.360 C 146.552 217.144,146.662 216.753,146.947 213.059 C 147.083 211.300,147.381 207.861,147.609 205.417 C 148.031 200.883,148.421 196.531,148.914 190.833 C 149.066 189.076,149.315 186.326,149.467 184.722 C 149.619 183.118,149.855 180.431,149.991 178.750 C 150.127 177.069,150.370 174.319,150.531 172.639 C 150.692 170.958,150.953 168.083,151.112 166.250 C 151.270 164.417,151.524 161.604,151.675 160.000 C 151.827 158.396,152.069 155.583,152.213 153.750 C 152.356 151.917,152.604 149.292,152.762 147.917 C 152.921 146.542,153.052 144.885,153.053 144.236 L 153.056 143.056 109.322 143.056 C 81.633 143.056,65.528 142.958,65.423 142.788 C 65.332 142.642,65.132 140.923,64.978 138.969 C 64.587 133.998,64.222 129.776,63.901 126.528 C 63.751 125.000,63.543 122.531,63.439 121.042 L 63.250 118.333 109.234 118.333 L 155.218 118.333 155.404 117.592 C 155.506 117.184,155.710 115.277,155.856 113.355 C 156.003 111.434,156.235 108.674,156.371 107.222 C 156.964 100.918,157.334 96.449,157.347 95.417 L 157.361 94.306 97.283 94.235 C 42.837 94.172,37.190 94.206,37.037 94.603 M240.387 96.735 C 240.491 97.996,240.699 100.403,240.849 102.083 C 241.000 103.764,241.237 106.514,241.376 108.194 C 241.919 114.770,242.263 117.925,242.460 118.124 C 242.573 118.238,263.284 118.363,288.485 118.402 L 334.306 118.472 334.244 119.167 C 334.103 120.759,333.022 131.431,332.782 133.611 C 332.638 134.910,332.372 137.503,332.190 139.375 L 331.859 142.778 319.888 142.818 C 313.304 142.840,293.604 142.934,276.111 143.027 L 244.306 143.194 244.372 144.444 C 244.408 145.132,244.635 147.882,244.876 150.556 C 245.451 156.929,245.820 161.231,246.057 164.306 L 246.250 166.806 276.667 166.974 C 293.396 167.066,312.194 167.160,318.441 167.182 L 329.798 167.222 329.603 168.542 C 329.412 169.840,329.195 172.019,328.626 178.333 C 328.468 180.090,328.209 182.840,328.051 184.444 C 327.892 186.049,327.583 189.361,327.363 191.806 C 326.782 198.250,326.917 197.873,325.046 198.295 C 324.181 198.490,323.097 198.769,322.639 198.914 C 322.181 199.060,319.243 199.861,316.111 200.695 C 312.979 201.529,309.917 202.356,309.306 202.532 C 308.694 202.709,307.788 202.961,307.292 203.093 C 306.009 203.435,304.911 203.732,302.250 204.462 L 299.916 205.101 296.972 204.336 C 295.353 203.915,293.590 203.447,293.056 203.295 C 292.521 203.143,291.646 202.912,291.111 202.781 C 290.004 202.511,286.176 201.488,284.722 201.073 C 284.188 200.921,283.313 200.692,282.778 200.565 C 282.243 200.438,280.931 200.089,279.861 199.791 C 278.792 199.493,276.854 198.965,275.556 198.617 C 272.438 197.782,272.556 197.958,272.213 193.605 C 272.052 191.546,271.797 188.486,271.647 186.806 C 271.498 185.125,271.299 182.531,271.206 181.042 L 271.037 178.333 258.544 178.333 C 246.839 178.333,246.063 178.363,246.235 178.812 C 246.336 179.075,246.535 180.793,246.678 182.631 C 246.820 184.469,247.068 187.347,247.228 189.028 C 247.630 193.243,248.044 197.902,248.339 201.528 C 248.663 205.501,249.072 210.001,249.425 213.472 C 249.581 215.000,249.711 216.329,249.715 216.425 C 249.725 216.676,250.888 217.087,253.889 217.900 C 256.403 218.581,257.725 218.948,259.583 219.481 C 260.042 219.612,261.354 219.973,262.500 220.282 C 263.646 220.592,265.021 220.968,265.556 221.118 C 267.921 221.783,272.712 223.127,273.472 223.340 C 273.931 223.468,275.306 223.840,276.528 224.167 C 277.750 224.493,279.156 224.877,279.653 225.019 C 282.046 225.705,282.711 225.888,283.611 226.111 C 284.146 226.244,285.021 226.474,285.556 226.624 C 286.090 226.773,287.965 227.297,289.722 227.787 C 291.479 228.277,294.605 229.156,296.668 229.742 L 300.419 230.806 304.307 229.706 C 306.445 229.101,308.632 228.481,309.167 228.330 C 313.189 227.190,325.128 223.901,326.250 223.623 C 327.014 223.435,327.951 223.182,328.333 223.061 C 328.715 222.941,329.528 222.703,330.139 222.533 C 330.750 222.363,332.750 221.801,334.583 221.284 C 336.417 220.767,339.417 219.942,341.250 219.449 C 343.083 218.957,344.896 218.457,345.278 218.337 C 345.660 218.218,346.535 217.967,347.222 217.781 C 349.941 217.044,349.666 217.733,350.298 210.069 C 350.897 202.800,351.091 200.532,351.360 197.639 C 351.517 195.958,351.902 191.646,352.217 188.056 C 352.532 184.465,352.910 180.215,353.055 178.611 C 353.201 177.007,353.571 172.944,353.877 169.583 C 354.183 166.222,354.564 162.035,354.723 160.278 C 354.882 158.521,355.137 155.708,355.290 154.028 C 355.442 152.347,355.690 149.785,355.842 148.333 C 355.993 146.882,356.115 144.543,356.114 143.136 C 356.112 141.729,356.230 139.667,356.374 138.553 C 356.519 137.439,356.775 134.840,356.943 132.778 C 357.111 130.715,357.370 127.715,357.520 126.111 C 357.670 124.507,358.043 120.444,358.350 117.083 C 358.656 113.722,359.029 109.660,359.177 108.056 C 359.933 99.892,360.080 98.049,360.108 96.389 L 360.139 94.583 300.169 94.513 L 240.198 94.443 240.387 96.735 " stroke="none" fill="#f3f3f3" fill-rule="evenodd"></path><path id="path1" d="M203.611 55.972 C 203.611 57.361,203.725 58.333,203.889 58.333 C 204.058 58.333,204.167 59.583,204.167 61.528 C 204.167 63.472,204.275 64.722,204.444 64.722 C 204.614 64.722,204.722 65.972,204.722 67.917 C 204.722 69.861,204.831 71.111,205.000 71.111 C 205.169 71.111,205.278 72.361,205.278 74.306 C 205.278 76.250,205.386 77.500,205.556 77.500 C 205.725 77.500,205.833 78.796,205.833 80.833 C 205.833 82.732,205.946 84.167,206.095 84.167 C 206.239 84.167,206.425 85.635,206.510 87.431 C 206.594 89.226,206.735 92.192,206.822 94.022 C 206.909 95.853,207.092 97.419,207.228 97.504 C 207.365 97.588,207.495 99.059,207.519 100.773 C 207.552 103.227,207.643 103.889,207.947 103.889 C 208.255 103.889,208.333 104.562,208.333 107.222 C 208.333 109.259,208.441 110.556,208.611 110.556 C 208.781 110.556,208.889 111.846,208.889 113.872 C 208.889 115.784,209.007 117.262,209.167 117.361 C 209.326 117.459,209.444 118.892,209.444 120.711 C 209.444 122.644,209.553 123.889,209.722 123.889 C 209.891 123.889,210.000 125.139,210.000 127.083 C 210.000 129.028,210.109 130.278,210.278 130.278 C 210.448 130.278,210.556 131.580,210.556 133.628 C 210.556 135.790,210.654 136.916,210.833 136.806 C 211.013 136.695,211.111 137.813,211.111 139.960 C 211.111 141.825,211.228 143.328,211.377 143.380 C 211.523 143.431,211.661 145.003,211.685 146.875 C 211.708 148.747,211.839 150.278,211.975 150.278 C 212.111 150.278,212.222 151.628,212.222 153.278 C 212.222 154.928,212.336 156.397,212.476 156.542 C 212.616 156.687,212.800 158.181,212.886 159.861 C 212.972 161.542,213.160 163.667,213.303 164.583 C 213.447 165.500,213.575 167.031,213.588 167.986 C 213.601 168.943,213.736 169.722,213.889 169.722 C 214.059 169.722,214.167 171.013,214.167 173.039 C 214.167 174.951,214.284 176.429,214.444 176.528 C 214.603 176.626,214.722 178.058,214.722 179.878 C 214.722 181.811,214.831 183.056,215.000 183.056 C 215.169 183.056,215.278 184.306,215.278 186.250 C 215.278 188.194,215.386 189.444,215.556 189.444 C 215.725 189.444,215.833 190.741,215.833 192.778 C 215.833 194.815,215.941 196.111,216.111 196.111 C 216.280 196.111,216.389 197.361,216.389 199.306 C 216.389 201.250,216.498 202.500,216.667 202.500 C 216.837 202.500,216.944 203.843,216.944 205.972 C 216.944 208.102,217.052 209.444,217.222 209.444 C 217.390 209.444,217.500 210.643,217.500 212.484 C 217.500 214.210,217.620 215.597,217.778 215.694 C 217.934 215.791,218.056 217.139,218.056 218.785 C 218.056 220.390,218.192 221.957,218.358 222.268 C 218.524 222.579,218.668 224.080,218.678 225.605 C 218.690 227.542,218.808 228.490,219.070 228.752 C 219.343 229.025,219.444 230.037,219.444 232.480 C 219.444 234.530,219.552 235.833,219.722 235.833 C 219.891 235.833,220.000 237.083,220.000 239.028 C 220.000 240.972,220.109 242.222,220.278 242.222 C 220.447 242.222,220.556 243.467,220.556 245.400 C 220.556 247.219,220.674 248.652,220.833 248.750 C 220.986 248.844,221.111 249.414,221.111 250.016 C 221.111 250.926,221.205 251.111,221.667 251.111 C 221.972 251.111,222.222 251.236,222.222 251.389 C 222.222 251.542,222.590 251.667,223.039 251.667 C 223.488 251.667,223.933 251.792,224.028 251.944 C 224.122 252.097,224.692 252.222,225.294 252.222 C 225.896 252.222,226.389 252.347,226.389 252.500 C 226.389 252.653,226.757 252.778,227.206 252.778 C 227.655 252.778,228.100 252.903,228.194 253.056 C 228.289 253.208,228.845 253.333,229.431 253.333 C 230.122 253.333,230.552 253.480,230.656 253.750 C 230.756 254.012,231.181 254.167,231.797 254.167 C 232.336 254.167,232.778 254.292,232.778 254.444 C 232.778 254.597,233.145 254.722,233.595 254.722 C 234.044 254.722,234.489 254.847,234.583 255.000 C 234.678 255.153,235.248 255.278,235.850 255.278 C 236.452 255.278,236.944 255.403,236.944 255.556 C 236.944 255.708,237.382 255.833,237.917 255.833 C 238.451 255.833,238.889 255.958,238.889 256.111 C 238.889 256.264,239.389 256.389,240.000 256.389 C 240.611 256.389,241.111 256.514,241.111 256.667 C 241.111 256.819,241.611 256.944,242.222 256.944 C 242.833 256.944,243.333 257.069,243.333 257.222 C 243.333 257.375,243.778 257.500,244.322 257.500 C 244.910 257.500,245.241 257.612,245.139 257.778 C 245.034 257.947,245.460 258.056,246.234 258.056 C 246.930 258.056,247.500 258.181,247.500 258.333 C 247.500 258.486,247.821 258.611,248.214 258.611 C 248.607 258.611,249.116 258.799,249.345 259.028 C 249.574 259.257,250.190 259.444,250.714 259.444 C 251.238 259.444,251.667 259.569,251.667 259.722 C 251.667 259.875,252.167 260.000,252.778 260.000 C 253.389 260.000,253.889 260.125,253.889 260.278 C 253.889 260.431,254.326 260.556,254.861 260.556 C 255.396 260.556,255.833 260.681,255.833 260.833 C 255.833 260.986,256.333 261.111,256.944 261.111 C 257.556 261.111,258.056 261.236,258.056 261.389 C 258.056 261.542,258.431 261.667,258.889 261.667 C 259.347 261.667,259.722 261.792,259.722 261.944 C 259.722 262.097,260.285 262.222,260.972 262.222 C 261.660 262.222,262.222 262.347,262.222 262.500 C 262.222 262.653,262.722 262.778,263.333 262.778 C 263.944 262.778,264.444 262.903,264.444 263.056 C 264.444 263.208,264.819 263.333,265.278 263.333 C 265.736 263.333,266.111 263.458,266.111 263.611 C 266.111 263.764,266.660 263.889,267.331 263.889 C 268.160 263.889,268.603 264.023,268.712 264.306 C 268.800 264.535,269.180 264.722,269.558 264.722 C 269.936 264.722,270.322 264.847,270.417 265.000 C 270.511 265.153,271.011 265.278,271.528 265.278 C 272.044 265.278,272.544 265.403,272.639 265.556 C 272.733 265.708,273.303 265.833,273.905 265.833 C 274.507 265.833,275.000 265.958,275.000 266.111 C 275.000 266.264,275.368 266.389,275.817 266.389 C 276.266 266.389,276.711 266.514,276.806 266.667 C 276.900 266.819,277.470 266.944,278.072 266.944 C 278.674 266.944,279.167 267.069,279.167 267.222 C 279.167 267.375,279.542 267.500,280.000 267.500 C 280.458 267.500,280.833 267.625,280.833 267.778 C 280.833 267.931,281.403 268.056,282.100 268.056 C 282.873 268.056,283.299 268.164,283.194 268.333 C 283.090 268.503,283.516 268.611,284.289 268.611 C 284.986 268.611,285.556 268.736,285.556 268.889 C 285.556 269.042,285.899 269.171,286.319 269.176 C 286.740 269.180,287.326 269.368,287.623 269.592 C 287.919 269.816,288.505 270.000,288.926 270.000 C 289.346 270.000,289.767 270.125,289.861 270.278 C 289.956 270.431,290.331 270.556,290.694 270.556 C 291.058 270.556,291.433 270.681,291.528 270.833 C 291.622 270.986,292.192 271.111,292.794 271.111 C 293.396 271.111,293.889 271.236,293.889 271.389 C 293.889 271.542,294.389 271.667,295.000 271.667 C 295.611 271.667,296.111 271.792,296.111 271.944 C 296.111 272.097,296.479 272.222,296.928 272.222 C 297.377 272.222,297.822 272.347,297.917 272.500 C 298.143 272.866,302.500 272.866,302.500 272.500 C 302.500 272.347,302.875 272.222,303.333 272.222 C 303.792 272.222,304.167 272.097,304.167 271.944 C 304.167 271.792,304.659 271.667,305.261 271.667 C 305.863 271.667,306.433 271.542,306.528 271.389 C 306.622 271.236,307.122 271.111,307.639 271.111 C 308.156 271.111,308.656 270.986,308.750 270.833 C 308.844 270.681,309.289 270.556,309.739 270.556 C 310.188 270.556,310.556 270.431,310.556 270.278 C 310.556 270.125,310.984 270.000,311.508 270.000 C 312.032 270.000,312.648 269.813,312.877 269.583 C 313.106 269.354,313.615 269.167,314.008 269.167 C 314.401 269.167,314.722 269.042,314.722 268.889 C 314.722 268.736,315.285 268.611,315.972 268.611 C 316.660 268.611,317.222 268.486,317.222 268.333 C 317.222 268.181,317.722 268.056,318.333 268.056 C 318.944 268.056,319.444 267.931,319.444 267.778 C 319.444 267.625,319.819 267.500,320.278 267.500 C 320.736 267.500,321.111 267.375,321.111 267.222 C 321.111 267.069,321.674 266.944,322.361 266.944 C 323.049 266.944,323.611 266.819,323.611 266.667 C 323.611 266.514,323.986 266.389,324.444 266.389 C 324.903 266.389,325.278 266.264,325.278 266.111 C 325.278 265.958,325.778 265.833,326.389 265.833 C 327.000 265.833,327.500 265.708,327.500 265.556 C 327.500 265.403,327.993 265.278,328.595 265.278 C 329.197 265.278,329.767 265.153,329.861 265.000 C 329.956 264.847,330.400 264.722,330.850 264.722 C 331.391 264.722,331.667 264.581,331.667 264.306 C 331.667 263.997,331.991 263.889,332.917 263.889 C 333.604 263.889,334.167 263.764,334.167 263.611 C 334.167 263.458,334.542 263.333,335.000 263.333 C 335.458 263.333,335.833 263.208,335.833 263.056 C 335.833 262.903,336.326 262.778,336.928 262.778 C 337.530 262.778,338.100 262.653,338.194 262.500 C 338.289 262.347,338.789 262.222,339.306 262.222 C 339.822 262.222,340.322 262.097,340.417 261.944 C 340.511 261.792,340.956 261.667,341.405 261.667 C 341.855 261.667,342.222 261.542,342.222 261.389 C 342.222 261.236,342.785 261.111,343.472 261.111 C 344.160 261.111,344.722 260.986,344.722 260.833 C 344.722 260.681,345.152 260.556,345.678 260.556 C 346.204 260.556,346.711 260.431,346.806 260.278 C 346.900 260.125,347.337 260.000,347.778 260.000 C 348.218 260.000,348.656 259.875,348.750 259.722 C 348.844 259.569,349.274 259.444,349.705 259.444 C 350.135 259.444,350.643 259.257,350.833 259.028 C 351.024 258.799,351.539 258.611,351.978 258.611 C 352.418 258.611,352.778 258.486,352.778 258.333 C 352.778 258.181,353.340 258.056,354.028 258.056 C 354.715 258.056,355.278 257.931,355.278 257.778 C 355.278 257.625,355.708 257.500,356.234 257.500 C 356.759 257.500,357.267 257.375,357.361 257.222 C 357.456 257.069,357.900 256.944,358.350 256.944 C 358.799 256.944,359.167 256.819,359.167 256.667 C 359.167 256.514,359.659 256.389,360.261 256.389 C 360.863 256.389,361.433 256.264,361.528 256.111 C 361.622 255.958,362.067 255.833,362.516 255.833 C 362.966 255.833,363.333 255.708,363.333 255.556 C 363.333 255.403,363.826 255.278,364.428 255.278 C 365.030 255.278,365.600 255.153,365.694 255.000 C 365.789 254.847,366.289 254.722,366.806 254.722 C 367.322 254.722,367.822 254.597,367.917 254.444 C 368.011 254.292,368.322 254.167,368.608 254.167 C 368.893 254.167,369.314 253.979,369.544 253.750 C 369.778 253.516,370.456 253.333,371.091 253.333 C 371.713 253.333,372.222 253.208,372.222 253.056 C 372.222 252.903,372.597 252.778,373.056 252.778 C 373.514 252.778,373.889 252.653,373.889 252.500 C 373.889 252.347,374.382 252.222,374.984 252.222 C 375.586 252.222,376.156 252.097,376.250 251.944 C 376.344 251.792,376.914 251.667,377.516 251.667 C 378.118 251.667,378.611 251.542,378.611 251.389 C 378.611 251.236,378.861 251.111,379.167 251.111 C 379.693 251.111,379.722 250.926,379.722 247.639 C 379.722 245.509,379.830 244.167,380.000 244.167 C 380.170 244.167,380.278 242.870,380.278 240.833 C 380.278 238.796,380.386 237.500,380.556 237.500 C 380.724 237.500,380.833 236.260,380.833 234.335 C 380.833 231.778,380.913 231.140,381.250 231.011 C 381.585 230.882,381.667 230.256,381.667 227.803 C 381.667 226.071,381.787 224.681,381.944 224.583 C 382.103 224.485,382.222 223.058,382.222 221.250 C 382.222 219.442,382.341 218.015,382.500 217.917 C 382.660 217.818,382.778 216.340,382.778 214.428 C 382.778 212.402,382.886 211.111,383.056 211.111 C 383.225 211.111,383.333 209.861,383.333 207.917 C 383.333 205.972,383.442 204.722,383.611 204.722 C 383.780 204.722,383.889 203.472,383.889 201.528 C 383.889 199.583,383.998 198.333,384.167 198.333 C 384.336 198.333,384.444 197.083,384.444 195.139 C 384.444 193.194,384.553 191.944,384.722 191.944 C 384.891 191.944,385.000 190.694,385.000 188.750 C 385.000 186.806,385.109 185.556,385.278 185.556 C 385.449 185.556,385.556 184.167,385.556 181.944 C 385.556 179.722,385.662 178.333,385.833 178.333 C 386.002 178.333,386.111 177.093,386.111 175.169 C 386.111 172.612,386.191 171.973,386.528 171.844 C 386.863 171.715,386.944 171.087,386.944 168.620 C 386.944 166.762,387.054 165.556,387.222 165.556 C 387.391 165.556,387.500 164.311,387.500 162.378 C 387.500 160.558,387.619 159.126,387.778 159.028 C 387.937 158.930,388.056 157.503,388.056 155.694 C 388.056 153.886,388.174 152.459,388.333 152.361 C 388.493 152.262,388.611 150.784,388.611 148.872 C 388.611 146.846,388.719 145.556,388.889 145.556 C 389.058 145.556,389.167 144.306,389.167 142.361 C 389.167 140.417,389.275 139.167,389.444 139.167 C 389.614 139.167,389.722 137.917,389.722 135.972 C 389.722 134.028,389.831 132.778,390.000 132.778 C 390.169 132.778,390.278 131.528,390.278 129.583 C 390.278 127.639,390.386 126.389,390.556 126.389 C 390.725 126.389,390.833 125.093,390.833 123.056 C 390.833 121.019,390.941 119.722,391.111 119.722 C 391.281 119.722,391.389 118.390,391.389 116.280 C 391.389 113.476,391.466 112.808,391.806 112.677 C 392.141 112.549,392.222 111.921,392.222 109.453 C 392.222 107.595,392.332 106.389,392.500 106.389 C 392.669 106.389,392.778 105.144,392.778 103.211 C 392.778 101.392,392.897 99.959,393.056 99.861 C 393.215 99.763,393.333 98.330,393.333 96.511 C 393.333 94.578,393.442 93.333,393.611 93.333 C 393.780 93.333,393.889 92.083,393.889 90.139 C 393.889 88.194,393.998 86.944,394.167 86.944 C 394.337 86.944,394.444 85.602,394.444 83.472 C 394.444 81.343,394.552 80.000,394.722 80.000 C 394.891 80.000,395.000 78.750,395.000 76.806 C 395.000 74.861,395.109 73.611,395.278 73.611 C 395.447 73.611,395.556 72.367,395.556 70.433 C 395.556 68.614,395.674 67.182,395.833 67.083 C 395.992 66.985,396.111 65.553,396.111 63.734 C 396.111 61.800,396.220 60.556,396.389 60.556 C 396.559 60.556,396.667 59.213,396.667 57.083 L 396.667 53.611 300.139 53.611 L 203.611 53.611 203.611 55.972 M378.780 72.014 C 378.560 74.034,378.173 78.192,377.763 82.917 C 377.604 84.750,377.349 87.688,377.196 89.444 C 376.540 97.007,375.258 111.188,374.709 116.944 C 374.542 118.701,374.289 121.545,374.147 123.264 C 374.005 124.983,373.773 127.795,373.631 129.514 C 373.489 131.233,373.238 134.014,373.073 135.694 C 372.908 137.375,372.648 140.250,372.494 142.083 C 372.340 143.917,372.086 146.729,371.929 148.333 C 371.772 149.938,371.532 152.688,371.396 154.444 C 371.260 156.201,370.894 160.389,370.582 163.750 C 370.029 169.705,369.702 173.340,369.155 179.583 C 368.736 184.363,368.347 188.515,368.047 191.389 C 367.896 192.840,367.774 194.643,367.775 195.394 C 367.777 196.145,367.662 197.520,367.520 198.449 C 367.378 199.379,367.116 201.951,366.938 204.167 C 366.760 206.382,366.434 210.132,366.213 212.500 C 365.423 220.978,365.000 225.781,364.549 231.389 C 364.038 237.755,363.919 238.114,362.171 238.574 C 360.853 238.920,356.669 240.081,353.958 240.852 C 353.385 241.015,352.479 241.253,351.944 241.381 C 351.410 241.509,350.347 241.794,349.583 242.015 C 346.262 242.975,339.693 244.814,337.778 245.321 C 336.632 245.624,335.288 245.988,334.792 246.130 C 334.295 246.273,333.483 246.505,332.986 246.648 C 331.941 246.948,332.302 246.848,325.278 248.783 C 318.839 250.556,317.858 250.830,316.944 251.111 C 316.563 251.228,315.719 251.464,315.069 251.634 C 314.420 251.805,313.358 252.084,312.708 252.254 C 312.059 252.425,311.215 252.667,310.833 252.792 C 310.451 252.918,308.451 253.476,306.389 254.033 C 304.326 254.590,302.297 255.175,301.880 255.332 C 300.215 255.961,300.278 256.432,300.278 243.248 L 300.278 231.200 299.236 230.884 C 298.663 230.710,296.632 230.130,294.722 229.593 C 292.813 229.057,290.866 228.492,290.397 228.337 C 289.928 228.182,289.279 228.056,288.955 228.056 C 288.631 228.056,288.289 227.931,288.194 227.778 C 288.100 227.625,287.663 227.500,287.222 227.500 C 286.782 227.500,286.353 227.389,286.269 227.253 C 286.185 227.117,285.709 226.941,285.211 226.862 C 284.713 226.783,283.806 226.573,283.194 226.395 C 282.583 226.218,281.771 226.009,281.389 225.932 C 281.007 225.855,280.444 225.685,280.139 225.556 C 279.833 225.426,279.271 225.256,278.889 225.179 C 278.507 225.102,277.757 224.915,277.222 224.763 C 276.688 224.612,275.250 224.217,274.028 223.887 C 272.806 223.557,271.556 223.182,271.250 223.053 C 270.662 222.806,269.616 222.558,268.122 222.311 C 267.624 222.228,267.148 222.050,267.064 221.914 C 266.980 221.778,266.551 221.667,266.111 221.667 C 265.671 221.667,265.242 221.555,265.158 221.420 C 265.074 221.284,264.598 221.105,264.100 221.023 C 262.614 220.777,261.561 220.528,260.972 220.282 C 260.667 220.155,258.979 219.655,257.222 219.172 C 255.465 218.689,253.590 218.170,253.056 218.018 C 252.521 217.865,251.636 217.645,251.090 217.528 C 249.343 217.153,249.322 217.095,248.905 211.528 C 248.779 209.847,248.416 205.910,248.098 202.778 C 247.781 199.646,247.388 195.521,247.225 193.611 C 247.062 191.701,246.811 189.076,246.667 187.778 C 246.381 185.195,246.057 181.055,246.005 179.306 L 245.972 178.194 258.611 178.194 L 271.250 178.194 271.443 180.000 C 271.682 182.232,272.168 187.742,272.485 191.806 C 272.876 196.823,273.015 197.423,273.855 197.720 C 275.611 198.342,276.607 198.611,277.156 198.611 C 277.480 198.611,277.822 198.736,277.917 198.889 C 278.011 199.042,278.511 199.167,279.028 199.167 C 279.544 199.167,280.036 199.278,280.120 199.414 C 280.204 199.550,280.680 199.728,281.178 199.810 C 282.153 199.971,283.643 200.331,285.417 200.833 C 286.028 201.006,286.965 201.256,287.500 201.389 C 288.625 201.667,289.800 201.999,291.944 202.642 C 292.785 202.894,293.941 203.215,294.514 203.355 C 296.206 203.771,297.575 204.113,298.611 204.380 C 300.389 204.839,300.278 206.060,300.278 186.118 C 300.278 169.705,300.233 167.820,299.838 167.669 C 299.597 167.576,287.487 167.500,272.928 167.500 C 252.083 167.500,246.398 167.426,246.181 167.153 C 245.898 166.796,245.696 165.176,245.271 159.861 C 245.137 158.181,244.898 155.306,244.740 153.472 C 244.086 145.888,243.957 143.192,244.233 142.849 C 244.450 142.578,250.533 142.487,272.325 142.432 L 300.139 142.361 300.211 130.486 L 300.284 118.611 271.287 118.611 C 248.421 118.611,242.232 118.538,242.016 118.264 C 241.866 118.073,241.654 116.667,241.545 115.139 C 241.333 112.158,241.057 108.939,240.520 103.194 C 240.334 101.208,240.172 98.396,240.160 96.944 L 240.139 94.306 270.208 94.235 L 300.278 94.164 300.278 82.221 L 300.278 70.278 339.623 70.278 L 378.968 70.278 378.780 72.014 " stroke="none" fill="#0474bc" fill-rule="evenodd"></path><path id="path2" d="M0.278 55.261 C 0.278 56.169,0.403 56.989,0.556 57.083 C 0.713 57.181,0.833 58.562,0.833 60.278 C 0.833 61.993,0.953 63.375,1.111 63.472 C 1.270 63.570,1.389 65.003,1.389 66.822 C 1.389 68.755,1.498 70.000,1.667 70.000 C 1.836 70.000,1.944 71.242,1.944 73.171 C 1.944 74.916,2.063 76.384,2.207 76.435 C 2.352 76.486,2.523 77.960,2.589 79.710 C 2.663 81.728,2.821 82.931,3.020 82.997 C 3.229 83.067,3.333 84.198,3.333 86.396 C 3.333 88.292,3.451 89.762,3.611 89.861 C 3.770 89.959,3.889 91.392,3.889 93.211 C 3.889 95.144,3.998 96.389,4.167 96.389 C 4.336 96.389,4.444 97.639,4.444 99.583 C 4.444 101.528,4.553 102.778,4.722 102.778 C 4.891 102.778,5.000 104.028,5.000 105.972 C 5.000 107.917,5.109 109.167,5.278 109.167 C 5.448 109.167,5.556 110.509,5.556 112.639 C 5.556 114.769,5.663 116.111,5.833 116.111 C 6.003 116.111,6.111 117.407,6.111 119.444 C 6.111 121.481,6.219 122.778,6.389 122.778 C 6.558 122.778,6.667 124.028,6.667 125.972 C 6.667 127.917,6.775 129.167,6.944 129.167 C 7.113 129.167,7.222 130.409,7.222 132.338 C 7.222 134.172,7.338 135.548,7.496 135.602 C 7.651 135.654,7.782 137.036,7.798 138.799 C 7.821 141.195,7.917 141.938,8.219 142.054 C 8.528 142.173,8.611 142.946,8.611 145.686 C 8.611 147.821,8.718 149.167,8.889 149.167 C 9.058 149.167,9.167 150.417,9.167 152.361 C 9.167 154.306,9.275 155.556,9.444 155.556 C 9.614 155.556,9.722 156.806,9.722 158.750 C 9.722 160.694,9.831 161.944,10.000 161.944 C 10.169 161.944,10.278 163.189,10.278 165.122 C 10.278 166.942,10.397 168.374,10.556 168.472 C 10.715 168.570,10.833 170.003,10.833 171.822 C 10.833 173.755,10.942 175.000,11.111 175.000 C 11.281 175.000,11.389 176.343,11.389 178.472 C 11.389 180.602,11.496 181.944,11.667 181.944 C 11.835 181.944,11.944 183.143,11.944 184.984 C 11.944 186.710,12.064 188.097,12.222 188.194 C 12.381 188.293,12.500 189.725,12.500 191.544 C 12.500 193.478,12.609 194.722,12.778 194.722 C 12.947 194.722,13.056 195.975,13.056 197.925 C 13.056 200.516,13.135 201.159,13.472 201.288 C 13.812 201.419,13.889 202.087,13.889 204.891 C 13.889 207.001,13.996 208.333,14.167 208.333 C 14.336 208.333,14.444 209.583,14.444 211.528 C 14.444 213.472,14.553 214.722,14.722 214.722 C 14.891 214.722,15.000 215.972,15.000 217.917 C 15.000 219.861,15.109 221.111,15.278 221.111 C 15.448 221.111,15.556 222.407,15.556 224.444 C 15.556 226.481,15.664 227.778,15.833 227.778 C 16.002 227.778,16.111 229.028,16.111 230.972 C 16.111 232.917,16.220 234.167,16.389 234.167 C 16.559 234.167,16.667 235.509,16.667 237.639 C 16.667 239.769,16.774 241.111,16.944 241.111 C 17.114 241.111,17.222 242.361,17.222 244.306 C 17.222 246.250,17.331 247.500,17.500 247.500 C 17.657 247.500,17.778 248.287,17.778 249.306 C 17.778 251.046,17.803 251.111,18.472 251.111 C 18.854 251.111,19.167 251.236,19.167 251.389 C 19.167 251.542,19.534 251.667,19.984 251.667 C 20.433 251.667,20.878 251.792,20.972 251.944 C 21.067 252.097,21.574 252.222,22.100 252.222 C 22.625 252.222,23.056 252.347,23.056 252.500 C 23.056 252.653,23.618 252.778,24.306 252.778 C 24.993 252.778,25.556 252.903,25.556 253.056 C 25.556 253.208,25.917 253.333,26.359 253.333 C 26.817 253.333,27.232 253.512,27.323 253.750 C 27.428 254.025,27.863 254.167,28.602 254.167 C 29.218 254.167,29.722 254.292,29.722 254.444 C 29.722 254.597,30.097 254.722,30.556 254.722 C 31.014 254.722,31.389 254.847,31.389 255.000 C 31.389 255.153,31.889 255.278,32.500 255.278 C 33.111 255.278,33.611 255.403,33.611 255.556 C 33.611 255.708,34.174 255.833,34.861 255.833 C 35.549 255.833,36.111 255.958,36.111 256.111 C 36.111 256.264,36.486 256.389,36.944 256.389 C 37.403 256.389,37.778 256.514,37.778 256.667 C 37.778 256.819,38.278 256.944,38.889 256.944 C 39.500 256.944,40.000 257.069,40.000 257.222 C 40.000 257.375,40.438 257.500,40.972 257.500 C 41.507 257.500,41.944 257.625,41.944 257.778 C 41.944 257.931,42.444 258.056,43.056 258.056 C 43.667 258.056,44.167 258.181,44.167 258.333 C 44.167 258.486,44.729 258.611,45.417 258.611 C 46.343 258.611,46.667 258.719,46.667 259.028 C 46.667 259.304,46.943 259.444,47.484 259.444 C 47.933 259.444,48.378 259.569,48.472 259.722 C 48.567 259.875,49.067 260.000,49.583 260.000 C 50.100 260.000,50.600 260.125,50.694 260.278 C 50.789 260.431,51.226 260.556,51.667 260.556 C 52.107 260.556,52.544 260.681,52.639 260.833 C 52.733 260.986,53.241 261.111,53.766 261.111 C 54.292 261.111,54.722 261.236,54.722 261.389 C 54.722 261.542,55.285 261.667,55.972 261.667 C 56.660 261.667,57.222 261.792,57.222 261.944 C 57.222 262.097,57.597 262.222,58.056 262.222 C 58.514 262.222,58.889 262.347,58.889 262.500 C 58.889 262.653,59.382 262.778,59.984 262.778 C 60.586 262.778,61.156 262.903,61.250 263.056 C 61.344 263.208,61.789 263.333,62.239 263.333 C 62.688 263.333,63.056 263.458,63.056 263.611 C 63.056 263.764,63.542 263.889,64.137 263.889 C 64.842 263.889,65.274 264.034,65.378 264.306 C 65.484 264.581,65.919 264.722,66.658 264.722 C 67.274 264.722,67.778 264.847,67.778 265.000 C 67.778 265.153,68.153 265.278,68.611 265.278 C 69.069 265.278,69.444 265.403,69.444 265.556 C 69.444 265.708,69.944 265.833,70.556 265.833 C 71.167 265.833,71.667 265.958,71.667 266.111 C 71.667 266.264,72.097 266.389,72.622 266.389 C 73.148 266.389,73.656 266.514,73.750 266.667 C 73.844 266.819,74.352 266.944,74.878 266.944 C 75.403 266.944,75.833 267.069,75.833 267.222 C 75.833 267.375,76.326 267.500,76.928 267.500 C 77.530 267.500,78.100 267.625,78.194 267.778 C 78.289 267.931,78.734 268.056,79.183 268.056 C 79.632 268.056,80.000 268.181,80.000 268.333 C 80.000 268.486,80.500 268.611,81.111 268.611 C 81.722 268.611,82.222 268.736,82.222 268.889 C 82.222 269.042,82.606 269.167,83.075 269.167 C 83.545 269.167,84.116 269.354,84.345 269.583 C 84.574 269.813,85.128 270.000,85.575 270.000 C 86.023 270.000,86.389 270.125,86.389 270.278 C 86.389 270.431,86.882 270.556,87.484 270.556 C 88.086 270.556,88.656 270.681,88.750 270.833 C 88.844 270.986,89.289 271.111,89.739 271.111 C 90.188 271.111,90.556 271.236,90.556 271.389 C 90.556 271.542,91.048 271.667,91.650 271.667 C 92.252 271.667,92.822 271.792,92.917 271.944 C 93.011 272.097,93.456 272.222,93.905 272.222 C 94.355 272.222,94.722 272.347,94.722 272.500 C 94.722 272.662,95.648 272.778,96.944 272.778 C 98.241 272.778,99.167 272.662,99.167 272.500 C 99.167 272.347,99.667 272.222,100.278 272.222 C 100.889 272.222,101.389 272.097,101.389 271.944 C 101.389 271.792,101.826 271.667,102.361 271.667 C 102.896 271.667,103.333 271.542,103.333 271.389 C 103.333 271.236,103.826 271.111,104.428 271.111 C 105.030 271.111,105.600 270.986,105.694 270.833 C 105.789 270.681,106.234 270.556,106.683 270.556 C 107.132 270.556,107.500 270.431,107.500 270.278 C 107.500 270.125,107.941 270.000,108.481 270.000 C 109.097 270.000,109.521 269.845,109.622 269.583 C 109.731 269.299,110.175 269.167,111.018 269.167 C 111.772 269.167,112.188 269.058,112.083 268.889 C 111.981 268.724,112.312 268.611,112.900 268.611 C 113.444 268.611,113.889 268.486,113.889 268.333 C 113.889 268.181,114.382 268.056,114.984 268.056 C 115.586 268.056,116.156 267.931,116.250 267.778 C 116.344 267.625,116.789 267.500,117.239 267.500 C 117.688 267.500,118.056 267.375,118.056 267.222 C 118.056 267.069,118.556 266.944,119.167 266.944 C 119.778 266.944,120.278 266.833,120.278 266.696 C 120.278 266.559,120.747 266.376,121.319 266.290 C 123.805 265.914,124.444 265.758,124.444 265.525 C 124.444 265.389,124.875 265.278,125.400 265.278 C 125.926 265.278,126.433 265.153,126.528 265.000 C 126.622 264.847,127.071 264.722,127.525 264.722 C 128.003 264.722,128.418 264.547,128.511 264.306 C 128.615 264.034,129.047 263.889,129.752 263.889 C 130.347 263.889,130.833 263.764,130.833 263.611 C 130.833 263.458,131.326 263.333,131.928 263.333 C 132.530 263.333,133.100 263.208,133.194 263.056 C 133.289 262.903,133.734 262.778,134.183 262.778 C 134.632 262.778,135.000 262.653,135.000 262.500 C 135.000 262.347,135.500 262.222,136.111 262.222 C 136.722 262.222,137.222 262.097,137.222 261.944 C 137.222 261.792,137.660 261.667,138.194 261.667 C 138.729 261.667,139.167 261.542,139.167 261.389 C 139.167 261.236,139.667 261.111,140.278 261.111 C 140.889 261.111,141.389 260.986,141.389 260.833 C 141.389 260.681,141.889 260.556,142.500 260.556 C 143.111 260.556,143.611 260.431,143.611 260.278 C 143.611 260.125,143.979 260.000,144.428 260.000 C 144.877 260.000,145.322 259.875,145.417 259.722 C 145.511 259.569,146.022 259.444,146.553 259.444 C 147.154 259.444,147.578 259.287,147.677 259.028 C 147.786 258.745,148.229 258.611,149.057 258.611 C 149.729 258.611,150.278 258.486,150.278 258.333 C 150.278 258.181,150.653 258.056,151.111 258.056 C 151.569 258.056,151.944 257.931,151.944 257.778 C 151.944 257.625,152.444 257.500,153.056 257.500 C 153.667 257.500,154.167 257.375,154.167 257.222 C 154.167 257.069,154.604 256.944,155.139 256.944 C 155.674 256.944,156.111 256.819,156.111 256.667 C 156.111 256.514,156.611 256.389,157.222 256.389 C 157.833 256.389,158.333 256.264,158.333 256.111 C 158.333 255.958,158.826 255.833,159.428 255.833 C 160.030 255.833,160.600 255.708,160.694 255.556 C 160.789 255.403,161.234 255.278,161.683 255.278 C 162.132 255.278,162.500 255.153,162.500 255.000 C 162.500 254.847,162.930 254.722,163.456 254.722 C 163.982 254.722,164.489 254.597,164.583 254.444 C 164.678 254.292,165.127 254.167,165.581 254.167 C 166.058 254.167,166.474 253.991,166.566 253.750 C 166.670 253.478,167.103 253.333,167.807 253.333 C 168.402 253.333,168.889 253.208,168.889 253.056 C 168.889 252.903,169.451 252.778,170.139 252.778 C 170.826 252.778,171.389 252.653,171.389 252.500 C 171.389 252.347,171.764 252.222,172.222 252.222 C 172.681 252.222,173.056 252.097,173.056 251.944 C 173.056 251.792,173.556 251.667,174.167 251.667 C 174.778 251.667,175.278 251.542,175.278 251.389 C 175.278 251.236,175.582 251.111,175.954 251.111 C 176.701 251.111,176.682 251.259,177.104 242.153 C 177.187 240.358,177.373 238.889,177.516 238.889 C 177.665 238.889,177.778 237.454,177.778 235.556 C 177.778 233.519,177.886 232.222,178.056 232.222 C 178.225 232.222,178.333 230.972,178.333 229.028 C 178.333 227.083,178.442 225.833,178.611 225.833 C 178.780 225.833,178.889 224.583,178.889 222.639 C 178.889 220.694,178.998 219.444,179.167 219.444 C 179.336 219.444,179.444 218.194,179.444 216.250 C 179.444 214.306,179.553 213.056,179.722 213.056 C 179.893 213.056,180.000 211.718,180.000 209.600 C 180.000 207.595,180.117 206.072,180.278 205.972 C 180.437 205.874,180.556 204.442,180.556 202.622 C 180.556 199.983,180.626 199.444,180.972 199.444 C 181.318 199.444,181.389 198.904,181.389 196.250 C 181.389 194.306,181.498 193.056,181.667 193.056 C 181.836 193.056,181.944 191.811,181.944 189.878 C 181.944 188.058,182.063 186.626,182.222 186.528 C 182.382 186.429,182.500 184.951,182.500 183.039 C 182.500 181.013,182.608 179.722,182.778 179.722 C 182.948 179.722,183.056 178.426,183.056 176.389 C 183.056 174.352,183.164 173.056,183.333 173.056 C 183.502 173.056,183.611 171.806,183.611 169.861 C 183.611 167.917,183.720 166.667,183.889 166.667 C 184.058 166.667,184.167 165.417,184.167 163.472 C 184.167 161.528,184.275 160.278,184.444 160.278 C 184.614 160.278,184.722 159.028,184.722 157.083 C 184.722 155.139,184.831 153.889,185.000 153.889 C 185.171 153.889,185.278 152.500,185.278 150.278 C 185.278 148.056,185.385 146.667,185.556 146.667 C 185.725 146.667,185.833 145.417,185.833 143.472 C 185.833 140.818,185.904 140.278,186.250 140.278 C 186.596 140.278,186.667 139.738,186.667 137.083 C 186.667 135.139,186.775 133.889,186.944 133.889 C 187.114 133.889,187.222 132.639,187.222 130.694 C 187.222 128.750,187.331 127.500,187.500 127.500 C 187.669 127.500,187.778 126.255,187.778 124.322 C 187.778 122.503,187.897 121.070,188.056 120.972 C 188.217 120.873,188.333 119.349,188.333 117.345 C 188.333 115.226,188.441 113.889,188.611 113.889 C 188.780 113.889,188.889 112.639,188.889 110.694 C 188.889 108.750,188.998 107.500,189.167 107.500 C 189.336 107.500,189.444 106.250,189.444 104.306 C 189.444 102.361,189.553 101.111,189.722 101.111 C 189.891 101.111,190.000 99.861,190.000 97.917 C 190.000 95.972,190.109 94.722,190.278 94.722 C 190.448 94.722,190.556 93.426,190.556 91.389 C 190.556 89.352,190.664 88.056,190.833 88.056 C 191.004 88.056,191.111 86.713,191.111 84.583 C 191.111 82.454,191.219 81.111,191.389 81.111 C 191.558 81.111,191.667 79.871,191.667 77.946 C 191.667 75.390,191.747 74.751,192.083 74.622 C 192.419 74.493,192.500 73.865,192.500 71.398 C 192.500 69.540,192.609 68.333,192.778 68.333 C 192.947 68.333,193.056 67.089,193.056 65.155 C 193.056 63.336,193.174 61.904,193.333 61.806 C 193.492 61.707,193.611 60.275,193.611 58.456 C 193.611 56.522,193.720 55.278,193.889 55.278 C 194.042 55.278,194.167 54.903,194.167 54.444 L 194.167 53.611 97.222 53.611 L 0.278 53.611 0.278 55.261 M157.347 95.417 C 157.334 96.449,156.964 100.918,156.371 107.222 C 156.235 108.674,156.003 111.434,155.856 113.355 C 155.710 115.277,155.506 117.184,155.404 117.592 L 155.218 118.333 109.234 118.333 L 63.250 118.333 63.439 121.042 C 63.543 122.531,63.751 125.000,63.901 126.528 C 64.222 129.776,64.587 133.998,64.978 138.969 C 65.132 140.923,65.332 142.642,65.423 142.788 C 65.528 142.958,81.633 143.056,109.322 143.056 L 153.056 143.056 153.053 144.236 C 153.052 144.885,152.921 146.542,152.762 147.917 C 152.604 149.292,152.356 151.917,152.213 153.750 C 152.069 155.583,151.827 158.396,151.675 160.000 C 151.524 161.604,151.270 164.417,151.112 166.250 C 150.953 168.083,150.692 170.958,150.531 172.639 C 150.370 174.319,150.127 177.069,149.991 178.750 C 149.855 180.431,149.619 183.118,149.467 184.722 C 149.315 186.326,149.066 189.076,148.914 190.833 C 148.421 196.531,148.031 200.883,147.609 205.417 C 147.381 207.861,147.083 211.300,146.947 213.059 C 146.662 216.753,146.552 217.144,145.738 217.360 C 144.033 217.813,142.846 218.142,142.222 218.333 C 141.214 218.643,139.816 219.035,135.139 220.318 C 132.847 220.947,130.097 221.706,129.028 222.006 C 125.444 223.009,125.143 223.092,124.167 223.333 C 123.632 223.466,122.726 223.707,122.153 223.870 C 120.071 224.463,119.218 224.701,114.167 226.100 C 111.340 226.882,108.653 227.631,108.194 227.764 C 107.736 227.897,106.924 228.125,106.389 228.271 C 105.164 228.605,103.947 228.946,100.230 229.998 C 97.343 230.815,97.224 230.826,95.716 230.419 C 90.446 228.994,88.365 228.417,81.667 226.524 C 75.548 224.794,75.731 224.845,73.194 224.167 C 71.972 223.840,70.597 223.468,70.139 223.339 C 69.681 223.210,68.311 222.836,67.096 222.506 C 65.881 222.177,64.816 221.864,64.731 221.811 C 64.645 221.758,63.077 221.312,61.246 220.820 C 59.415 220.328,57.042 219.681,55.972 219.382 C 53.781 218.770,53.265 218.628,50.142 217.782 C 47.582 217.087,47.510 217.014,47.504 215.081 C 47.502 214.285,47.380 212.722,47.233 211.609 C 47.086 210.495,46.835 208.021,46.675 206.111 C 46.324 201.913,45.334 190.867,44.981 187.222 C 44.841 185.771,44.644 183.365,44.543 181.875 L 44.361 179.167 56.331 179.167 C 62.914 179.167,68.362 179.267,68.438 179.389 C 68.579 179.618,68.924 182.861,69.433 188.750 C 70.314 198.950,70.120 198.328,72.639 198.999 C 76.692 200.078,79.379 200.799,81.528 201.384 C 82.750 201.717,84.625 202.219,85.694 202.500 C 86.764 202.780,88.576 203.270,89.722 203.588 C 94.691 204.967,97.233 205.582,97.441 205.453 C 97.666 205.314,101.247 204.311,103.056 203.880 C 103.590 203.752,104.465 203.526,105.000 203.376 C 106.899 202.844,109.187 202.217,110.625 201.833 C 111.427 201.619,113.896 200.947,116.111 200.340 C 118.326 199.733,120.826 199.073,121.667 198.874 C 123.812 198.366,123.828 198.337,124.171 194.444 C 124.745 187.919,125.012 184.861,125.274 181.806 C 125.418 180.125,125.661 177.438,125.815 175.833 C 125.968 174.229,126.179 171.635,126.284 170.069 L 126.473 167.222 85.052 167.222 C 44.424 167.222,43.625 167.212,43.344 166.686 C 43.186 166.392,42.926 164.485,42.766 162.450 C 42.365 157.354,42.033 153.466,41.692 149.861 C 41.533 148.181,41.209 144.556,40.972 141.806 C 40.736 139.056,40.416 135.493,40.263 133.889 C 39.935 130.467,39.568 126.421,39.173 121.875 C 38.817 117.789,38.389 112.991,38.026 109.028 C 37.064 98.540,36.831 95.141,37.037 94.603 C 37.190 94.206,42.837 94.172,97.283 94.235 L 157.361 94.306 157.347 95.417 " stroke="none" fill="#e44c24" fill-rule="evenodd"></path><path id="path3" d="M18.333 19.028 L 18.333 37.778 25.139 37.778 L 31.944 37.778 31.944 31.667 L 31.944 25.556 36.944 25.556 L 41.944 25.556 41.944 31.667 L 41.944 37.778 48.611 37.778 L 55.278 37.778 55.278 19.028 L 55.278 0.278 48.611 0.278 L 41.944 0.278 41.944 6.111 L 41.944 11.944 36.944 11.944 L 31.944 11.944 31.944 6.111 L 31.944 0.278 25.139 0.278 L 18.333 0.278 18.333 19.028 M59.444 6.667 L 59.444 13.056 64.722 13.056 L 70.000 13.056 70.000 25.417 L 70.000 37.778 76.667 37.778 L 83.333 37.778 83.333 25.417 L 83.333 13.056 88.611 13.056 L 93.889 13.056 93.889 6.667 L 93.889 0.278 76.667 0.278 L 59.444 0.278 59.444 6.667 M98.611 19.028 L 98.611 37.778 105.139 37.778 L 111.667 37.778 111.667 29.861 C 111.667 24.769,111.766 21.944,111.944 21.944 C 112.097 21.944,112.222 22.167,112.222 22.439 C 112.222 22.711,112.472 23.113,112.778 23.333 C 113.083 23.554,113.333 23.991,113.333 24.306 C 113.333 24.620,113.583 25.058,113.889 25.278 C 114.194 25.498,114.444 25.873,114.444 26.111 C 114.444 26.349,114.694 26.724,115.000 26.944 C 115.306 27.165,115.556 27.567,115.556 27.839 C 115.556 28.111,115.689 28.333,115.853 28.333 C 116.343 28.333,116.944 29.087,116.944 29.702 C 116.944 30.019,117.069 30.278,117.222 30.278 C 117.375 30.278,117.500 30.471,117.500 30.707 C 117.500 31.331,118.767 32.500,119.444 32.500 C 120.053 32.500,121.389 31.355,121.389 30.833 C 121.389 30.666,121.701 30.239,122.083 29.885 C 122.465 29.531,122.778 29.065,122.778 28.849 C 122.778 28.633,123.028 28.276,123.333 28.056 C 123.639 27.835,123.889 27.433,123.889 27.161 C 123.889 26.889,124.014 26.667,124.167 26.667 C 124.319 26.667,124.444 26.444,124.444 26.172 C 124.444 25.901,124.694 25.498,125.000 25.278 C 125.306 25.058,125.556 24.620,125.556 24.306 C 125.556 23.991,125.806 23.554,126.111 23.333 C 126.417 23.113,126.667 22.711,126.667 22.439 C 126.667 22.167,126.854 21.944,127.083 21.944 C 127.444 21.944,127.500 23.009,127.500 29.861 L 127.500 37.778 134.167 37.778 L 140.833 37.778 140.833 19.028 L 140.833 0.278 133.852 0.278 L 126.870 0.278 126.213 1.042 C 125.852 1.462,125.556 2.024,125.556 2.292 C 125.556 2.559,125.431 2.778,125.278 2.778 C 125.125 2.778,125.000 3.000,125.000 3.272 C 125.000 3.544,124.750 3.946,124.444 4.167 C 124.139 4.387,123.889 4.789,123.889 5.061 C 123.889 5.333,123.764 5.556,123.611 5.556 C 123.458 5.556,123.333 5.778,123.333 6.050 C 123.333 6.322,123.083 6.724,122.778 6.944 C 122.472 7.165,122.222 7.573,122.222 7.851 C 122.222 8.363,122.030 8.657,120.903 9.862 C 120.559 10.230,120.278 10.670,120.278 10.841 C 120.278 11.163,119.603 11.944,119.325 11.944 C 119.238 11.944,119.167 11.694,119.167 11.389 C 119.167 11.083,119.042 10.833,118.889 10.833 C 118.736 10.833,118.611 10.611,118.611 10.339 C 118.611 10.067,118.361 9.665,118.056 9.444 C 117.750 9.224,117.500 8.822,117.500 8.550 C 117.500 8.278,117.375 8.056,117.222 8.056 C 117.069 8.056,116.944 7.815,116.944 7.520 C 116.944 7.226,116.632 6.739,116.250 6.439 C 115.868 6.138,115.556 5.719,115.556 5.507 C 115.556 5.296,115.306 4.942,115.000 4.722 C 114.694 4.502,114.444 4.099,114.444 3.828 C 114.444 3.556,114.319 3.333,114.167 3.333 C 114.014 3.333,113.889 3.107,113.889 2.830 C 113.889 2.553,113.639 2.059,113.333 1.731 C 113.028 1.403,112.778 0.942,112.778 0.706 C 112.778 0.331,111.891 0.278,105.694 0.278 L 98.611 0.278 98.611 19.028 M145.556 19.028 L 145.556 37.778 161.111 37.778 L 176.667 37.778 176.667 31.389 L 176.667 25.000 167.778 25.000 L 158.889 25.000 158.889 12.639 L 158.889 0.278 152.222 0.278 L 145.556 0.278 145.556 19.028 M243.333 19.028 L 243.333 37.778 260.556 37.778 L 277.778 37.778 277.778 31.389 L 277.778 25.000 268.472 25.000 L 259.167 25.000 259.167 19.722 L 259.167 14.444 268.472 14.444 L 277.778 14.444 277.778 7.361 L 277.778 0.278 260.556 0.278 L 243.333 0.278 243.333 19.028 M282.500 7.539 C 282.500 15.227,282.549 15.516,283.847 15.547 C 284.053 15.552,284.572 15.931,285.000 16.389 C 285.428 16.847,285.947 17.226,286.153 17.230 C 286.359 17.234,287.017 17.796,287.615 18.480 C 288.212 19.163,288.881 19.722,289.100 19.722 C 289.320 19.722,289.850 20.097,290.278 20.556 C 290.706 21.014,291.206 21.389,291.389 21.389 C 291.572 21.389,292.072 21.764,292.500 22.222 C 292.928 22.681,293.478 23.056,293.723 23.056 C 293.967 23.056,294.167 23.181,294.167 23.333 C 294.167 23.486,294.354 23.611,294.583 23.611 C 294.813 23.611,295.000 23.799,295.000 24.028 C 295.000 24.257,295.125 24.444,295.278 24.444 C 295.431 24.444,295.556 24.569,295.556 24.722 C 295.556 24.900,293.194 25.000,289.028 25.000 L 282.500 25.000 282.500 31.389 L 282.500 37.778 300.139 37.778 L 317.778 37.778 317.778 31.517 L 317.778 25.256 316.655 24.156 C 316.038 23.551,315.401 23.056,315.239 23.056 C 315.077 23.056,314.595 22.681,314.167 22.222 C 313.739 21.764,313.239 21.389,313.056 21.389 C 312.873 21.389,312.373 21.014,311.944 20.556 C 311.516 20.097,311.029 19.722,310.861 19.722 C 310.693 19.722,310.556 19.597,310.556 19.444 C 310.556 19.292,310.306 19.167,310.000 19.167 C 309.694 19.167,309.444 19.037,309.444 18.880 C 309.444 18.505,307.604 16.667,307.229 16.667 C 307.070 16.667,306.547 16.292,306.067 15.833 C 305.588 15.375,304.964 15.000,304.681 15.000 C 304.398 15.000,304.167 14.875,304.167 14.722 C 304.167 14.545,306.620 14.444,310.972 14.444 L 317.778 14.444 317.778 7.361 L 317.778 0.278 300.139 0.278 L 282.500 0.278 282.500 7.539 M321.944 7.230 L 321.944 14.181 323.187 15.424 C 323.871 16.107,324.559 16.667,324.717 16.667 C 324.876 16.667,325.397 17.042,325.877 17.500 C 326.357 17.958,326.981 18.333,327.263 18.333 C 327.546 18.333,327.778 18.464,327.778 18.624 C 327.778 19.001,329.055 20.278,329.432 20.278 C 329.591 20.278,330.237 20.778,330.867 21.389 C 331.496 22.000,332.188 22.500,332.404 22.500 C 332.620 22.500,333.234 22.938,333.769 23.472 C 334.303 24.007,334.862 24.444,335.009 24.444 C 335.157 24.444,335.278 24.569,335.278 24.722 C 335.278 24.900,332.870 25.000,328.611 25.000 L 321.944 25.000 321.944 31.389 L 321.944 37.778 339.722 37.778 L 357.500 37.778 357.500 31.508 C 357.500 24.966,357.409 24.444,356.270 24.444 C 356.030 24.444,355.833 24.287,355.833 24.094 C 355.833 23.901,355.500 23.495,355.093 23.191 C 354.686 22.887,354.195 22.483,354.002 22.292 C 353.809 22.101,353.505 21.944,353.326 21.944 C 353.147 21.944,352.650 21.569,352.222 21.111 C 351.794 20.653,351.298 20.278,351.120 20.278 C 350.941 20.278,350.256 19.715,349.598 19.028 C 348.939 18.340,348.250 17.778,348.067 17.778 C 347.884 17.778,347.254 17.278,346.667 16.667 C 346.080 16.056,345.455 15.556,345.280 15.556 C 344.950 15.556,344.167 14.885,344.167 14.603 C 344.167 14.516,347.167 14.444,350.833 14.444 L 357.500 14.444 357.500 7.361 L 357.500 0.278 339.722 0.278 L 321.944 0.278 321.944 7.230 " stroke="none" fill="#040404" fill-rule="evenodd"></path><path id="path4" d="M300.278 82.221 L 300.278 94.164 270.208 94.235 L 240.139 94.306 240.160 96.944 C 240.172 98.396,240.334 101.208,240.520 103.194 C 241.057 108.939,241.333 112.158,241.545 115.139 C 241.654 116.667,241.866 118.073,242.016 118.264 C 242.232 118.538,248.421 118.611,271.287 118.611 L 300.284 118.611 300.211 130.486 L 300.139 142.361 272.388 142.432 C 243.362 142.506,243.870 142.483,243.906 143.715 C 243.924 144.295,243.929 144.294,244.175 143.681 L 244.427 143.056 264.806 143.056 C 276.015 143.056,295.689 142.973,308.527 142.871 L 331.868 142.687 332.194 139.330 C 332.374 137.483,332.638 134.910,332.782 133.611 C 333.022 131.431,334.103 120.759,334.244 119.167 L 334.306 118.472 288.485 118.402 C 263.284 118.363,242.573 118.238,242.460 118.124 C 242.263 117.925,241.919 114.770,241.376 108.194 C 241.237 106.514,241.000 103.764,240.849 102.083 C 240.699 100.403,240.491 97.996,240.387 96.735 L 240.198 94.443 300.169 94.513 L 360.139 94.583 360.108 96.389 C 360.080 98.049,359.933 99.892,359.177 108.056 C 359.029 109.660,358.656 113.722,358.350 117.083 C 358.043 120.444,357.670 124.507,357.520 126.111 C 357.370 127.715,357.111 130.715,356.943 132.778 C 356.775 134.840,356.519 137.439,356.374 138.553 C 356.230 139.667,356.112 141.729,356.114 143.136 C 356.115 144.543,355.993 146.882,355.842 148.333 C 355.690 149.785,355.442 152.347,355.290 154.028 C 355.137 155.708,354.882 158.521,354.723 160.278 C 354.564 162.035,354.183 166.222,353.877 169.583 C 353.571 172.944,353.201 177.007,353.055 178.611 C 352.910 180.215,352.532 184.465,352.217 188.056 C 351.902 191.646,351.517 195.958,351.360 197.639 C 351.091 200.532,350.897 202.800,350.298 210.069 C 349.666 217.733,349.941 217.044,347.222 217.781 C 346.535 217.967,345.660 218.218,345.278 218.337 C 344.896 218.457,343.083 218.957,341.250 219.449 C 339.417 219.942,336.417 220.767,334.583 221.284 C 332.750 221.801,330.750 222.363,330.139 222.533 C 329.528 222.703,328.715 222.941,328.333 223.061 C 327.951 223.182,327.014 223.435,326.250 223.623 C 325.125 223.901,313.111 227.211,309.167 228.330 C 308.632 228.482,306.444 229.101,304.304 229.706 L 300.414 230.806 296.665 229.742 C 294.604 229.156,291.479 228.276,289.722 227.786 C 287.965 227.296,286.090 226.773,285.556 226.624 C 285.021 226.474,284.146 226.244,283.611 226.111 C 282.711 225.888,282.046 225.705,279.653 225.019 C 279.156 224.877,277.750 224.493,276.528 224.167 C 275.306 223.840,273.931 223.468,273.472 223.340 C 272.712 223.127,267.921 221.783,265.556 221.118 C 265.021 220.968,263.646 220.590,262.500 220.278 C 260.011 219.600,258.488 219.177,257.361 218.849 C 256.903 218.716,255.340 218.287,253.889 217.896 C 249.665 216.759,249.778 216.831,249.605 215.182 C 249.523 214.394,249.345 212.813,249.209 211.667 L 248.963 209.583 248.926 211.357 C 248.841 215.397,249.448 217.181,251.019 217.515 C 251.605 217.639,252.521 217.865,253.056 218.018 C 253.590 218.170,255.465 218.689,257.222 219.172 C 258.979 219.655,260.667 220.155,260.972 220.282 C 261.561 220.528,262.614 220.777,264.100 221.023 C 264.598 221.105,265.074 221.284,265.158 221.420 C 265.242 221.555,265.671 221.667,266.111 221.667 C 266.551 221.667,266.980 221.778,267.064 221.914 C 267.148 222.050,267.624 222.228,268.122 222.311 C 269.616 222.558,270.662 222.806,271.250 223.053 C 271.556 223.182,272.806 223.557,274.028 223.887 C 275.250 224.217,276.688 224.612,277.222 224.763 C 277.757 224.915,278.507 225.102,278.889 225.179 C 279.271 225.256,279.833 225.426,280.139 225.556 C 280.444 225.685,281.007 225.855,281.389 225.932 C 281.771 226.009,282.583 226.218,283.194 226.395 C 283.806 226.573,284.713 226.783,285.211 226.862 C 285.709 226.941,286.185 227.117,286.269 227.253 C 286.353 227.389,286.782 227.500,287.222 227.500 C 287.663 227.500,288.100 227.625,288.194 227.778 C 288.289 227.931,288.631 228.056,288.955 228.056 C 289.279 228.056,289.928 228.182,290.397 228.337 C 290.866 228.492,292.813 229.057,294.722 229.593 C 296.632 230.130,298.663 230.710,299.236 230.884 L 300.278 231.200 300.278 243.248 C 300.278 256.432,300.215 255.961,301.880 255.332 C 302.297 255.175,304.326 254.590,306.389 254.033 C 308.451 253.476,310.451 252.918,310.833 252.792 C 311.215 252.667,312.059 252.425,312.708 252.254 C 313.358 252.084,314.420 251.805,315.069 251.634 C 315.719 251.464,316.563 251.228,316.944 251.111 C 317.858 250.830,318.839 250.556,325.278 248.783 C 332.302 246.848,331.941 246.948,332.986 246.648 C 333.483 246.505,334.295 246.273,334.792 246.130 C 335.288 245.988,336.632 245.624,337.778 245.321 C 339.693 244.814,346.262 242.975,349.583 242.015 C 350.347 241.794,351.410 241.509,351.944 241.381 C 352.479 241.253,353.385 241.015,353.958 240.852 C 356.669 240.081,360.853 238.920,362.171 238.574 C 363.919 238.114,364.038 237.755,364.549 231.389 C 365.000 225.781,365.423 220.978,366.213 212.500 C 366.434 210.132,366.760 206.382,366.938 204.167 C 367.116 201.951,367.378 199.379,367.520 198.449 C 367.662 197.520,367.777 196.145,367.775 195.394 C 367.774 194.643,367.896 192.840,368.047 191.389 C 368.347 188.515,368.736 184.363,369.155 179.583 C 369.702 173.340,370.029 169.705,370.582 163.750 C 370.894 160.389,371.260 156.201,371.396 154.444 C 371.532 152.688,371.772 149.938,371.929 148.333 C 372.086 146.729,372.340 143.917,372.494 142.083 C 372.648 140.250,372.908 137.375,373.073 135.694 C 373.238 134.014,373.489 131.233,373.631 129.514 C 373.773 127.795,374.005 124.983,374.147 123.264 C 374.289 121.545,374.542 118.701,374.709 116.944 C 375.258 111.188,376.540 97.007,377.196 89.444 C 377.349 87.688,377.604 84.750,377.763 82.917 C 378.173 78.192,378.560 74.034,378.780 72.014 L 378.968 70.278 339.623 70.278 L 300.278 70.278 300.278 82.221 M244.328 147.222 C 244.397 148.826,244.571 151.514,244.715 153.194 C 244.860 154.875,245.107 157.813,245.265 159.722 C 245.766 165.766,245.892 166.797,246.178 167.153 C 246.398 167.426,252.085 167.500,272.928 167.500 C 287.487 167.500,299.597 167.576,299.838 167.669 C 300.233 167.820,300.278 169.705,300.278 186.118 C 300.278 206.060,300.389 204.839,298.611 204.380 C 294.960 203.439,293.526 203.171,294.167 203.550 C 294.396 203.685,295.784 204.090,297.250 204.448 L 299.917 205.101 302.250 204.461 C 304.934 203.726,305.767 203.500,307.500 203.037 C 308.188 202.853,309.125 202.590,309.583 202.453 C 310.042 202.315,312.979 201.523,316.111 200.691 C 319.243 199.859,322.181 199.060,322.639 198.914 C 323.097 198.769,324.181 198.490,325.046 198.295 C 326.917 197.873,326.782 198.250,327.363 191.806 C 327.583 189.361,327.892 186.049,328.051 184.444 C 328.209 182.840,328.468 180.090,328.626 178.333 C 329.195 172.019,329.412 169.840,329.603 168.542 L 329.798 167.222 318.441 167.182 C 312.194 167.160,293.396 167.066,276.667 166.974 L 246.250 166.806 246.057 164.306 C 245.583 158.160,244.452 145.514,244.317 144.861 C 244.254 144.556,244.259 145.618,244.328 147.222 M245.927 178.489 C 245.834 178.731,245.900 179.788,246.074 180.837 C 246.247 181.887,246.389 183.524,246.389 184.475 C 246.389 185.426,246.504 186.965,246.646 187.894 C 246.787 188.823,247.046 191.333,247.222 193.472 C 247.815 200.679,248.641 208.734,248.803 208.881 C 248.891 208.962,248.875 207.965,248.766 206.667 C 248.657 205.368,248.462 202.993,248.331 201.389 C 248.056 198.004,247.642 193.370,247.228 189.028 C 247.068 187.347,246.820 184.469,246.678 182.631 C 246.535 180.793,246.336 179.075,246.235 178.812 C 246.063 178.363,246.839 178.333,258.544 178.333 L 271.037 178.333 271.206 181.042 C 271.299 182.531,271.498 185.125,271.647 186.806 C 271.797 188.486,272.052 191.546,272.213 193.605 C 272.556 197.958,272.438 197.782,275.556 198.617 C 276.854 198.965,278.792 199.493,279.861 199.791 C 280.931 200.089,282.243 200.438,282.778 200.565 C 283.313 200.692,284.188 200.921,284.722 201.073 C 287.834 201.960,291.716 202.962,292.917 203.187 C 294.736 203.529,291.858 202.526,288.611 201.686 C 287.678 201.445,286.242 201.059,284.167 200.493 C 283.632 200.347,282.811 200.114,282.341 199.975 C 281.872 199.836,281.223 199.722,280.899 199.722 C 280.576 199.722,280.233 199.597,280.139 199.444 C 280.044 199.292,279.544 199.167,279.028 199.167 C 278.511 199.167,278.011 199.042,277.917 198.889 C 277.822 198.736,277.480 198.611,277.156 198.611 C 276.607 198.611,275.611 198.342,273.855 197.720 C 273.015 197.423,272.876 196.823,272.485 191.806 C 272.168 187.742,271.682 182.232,271.443 180.000 L 271.250 178.194 258.673 178.122 C 247.416 178.057,246.078 178.096,245.927 178.489 " stroke="none" fill="#2baae2" fill-rule="evenodd"></path></g></svg>