<svg id="svg" version="1.1" xmlns="http://www.w3.org/2000/svg" xmlns:xlink="http://www.w3.org/1999/xlink" width="50" height="50" viewBox="0, 0, 400,400"><g id="svgg"><path id="path0" d="M128.865 103.488 C 117.104 105.172,109.995 112.926,109.958 124.108 C 109.884 146.864,141.582 153.121,150.173 132.047 C 155.990 117.780,143.737 101.358,128.865 103.488 M109.838 222.595 L 109.838 282.162 130.811 282.162 L 151.784 282.162 151.784 222.595 L 151.784 163.027 130.811 163.027 L 109.838 163.027 109.838 222.595 M176.000 222.595 L 176.000 282.162 193.505 282.162 L 211.010 282.162 211.085 248.919 C 211.165 213.433,211.133 214.570,212.208 209.532 C 214.646 198.103,221.714 192.428,233.508 192.433 C 244.120 192.438,250.791 198.231,253.062 209.414 C 254.147 214.754,254.121 213.871,254.209 249.135 L 254.292 282.162 272.335 282.162 L 290.378 282.162 290.377 247.405 C 290.376 207.832,290.273 204.328,288.864 196.115 C 284.903 173.026,272.035 163.169,245.838 163.157 C 229.137 163.149,216.775 168.226,211.027 177.454 C 209.481 179.935,209.514 180.071,209.514 171.027 L 209.514 163.027 192.757 163.027 L 176.000 163.027 176.000 222.595 " stroke="none" fill="#fbfbfb" fill-rule="evenodd"></path><path id="path1" d="M61.876 35.137 C 51.328 37.048,42.566 45.770,40.753 56.164 C 40.277 58.897,40.268 325.274,40.745 328.433 C 42.463 339.829,51.327 348.603,62.919 350.385 C 66.024 350.862,333.976 350.862,337.081 350.385 C 347.863 348.728,355.892 341.456,358.879 330.642 L 359.459 328.541 359.523 193.514 C 359.569 95.423,359.520 58.013,359.346 56.757 C 357.880 46.194,348.815 37.018,337.981 35.129 C 335.380 34.675,64.381 34.683,61.876 35.137 M134.657 103.680 C 140.337 104.757,145.304 108.065,148.450 112.865 C 149.035 113.757,149.589 114.520,149.680 114.560 C 150.445 114.898,152.824 116.699,154.085 117.896 C 164.462 127.746,161.738 145.150,148.829 151.472 C 139.334 156.121,127.148 152.860,121.839 144.249 C 121.138 143.111,120.677 142.668,119.145 141.661 C 100.119 129.156,112.259 99.431,134.657 103.680 M151.784 167.243 L 151.784 171.676 156.108 171.676 L 160.432 171.676 160.432 231.243 L 160.432 290.811 139.459 290.811 L 118.486 290.811 118.486 286.595 L 118.486 282.378 114.054 282.378 L 109.622 282.378 109.622 222.595 L 109.622 162.811 130.703 162.811 L 151.784 162.811 151.784 167.243 M209.514 167.243 L 209.514 171.676 212.743 171.676 L 215.972 171.676 217.770 170.387 C 226.352 164.233,239.432 161.737,254.486 163.378 C 266.817 164.723,276.639 169.630,281.613 176.932 C 282.117 177.672,283.005 178.572,283.775 179.121 C 291.069 184.332,295.789 193.156,297.718 205.189 C 299.076 213.660,299.230 219.107,299.237 258.865 L 299.243 290.811 281.081 290.811 L 262.919 290.811 262.919 286.599 L 262.919 282.387 258.541 282.329 L 254.162 282.270 254.042 248.649 C 253.910 211.574,253.959 212.809,252.388 207.135 C 251.438 203.706,250.867 202.648,249.773 202.290 C 238.111 198.472,226.354 203.193,222.475 213.252 C 219.945 219.812,220.026 218.415,219.947 257.135 L 219.879 290.811 202.264 290.811 L 184.649 290.811 184.649 286.599 L 184.649 282.387 180.270 282.329 L 175.892 282.270 175.837 222.811 C 175.806 190.108,175.827 163.230,175.884 163.081 C 175.965 162.868,179.538 162.811,192.750 162.811 L 209.514 162.811 209.514 167.243 " stroke="none" fill="#046bc3" fill-rule="evenodd"></path><path id="path2" d="M149.622 114.668 C 149.622 114.717,149.868 115.313,150.168 115.993 C 154.075 124.828,150.820 135.942,142.728 141.395 C 136.584 145.536,127.854 146.244,121.671 143.103 L 120.855 142.689 121.671 144.025 C 127.033 152.811,139.252 156.161,148.829 151.472 C 162.786 144.637,164.521 125.317,152.003 116.120 C 150.615 115.100,149.622 114.494,149.622 114.668 M151.784 227.027 L 151.784 282.378 135.135 282.378 L 118.486 282.378 118.486 286.595 L 118.486 290.811 139.459 290.811 L 160.432 290.811 160.432 231.243 L 160.432 171.676 156.108 171.676 L 151.784 171.676 151.784 227.027 M209.514 175.351 C 209.514 179.603,209.505 179.592,211.046 177.243 C 211.690 176.262,213.043 174.608,214.054 173.567 L 215.892 171.675 212.703 171.676 L 209.514 171.676 209.514 175.351 M283.508 179.837 C 285.988 183.916,288.095 190.366,289.175 197.189 C 290.278 204.148,290.245 202.801,290.322 243.946 L 290.394 282.378 276.657 282.378 L 262.919 282.378 262.919 286.595 L 262.919 290.811 281.081 290.811 L 299.243 290.811 299.237 258.865 C 299.231 226.165,299.085 216.828,298.490 211.135 C 296.870 195.633,292.737 186.245,284.705 179.821 C 282.665 178.189,282.508 178.191,283.508 179.837 M230.919 192.665 C 220.606 193.382,214.488 199.059,212.232 210.006 C 211.175 215.134,211.183 214.883,211.088 249.676 L 211.000 282.378 197.824 282.378 L 184.649 282.378 184.649 286.595 L 184.649 290.811 202.264 290.811 L 219.879 290.811 219.947 257.135 C 220.026 218.415,219.945 219.812,222.475 213.252 C 226.255 203.450,237.407 198.710,248.875 202.032 C 250.858 202.606,250.837 202.642,249.665 200.677 C 247.011 196.228,241.872 193.148,236.432 192.746 C 235.600 192.685,234.530 192.606,234.054 192.571 C 233.578 192.536,232.168 192.578,230.919 192.665 M40.453 334.512 C 40.430 343.054,40.565 344.442,41.747 347.810 C 44.668 356.130,51.282 362.231,60.067 364.707 L 62.162 365.297 200.000 365.297 L 337.838 365.297 339.933 364.707 C 348.718 362.231,355.332 356.130,358.253 347.810 C 359.437 344.435,359.571 343.057,359.540 334.512 C 359.521 329.224,359.456 327.254,359.330 328.226 C 357.880 339.434,348.674 348.603,337.081 350.385 C 333.976 350.862,66.024 350.862,62.919 350.385 C 51.430 348.619,42.524 339.883,40.763 328.649 C 40.492 326.922,40.473 327.278,40.453 334.512 " stroke="none" fill="#0c448c" fill-rule="evenodd"></path><path id="path3" d="M120.038 162.973 C 125.826 163.005,135.361 163.005,141.227 162.973 C 147.093 162.941,142.357 162.915,130.703 162.915 C 119.049 162.915,114.249 162.941,120.038 162.973 M184.394 162.973 C 189.071 163.005,196.660 163.005,201.259 162.973 C 205.859 162.940,202.032 162.914,192.757 162.914 C 183.481 162.914,179.718 162.940,184.394 162.973 M244.386 162.971 C 245.074 163.014,246.145 163.013,246.765 162.970 C 247.385 162.926,246.822 162.891,245.514 162.892 C 244.205 162.892,243.698 162.928,244.386 162.971 M231.730 192.585 C 231.997 192.637,232.435 192.637,232.703 192.585 C 232.970 192.533,232.751 192.491,232.216 192.491 C 231.681 192.491,231.462 192.533,231.730 192.585 M234.111 192.585 C 234.380 192.637,234.769 192.635,234.975 192.581 C 235.182 192.527,234.962 192.485,234.486 192.487 C 234.011 192.489,233.842 192.534,234.111 192.585 M290.212 208.865 C 290.212 209.281,290.257 209.451,290.311 209.243 C 290.366 209.035,290.366 208.695,290.311 208.486 C 290.257 208.278,290.212 208.449,290.212 208.865 M211.092 220.324 C 211.092 220.978,211.132 221.246,211.182 220.919 C 211.231 220.592,211.231 220.057,211.182 219.730 C 211.132 219.403,211.092 219.670,211.092 220.324 M254.161 252.108 L 254.162 282.270 272.270 282.272 L 290.378 282.274 272.325 282.217 L 254.272 282.160 254.216 252.053 L 254.160 221.946 254.161 252.108 M120.038 282.324 C 125.826 282.356,135.361 282.356,141.227 282.324 C 147.093 282.292,142.357 282.266,130.703 282.266 C 119.049 282.266,114.249 282.292,120.038 282.324 M184.703 282.324 C 189.549 282.357,197.478 282.357,202.324 282.324 C 207.170 282.292,203.205 282.265,193.514 282.265 C 183.822 282.265,179.857 282.292,184.703 282.324 " stroke="none" fill="#6296c3" fill-rule="evenodd"></path><path id="path4" d="M115.664 109.568 L 114.919 110.378 115.730 109.633 C 116.484 108.940,116.640 108.757,116.475 108.757 C 116.439 108.757,116.074 109.122,115.664 109.568 M109.696 124.216 C 109.697 125.168,109.735 125.530,109.780 125.021 C 109.826 124.513,109.825 123.734,109.779 123.292 C 109.732 122.849,109.695 123.265,109.696 124.216 M145.502 138.973 L 144.757 139.784 145.568 139.039 C 146.322 138.345,146.478 138.162,146.313 138.162 C 146.277 138.162,145.912 138.527,145.502 138.973 M109.728 222.595 C 109.728 255.416,109.753 268.811,109.784 252.361 C 109.814 235.911,109.814 209.057,109.784 192.685 C 109.753 176.314,109.728 189.773,109.728 222.595 M175.890 222.595 C 175.890 255.416,175.915 268.811,175.946 252.361 C 175.977 235.911,175.977 209.057,175.946 192.685 C 175.915 176.314,175.890 189.773,175.890 222.595 M250.649 163.176 C 250.857 163.230,251.197 163.230,251.405 163.176 C 251.614 163.122,251.443 163.077,251.027 163.077 C 250.611 163.077,250.441 163.122,250.649 163.176 M214.152 173.459 L 213.297 174.378 214.216 173.524 C 215.071 172.729,215.234 172.541,215.071 172.541 C 215.036 172.541,214.622 172.954,214.152 173.459 M278.477 173.459 C 279.373 174.414,279.568 174.586,279.568 174.423 C 279.568 174.389,279.105 173.927,278.541 173.396 L 277.514 172.432 278.477 173.459 M290.217 210.270 C 290.219 210.746,290.263 210.915,290.315 210.646 C 290.367 210.377,290.365 209.988,290.311 209.781 C 290.257 209.575,290.214 209.795,290.217 210.270 M254.123 220.757 C 254.123 221.530,254.163 221.846,254.210 221.459 C 254.258 221.073,254.258 220.441,254.210 220.054 C 254.163 219.668,254.123 219.984,254.123 220.757 " stroke="none" fill="#76b4dc" fill-rule="evenodd"></path></g></svg>