<svg id="svg" version="1.1" xmlns="http://www.w3.org/2000/svg" xmlns:xlink="http://www.w3.org/1999/xlink" width="100%" height="100%" viewBox="0, 0, 400,325.94099694811797"><g id="svgg"><path id="path0" d="M45.477 0.478 C 45.297 0.533,44.307 0.765,43.276 0.993 C 42.245 1.221,41.402 1.502,41.402 1.618 C 41.402 1.733,40.668 2.091,39.772 2.413 C 38.875 2.736,38.142 3.096,38.142 3.213 C 38.142 3.331,37.738 3.605,37.245 3.824 C 35.756 4.483,30.318 9.314,30.318 9.977 C 30.318 10.104,29.943 10.698,29.486 11.299 C 29.028 11.899,28.500 12.829,28.313 13.367 C 28.125 13.904,27.862 14.344,27.726 14.344 C 27.591 14.344,27.215 15.334,26.891 16.544 C 26.567 17.755,26.142 18.850,25.946 18.977 C 25.693 19.143,25.566 32.613,25.503 65.790 L 25.415 112.371 20.457 112.561 C 17.400 112.679,15.455 112.885,15.383 113.100 C 15.320 113.291,14.992 113.447,14.654 113.447 C 13.735 113.447,11.039 114.424,10.517 114.946 C 10.265 115.198,9.881 115.403,9.663 115.403 C 9.445 115.403,8.758 115.838,8.138 116.368 C 7.517 116.899,6.826 117.339,6.601 117.346 C 6.377 117.353,6.194 117.479,6.194 117.626 C 6.194 117.773,5.680 118.470,5.051 119.175 C 4.422 119.880,3.825 120.713,3.725 121.027 C 3.624 121.341,3.420 121.597,3.271 121.597 C 3.122 121.597,2.736 122.331,2.413 123.227 C 2.091 124.124,1.722 124.857,1.593 124.857 C 0.715 124.857,0.656 130.788,0.650 219.529 C 0.643 308.669,0.699 314.262,1.593 314.262 C 1.722 314.262,2.091 314.996,2.413 315.892 C 2.736 316.789,3.122 317.522,3.271 317.522 C 3.420 317.522,3.632 317.805,3.741 318.150 C 4.037 319.083,8.101 322.968,9.436 323.594 C 10.073 323.894,10.668 324.247,10.758 324.378 C 11.776 325.873,9.956 325.829,74.887 325.921 C 140.010 326.013,139.313 326.029,140.483 324.454 C 140.585 324.317,141.171 323.925,141.785 323.583 C 143.528 322.611,146.699 319.794,146.699 319.218 C 146.699 319.046,146.943 318.705,147.241 318.459 C 147.539 318.213,148.074 317.351,148.429 316.544 C 148.783 315.738,149.186 315.004,149.324 314.914 C 150.340 314.247,150.611 309.618,150.611 292.923 L 150.611 276.121 162.673 276.121 L 174.735 276.121 174.735 294.703 L 174.735 313.284 168.704 313.284 L 162.673 313.284 162.673 319.641 L 162.673 325.998 206.520 325.998 L 250.367 325.998 250.367 319.641 L 250.367 313.284 244.173 313.284 L 237.979 313.284 237.979 294.703 L 237.979 276.121 268.793 276.121 L 299.607 276.121 299.581 293.800 C 299.563 305.957,299.663 311.515,299.900 311.594 C 300.089 311.657,300.244 311.964,300.244 312.276 C 300.244 313.069,301.235 315.892,301.514 315.892 C 301.640 315.892,301.935 316.421,302.168 317.066 C 302.723 318.602,307.315 323.193,308.850 323.749 C 309.496 323.982,310.024 324.277,310.024 324.403 C 310.024 326.639,386.934 326.821,389.327 324.591 C 389.555 324.379,390.317 323.912,391.021 323.553 C 393.089 322.500,396.788 318.596,397.627 316.581 C 397.897 315.933,398.241 315.325,398.392 315.230 C 399.661 314.430,399.668 314.029,399.669 244.686 C 399.670 176.063,399.650 174.900,398.449 174.123 C 398.277 174.011,397.932 173.352,397.684 172.657 C 397.435 171.962,397.047 171.322,396.823 171.236 C 396.598 171.150,396.412 170.912,396.410 170.707 C 396.405 170.288,392.412 166.259,392.002 166.259 C 391.857 166.259,391.455 166.002,391.110 165.689 C 390.764 165.375,389.872 164.879,389.128 164.587 L 387.775 164.056 387.612 92.122 C 387.496 41.084,387.347 20.121,387.097 19.955 C 386.903 19.828,386.550 18.794,386.313 17.658 C 386.076 16.523,385.710 15.423,385.501 15.213 C 385.291 15.004,384.854 14.136,384.529 13.284 C 384.204 12.433,383.834 11.736,383.708 11.736 C 383.582 11.736,383.322 11.406,383.130 11.002 C 382.468 9.613,379.112 5.868,378.528 5.868 C 378.345 5.868,377.997 5.585,377.755 5.240 C 377.513 4.894,376.881 4.424,376.351 4.195 C 375.821 3.966,375.154 3.546,374.868 3.263 C 374.583 2.979,373.703 2.538,372.912 2.283 C 372.122 2.029,371.392 1.702,371.290 1.558 C 370.414 0.314,373.441 0.336,206.194 0.357 C 117.979 0.368,45.656 0.423,45.477 0.478 M367.840 14.169 C 370.200 15.365,372.390 17.735,373.725 20.538 L 374.735 22.657 374.820 92.981 L 374.905 163.306 344.665 163.397 L 314.425 163.488 312.143 164.441 C 306.106 166.963,302.189 171.387,300.595 177.486 C 299.953 179.943,299.919 180.921,299.919 196.802 L 299.919 213.530 225.183 213.448 L 150.448 213.366 150.276 170.823 C 150.123 133.056,150.045 128.093,149.582 126.607 C 147.570 120.155,142.508 115.427,135.884 113.811 C 133.069 113.125,132.813 113.121,85.594 113.121 L 38.133 113.121 38.219 67.563 L 38.305 22.005 39.337 20.031 C 40.934 16.977,43.248 14.834,46.192 13.682 C 47.719 13.085,51.814 13.071,206.846 13.136 L 365.933 13.203 367.840 14.169 M134.148 126.127 C 135.666 126.830,137.058 128.219,137.551 129.524 C 138.039 130.817,138.039 308.303,137.551 309.596 C 137.085 310.827,135.718 312.229,134.243 312.988 C 133.066 313.594,131.475 313.610,75.634 313.610 L 18.234 313.610 16.697 312.818 C 14.993 311.941,13.781 310.377,13.343 308.493 C 12.964 306.860,12.964 132.260,13.343 130.627 C 13.804 128.642,14.991 127.148,16.789 126.292 L 18.419 125.516 75.632 125.520 C 130.628 125.524,132.895 125.547,134.148 126.127 M384.566 176.889 C 387.403 179.181,387.112 171.793,387.208 243.997 C 387.301 314.062,387.414 309.821,385.403 311.748 C 383.364 313.701,385.094 313.610,349.628 313.610 C 314.326 313.610,316.348 313.711,314.312 311.861 C 312.128 309.876,312.306 315.845,312.306 244.588 L 312.306 180.430 312.989 179.131 C 313.365 178.417,313.988 177.566,314.375 177.241 C 316.237 175.675,314.878 175.729,350.174 175.805 L 383.314 175.876 384.566 176.889 M299.919 244.662 L 299.919 263.407 225.102 263.407 L 150.285 263.407 150.285 244.662 L 150.285 225.917 225.102 225.917 L 299.919 225.917 299.919 244.662 M200.489 244.662 L 200.489 250.693 206.520 250.693 L 212.551 250.693 212.551 244.662 L 212.551 238.631 206.520 238.631 L 200.489 238.631 200.489 244.662 M225.186 294.621 L 225.102 313.447 206.357 313.447 L 187.612 313.447 187.527 295.029 C 187.481 284.898,187.513 276.426,187.599 276.202 C 187.721 275.883,191.807 275.795,206.512 275.795 L 225.270 275.795 225.186 294.621 M63.244 294.703 L 63.244 300.904 75.550 300.819 L 87.857 300.733 87.857 294.703 L 87.857 288.672 75.550 288.586 L 63.244 288.501 63.244 294.703 M343.602 294.703 L 343.602 300.896 349.796 300.896 L 355.990 300.896 355.990 294.703 L 355.990 288.509 349.796 288.509 L 343.602 288.509 343.602 294.703 " stroke="none" fill="#1c1c1c" fill-rule="evenodd"></path><path id="path1" d="M63.244 56.724 L 63.244 75.635 94.295 75.552 L 125.346 75.469 125.346 56.724 L 125.346 37.979 94.295 37.896 L 63.244 37.813 63.244 56.724 M138.115 38.033 C 137.995 38.153,137.897 46.661,137.897 56.941 L 137.897 75.632 169.030 75.632 L 200.163 75.632 200.163 56.724 L 200.163 37.816 169.247 37.816 C 152.244 37.816,138.234 37.914,138.115 38.033 M212.701 38.223 C 212.615 38.447,212.583 46.919,212.629 57.050 L 212.714 75.469 243.847 75.469 L 274.980 75.469 275.070 57.376 C 275.119 47.425,275.080 38.953,274.982 38.549 L 274.804 37.816 243.830 37.816 C 219.352 37.816,212.824 37.901,212.701 38.223 M287.531 56.724 L 287.531 75.635 318.582 75.552 L 349.633 75.469 349.633 56.724 L 349.633 37.979 318.582 37.896 L 287.531 37.813 287.531 56.724 M63.244 100.053 C 63.244 106.673,63.169 112.285,63.077 112.524 C 62.939 112.884,68.280 112.958,94.214 112.958 L 125.517 112.958 125.432 100.570 L 125.346 88.183 94.295 88.099 L 63.244 88.016 63.244 100.053 M137.823 101.025 L 137.734 114.030 139.243 114.572 C 142.681 115.808,146.536 119.455,148.323 123.162 C 148.902 124.364,149.502 125.594,149.657 125.896 C 150.480 127.503,150.606 131.958,150.609 159.495 L 150.611 188.427 175.387 188.427 L 200.163 188.427 200.163 138.223 L 200.163 88.020 169.037 88.020 L 137.912 88.020 137.823 101.025 M212.702 88.425 C 212.616 88.650,212.584 111.206,212.630 138.549 L 212.714 188.264 243.847 188.264 L 274.980 188.264 274.980 138.223 L 274.980 88.183 243.919 88.099 C 219.242 88.033,212.826 88.100,212.702 88.425 M287.531 138.222 L 287.531 188.427 293.725 188.427 L 299.919 188.427 299.919 183.606 C 299.919 172.994,304.466 166.410,313.610 163.782 L 316.381 162.986 333.170 163.074 L 349.959 163.162 349.796 125.672 L 349.633 88.183 318.582 88.099 L 287.531 88.016 287.531 138.222 " stroke="none" fill="#f3ac5c" fill-rule="evenodd"></path><path id="path2" d="M47.759 13.366 C 47.348 13.543,47.288 13.646,47.596 13.646 C 47.865 13.646,48.378 13.520,48.737 13.366 C 49.148 13.189,49.208 13.086,48.900 13.086 C 48.631 13.086,48.117 13.212,47.759 13.366 M363.977 13.322 C 364.336 13.479,365.143 13.700,365.770 13.814 C 366.553 13.956,366.707 13.932,366.259 13.736 C 365.901 13.579,365.094 13.357,364.466 13.244 C 363.683 13.102,363.530 13.126,363.977 13.322 M368.378 14.789 C 368.378 14.878,368.818 15.265,369.356 15.648 C 369.894 16.031,370.334 16.271,370.334 16.181 C 370.334 16.092,369.894 15.705,369.356 15.322 C 368.818 14.939,368.378 14.699,368.378 14.789 M373.008 20.042 C 373.398 20.845,373.773 21.446,373.841 21.377 C 373.989 21.230,372.672 18.582,372.451 18.582 C 372.367 18.582,372.618 19.239,373.008 20.042 M374.327 93.150 L 374.246 162.991 362.103 163.081 L 349.959 163.170 362.113 163.248 C 371.593 163.308,374.301 163.236,374.421 162.918 C 374.507 162.694,374.538 131.190,374.492 92.910 L 374.408 23.309 374.327 93.150 M38.303 68.704 L 38.305 112.958 50.530 112.964 L 62.755 112.970 50.612 112.879 L 38.470 112.788 38.386 68.619 L 38.301 24.450 38.303 68.704 M127.221 113.036 C 128.252 113.101,129.939 113.101,130.970 113.036 C 132.001 112.972,131.157 112.919,129.095 112.919 C 127.033 112.919,126.190 112.972,127.221 113.036 M13.527 130.481 C 13.107 132.217,13.520 309.331,13.945 309.756 C 14.283 310.094,14.298 309.989,14.024 309.202 C 13.794 308.540,13.714 279.868,13.771 218.989 C 13.817 169.906,13.821 129.747,13.780 129.747 C 13.738 129.747,13.625 130.077,13.527 130.481 M137.732 219.723 C 137.732 268.582,137.770 288.570,137.816 264.140 C 137.862 239.711,137.862 199.735,137.816 175.306 C 137.770 150.876,137.732 170.864,137.732 219.723 M25.831 150.693 L 25.917 163.162 44.499 163.162 L 63.081 163.162 63.166 150.693 L 63.251 138.223 44.499 138.223 L 25.746 138.223 25.831 150.693 M75.709 150.693 L 75.795 163.162 100.570 163.162 L 125.346 163.162 125.432 150.693 L 125.517 138.223 100.570 138.223 L 75.624 138.223 75.709 150.693 M25.754 225.751 L 25.754 275.795 44.500 275.795 L 63.246 275.795 63.163 225.835 L 63.081 175.876 44.417 175.792 L 25.754 175.708 25.754 225.751 M75.632 225.752 L 75.632 275.795 100.572 275.795 L 125.511 275.795 125.429 225.835 L 125.346 175.876 100.489 175.793 L 75.632 175.709 75.632 225.752 M324.857 175.950 C 343.049 176.161,382.974 176.182,382.466 175.981 C 382.159 175.859,367.384 175.782,349.633 175.811 C 331.883 175.840,320.733 175.903,324.857 175.950 M386.052 179.289 C 386.410 180.012,386.753 180.603,386.814 180.603 C 387.067 180.603,386.225 178.658,385.830 178.330 C 385.591 178.132,385.689 178.555,386.052 179.289 M325.099 188.370 C 324.776 188.577,324.707 192.561,324.773 207.193 L 324.857 225.754 349.717 225.837 L 374.577 225.921 374.493 207.093 L 374.409 188.264 349.959 188.186 C 336.512 188.144,325.325 188.226,325.099 188.370 M150.433 200.815 C 150.433 207.718,150.477 210.542,150.529 207.090 C 150.582 203.639,150.582 197.991,150.529 194.540 C 150.477 191.088,150.433 193.912,150.433 200.815 M150.444 244.580 L 150.448 263.244 225.102 263.245 L 299.756 263.246 225.186 263.163 L 150.617 263.079 150.528 244.498 L 150.440 225.917 150.444 244.580 M202.119 238.203 C 207.281 238.437,212.878 238.447,212.878 238.223 C 212.877 238.089,209.980 238.008,206.438 238.043 C 202.897 238.078,200.954 238.150,202.119 238.203 M324.839 238.723 C 324.751 238.953,324.719 241.777,324.768 244.999 L 324.857 250.856 349.633 250.856 L 374.409 250.856 374.498 244.580 L 374.586 238.305 349.793 238.305 C 329.913 238.305,324.968 238.388,324.839 238.723 M200.163 251.100 C 200.163 251.235,202.942 251.345,206.338 251.345 C 209.734 251.345,212.580 251.235,212.664 251.100 C 212.747 250.966,209.968 250.856,206.489 250.856 C 203.010 250.856,200.163 250.966,200.163 251.100 M324.694 269.601 L 324.694 275.795 349.633 275.795 L 374.572 275.795 374.572 269.601 L 374.572 263.407 349.633 263.407 L 324.694 263.407 324.694 269.601 M187.928 294.703 C 187.928 305.012,187.969 309.230,188.019 304.075 C 188.070 298.920,188.070 290.485,188.019 285.330 C 187.969 280.175,187.928 284.393,187.928 294.703 M87.951 294.547 L 88.046 300.912 75.482 300.823 C 68.571 300.774,62.917 300.844,62.918 300.978 C 62.918 301.112,68.639 301.222,75.632 301.222 L 88.346 301.222 88.346 294.703 C 88.346 291.117,88.236 288.182,88.101 288.182 C 87.967 288.182,87.899 291.046,87.951 294.547 M356.064 294.471 L 355.990 300.923 349.633 300.828 C 346.136 300.776,343.276 300.844,343.276 300.978 C 343.277 301.439,355.993 301.269,356.171 300.805 C 356.259 300.575,356.288 297.605,356.235 294.203 L 356.138 288.020 356.064 294.471 M384.515 311.866 C 383.533 312.743,383.460 312.865,384.218 312.358 C 385.119 311.756,386.252 310.657,385.940 310.689 C 385.874 310.695,385.232 311.225,384.515 311.866 M134.637 312.336 C 134.096 312.778,134.041 312.889,134.474 312.665 C 135.538 312.116,136.127 311.664,135.778 311.667 C 135.599 311.668,135.086 311.969,134.637 312.336 " stroke="none" fill="#b3d3eb" fill-rule="evenodd"></path><path id="path3" d="M47.513 13.689 C 42.826 15.161,39.638 18.565,38.824 22.967 C 38.578 24.302,38.468 38.435,38.468 68.849 L 38.468 112.803 50.774 112.718 L 63.081 112.632 63.166 100.324 L 63.252 88.016 94.299 88.099 L 125.346 88.183 125.432 100.489 L 125.517 112.795 128.692 112.806 C 131.709 112.815,136.051 113.231,137.313 113.632 C 137.868 113.808,137.897 113.169,137.897 100.918 L 137.897 88.020 169.030 88.020 L 200.163 88.020 200.163 138.223 L 200.163 188.427 175.387 188.427 L 150.611 188.427 150.611 200.815 L 150.611 213.203 225.269 213.203 L 299.926 213.203 299.841 200.896 L 299.756 188.590 293.643 188.501 L 287.531 188.413 287.531 138.214 L 287.531 88.016 318.582 88.099 L 349.633 88.183 349.716 125.591 L 349.799 162.999 362.025 162.999 L 374.252 162.999 374.168 92.502 L 374.083 22.005 373.033 20.049 C 371.168 16.575,368.869 14.709,365.201 13.693 C 361.681 12.718,50.617 12.714,47.513 13.689 M125.346 56.724 L 125.346 75.469 94.295 75.552 L 63.244 75.635 63.244 56.724 L 63.244 37.813 94.295 37.896 L 125.346 37.979 125.346 56.724 M200.163 56.724 L 200.163 75.632 169.030 75.632 L 137.897 75.632 137.897 56.941 C 137.897 46.661,137.995 38.153,138.115 38.033 C 138.234 37.914,152.244 37.816,169.247 37.816 L 200.163 37.816 200.163 56.724 M274.982 38.549 C 275.080 38.953,275.119 47.425,275.070 57.376 L 274.980 75.469 243.847 75.469 L 212.714 75.469 212.629 57.050 C 212.583 46.919,212.615 38.447,212.701 38.223 C 212.824 37.901,219.352 37.816,243.830 37.816 L 274.804 37.816 274.982 38.549 M349.633 56.724 L 349.633 75.469 318.582 75.552 L 287.531 75.635 287.531 56.724 L 287.531 37.813 318.582 37.896 L 349.633 37.979 349.633 56.724 M274.980 138.223 L 274.980 188.264 243.847 188.264 L 212.714 188.264 212.630 138.549 C 212.584 111.206,212.616 88.650,212.702 88.425 C 212.826 88.100,219.242 88.033,243.919 88.099 L 274.980 88.183 274.980 138.223 M17.930 126.074 C 16.365 126.682,14.886 127.963,14.326 129.197 C 13.722 130.528,13.706 132.786,13.706 219.560 C 13.706 320.304,13.422 310.278,16.332 312.203 L 17.719 313.121 75.608 313.121 L 133.496 313.121 134.824 312.220 C 135.554 311.724,136.471 310.720,136.862 309.989 L 137.571 308.659 137.571 219.560 L 137.571 130.461 136.862 129.131 C 136.471 128.400,135.554 127.396,134.824 126.900 L 133.496 125.998 75.958 125.941 C 44.311 125.910,18.199 125.969,17.930 126.074 M63.166 150.693 L 63.081 163.162 44.499 163.162 L 25.917 163.162 25.831 150.693 L 25.746 138.223 44.499 138.223 L 63.251 138.223 63.166 150.693 M125.432 150.693 L 125.346 163.162 100.570 163.162 L 75.795 163.162 75.709 150.693 L 75.624 138.223 100.570 138.223 L 125.517 138.223 125.432 150.693 M63.163 225.835 L 63.246 275.795 44.500 275.795 L 25.754 275.795 25.754 225.751 L 25.754 175.708 44.417 175.792 L 63.081 175.876 63.163 225.835 M125.429 225.835 L 125.511 275.795 100.572 275.795 L 75.632 275.795 75.632 225.752 L 75.632 175.709 100.489 175.793 L 125.346 175.876 125.429 225.835 M315.949 176.735 C 315.105 177.154,314.188 177.974,313.667 178.775 L 312.795 180.114 312.795 244.662 L 312.795 309.209 313.585 310.376 C 314.019 311.017,314.900 311.897,315.541 312.332 L 316.707 313.121 349.809 313.121 L 382.911 313.121 384.319 312.007 C 387.222 309.708,386.960 316.393,386.960 244.502 L 386.960 180.989 386.140 179.411 C 385.688 178.542,384.782 177.465,384.126 177.017 L 382.933 176.202 350.146 176.118 L 317.359 176.033 315.949 176.735 M374.493 207.093 L 374.577 225.921 349.717 225.837 L 324.857 225.754 324.773 207.193 C 324.707 192.561,324.776 188.577,325.099 188.370 C 325.325 188.226,336.512 188.144,349.959 188.186 L 374.409 188.264 374.493 207.093 M150.611 244.498 L 150.611 263.081 225.268 263.081 L 299.924 263.081 299.840 244.580 L 299.756 226.080 225.183 225.998 L 150.611 225.915 150.611 244.498 M212.802 244.580 L 212.714 251.182 206.438 251.270 L 200.163 251.359 200.163 244.669 L 200.163 237.979 206.527 237.979 L 212.890 237.979 212.802 244.580 M374.498 244.580 L 374.409 250.856 349.633 250.856 L 324.857 250.856 324.768 244.999 C 324.719 241.777,324.751 238.953,324.839 238.723 C 324.968 238.388,329.913 238.305,349.793 238.305 L 374.586 238.305 374.498 244.580 M374.572 269.601 L 374.572 275.795 349.633 275.795 L 324.694 275.795 324.694 269.601 L 324.694 263.407 349.633 263.407 L 374.572 263.407 374.572 269.601 M188.101 294.703 L 188.101 313.284 206.520 313.284 L 224.939 313.284 224.939 294.703 L 224.939 276.121 206.520 276.121 L 188.101 276.121 188.101 294.703 M88.346 294.703 L 88.346 301.222 75.632 301.222 L 62.918 301.222 62.918 294.703 L 62.918 288.183 75.632 288.183 L 88.346 288.183 88.346 294.703 M356.242 294.621 L 356.153 301.059 349.715 301.148 L 343.276 301.236 343.276 294.709 L 343.276 288.183 349.803 288.183 L 356.330 288.183 356.242 294.621 " stroke="none" fill="#fbfbfb" fill-rule="evenodd"></path><path id="path4" d="M44.906 14.204 C 43.642 14.890,43.785 15.127,45.069 14.474 C 46.298 13.849,46.516 13.687,46.102 13.705 C 45.937 13.712,45.399 13.937,44.906 14.204 M368.704 14.733 C 370.789 16.672,372.022 17.630,370.986 16.506 C 370.359 15.825,369.552 15.114,369.193 14.925 C 368.835 14.736,368.615 14.650,368.704 14.733 M38.493 22.056 C 38.302 22.745,38.157 23.602,38.171 23.961 C 38.186 24.319,38.392 23.806,38.631 22.820 C 39.126 20.769,39.018 20.166,38.493 22.056 M374.492 93.562 C 374.446 131.932,374.519 163.325,374.654 163.325 C 374.788 163.325,374.898 131.932,374.898 93.562 C 374.898 55.192,374.825 23.798,374.737 23.798 C 374.648 23.798,374.538 55.192,374.492 93.562 M78.647 113.040 C 87.209 113.088,101.218 113.088,109.780 113.040 C 118.341 112.992,111.337 112.952,94.214 112.952 C 77.090 112.952,70.086 112.992,78.647 113.040 M134.311 113.447 C 134.760 113.591,135.420 113.708,135.778 113.708 C 136.295 113.708,136.261 113.654,135.615 113.447 C 135.167 113.304,134.507 113.186,134.148 113.186 C 133.632 113.186,133.666 113.241,134.311 113.447 M137.082 114.099 C 137.441 114.254,137.954 114.380,138.223 114.380 C 138.532 114.380,138.471 114.276,138.060 114.099 C 137.702 113.945,137.188 113.819,136.919 113.819 C 136.611 113.819,136.671 113.923,137.082 114.099 M139.853 115.094 C 140.790 115.732,142.135 116.397,142.135 116.222 C 142.135 115.978,140.090 114.753,139.690 114.758 C 139.511 114.760,139.584 114.911,139.853 115.094 M142.461 116.471 C 142.461 116.545,143.231 117.242,144.173 118.021 C 145.147 118.826,145.533 119.045,145.069 118.529 C 144.265 117.634,142.461 116.210,142.461 116.471 M146.069 119.804 C 146.070 119.984,146.445 120.570,146.903 121.108 C 147.361 121.646,147.586 121.793,147.404 121.434 C 146.909 120.460,146.068 119.432,146.069 119.804 M148.230 123.386 C 148.528 124.012,148.830 124.465,148.901 124.395 C 149.050 124.245,148.060 122.249,147.837 122.249 C 147.755 122.249,147.932 122.761,148.230 123.386 M46.862 125.754 C 62.685 125.801,88.578 125.801,104.401 125.754 C 120.224 125.707,107.278 125.669,75.632 125.669 C 43.985 125.669,31.039 125.707,46.862 125.754 M149.307 125.854 C 149.307 125.936,149.487 126.515,149.707 127.142 C 150.007 127.995,150.151 135.847,150.284 158.435 L 150.461 188.590 150.534 159.576 C 150.604 131.488,150.478 126.886,149.614 126.015 C 149.445 125.844,149.307 125.772,149.307 125.854 M135.980 127.614 C 136.449 128.160,136.995 128.900,137.192 129.258 C 137.390 129.617,137.556 129.721,137.561 129.490 C 137.567 129.259,137.021 128.519,136.349 127.846 C 135.668 127.164,135.504 127.061,135.980 127.614 M13.839 129.126 C 13.552 129.680,13.376 130.192,13.446 130.263 C 13.517 130.333,13.819 129.880,14.117 129.254 C 14.788 127.848,14.555 127.741,13.839 129.126 M13.201 219.560 C 13.201 268.150,13.238 287.979,13.284 263.625 C 13.331 239.271,13.331 199.515,13.284 175.279 C 13.238 151.044,13.201 170.970,13.201 219.560 M315.300 163.276 C 314.599 163.473,339.330 163.435,346.699 163.228 C 348.492 163.178,342.331 163.120,333.007 163.100 C 323.684 163.080,315.715 163.160,315.300 163.276 M311.980 164.213 C 311.711 164.314,311.141 164.527,310.713 164.685 C 310.284 164.844,310.006 165.046,310.095 165.134 C 310.183 165.222,310.900 165.009,311.688 164.659 C 312.977 164.087,313.194 163.756,311.980 164.213 M308.512 165.908 C 307.948 166.251,307.381 166.704,307.252 166.914 C 307.122 167.124,307.619 166.896,308.357 166.408 C 309.518 165.640,309.923 165.278,309.617 165.282 C 309.572 165.283,309.075 165.565,308.512 165.908 M304.652 169.272 C 302.700 171.429,300.678 175.119,300.409 177.017 C 300.291 177.849,300.409 177.672,300.844 176.365 C 301.682 173.851,303.192 171.303,305.146 169.112 C 306.065 168.081,306.744 167.237,306.655 167.237 C 306.566 167.237,305.664 168.153,304.652 169.272 M384.352 176.793 C 384.352 176.849,384.829 177.326,385.412 177.853 L 386.471 178.810 385.514 177.751 C 384.621 176.763,384.352 176.541,384.352 176.793 M312.624 179.809 C 312.250 180.794,312.182 308.673,312.556 309.260 C 312.688 309.467,312.757 280.640,312.711 245.201 C 312.658 204.790,312.743 180.432,312.939 179.870 C 313.333 178.737,313.052 178.683,312.624 179.809 M387.120 244.662 C 387.120 279.804,387.158 294.133,387.205 276.502 C 387.251 258.872,387.251 230.119,387.205 212.606 C 387.158 195.094,387.120 209.519,387.120 244.662 M187.857 213.447 C 208.431 213.494,242.099 213.494,262.673 213.447 C 283.248 213.401,266.414 213.363,225.265 213.363 C 184.116 213.363,167.282 213.401,187.857 213.447 M200.237 244.573 L 200.326 250.856 206.520 250.856 L 212.714 250.856 212.714 244.662 L 212.714 238.468 206.431 238.379 L 200.149 238.291 200.237 244.573 M212.551 244.662 L 212.551 250.693 206.520 250.693 L 200.489 250.693 200.489 244.662 L 200.489 238.631 206.520 238.631 L 212.551 238.631 212.551 244.662 M187.599 276.202 C 187.513 276.426,187.481 284.898,187.527 295.029 L 187.612 313.447 206.357 313.447 L 225.102 313.447 225.186 294.621 L 225.270 275.795 206.512 275.795 C 191.807 275.795,187.721 275.883,187.599 276.202 M224.939 294.703 L 224.939 313.284 206.357 313.284 L 187.775 313.284 187.775 294.703 L 187.775 276.121 206.357 276.121 L 224.939 276.121 224.939 294.703 M67.482 288.416 C 78.656 288.644,87.944 288.650,87.807 288.427 C 87.723 288.293,82.126 288.215,75.368 288.254 C 68.610 288.293,65.061 288.366,67.482 288.416 M346.618 288.426 C 348.366 288.484,351.227 288.484,352.975 288.426 C 354.723 288.367,353.293 288.319,349.796 288.319 C 346.300 288.319,344.870 288.367,346.618 288.426 M63.053 294.703 C 63.053 298.020,63.101 299.377,63.161 297.718 C 63.220 296.059,63.220 293.346,63.161 291.687 C 63.101 290.029,63.053 291.385,63.053 294.703 M343.412 294.703 C 343.412 298.020,343.460 299.377,343.519 297.718 C 343.578 296.059,343.578 293.346,343.519 291.687 C 343.460 290.029,343.412 291.385,343.412 294.703 M136.592 310.758 C 136.112 311.414,136.034 311.641,136.386 311.355 C 136.920 310.921,137.729 309.698,137.481 309.698 C 137.419 309.698,137.019 310.175,136.592 310.758 M386.147 310.343 C 386.035 310.697,385.402 311.446,384.740 312.007 C 384.078 312.567,383.851 312.867,384.235 312.674 C 385.009 312.283,386.634 310.471,386.634 309.999 C 386.634 309.479,386.360 309.672,386.147 310.343 M313.284 310.778 C 313.284 310.835,313.761 311.311,314.344 311.838 L 315.403 312.795 314.446 311.736 C 313.553 310.748,313.284 310.527,313.284 310.778 M17.717 313.361 C 17.924 313.493,43.985 313.600,75.632 313.600 C 107.278 313.600,133.340 313.493,133.547 313.361 C 133.754 313.229,107.692 313.121,75.632 313.121 C 43.571 313.121,17.510 313.229,17.717 313.361 M316.657 313.361 C 316.864 313.493,331.777 313.568,349.796 313.529 C 367.816 313.490,378.378 313.419,373.268 313.372 C 349.483 313.152,316.318 313.145,316.657 313.361 " stroke="none" fill="#88673d" fill-rule="evenodd"></path></g></svg>