<svg id="svg" version="1.1" xmlns="http://www.w3.org/2000/svg" xmlns:xlink="http://www.w3.org/1999/xlink" width="80" height="80" viewBox="0, 0, 400,400"><g id="svgg"><path id="path0" d="M261.917 12.256 C 261.275 12.376,260.000 12.601,259.083 12.757 C 258.167 12.913,255.392 13.441,252.917 13.932 C 250.442 14.422,247.854 14.901,247.167 14.996 C 246.479 15.090,243.254 15.684,240.000 16.315 C 236.746 16.946,233.408 17.571,232.583 17.703 C 231.758 17.835,228.683 18.404,225.750 18.968 C 222.817 19.532,219.704 20.116,218.833 20.266 C 217.963 20.415,215.024 20.979,212.303 21.519 C 209.582 22.058,207.182 22.499,206.970 22.497 C 206.757 22.496,205.365 22.736,203.875 23.031 L 201.167 23.568 197.181 23.106 C 194.988 22.851,192.269 22.576,191.138 22.494 C 190.008 22.412,187.433 22.154,185.417 21.920 C 174.917 20.700,173.220 20.507,170.917 20.272 C 169.542 20.132,167.554 19.941,166.500 19.848 C 165.446 19.755,160.983 19.262,156.583 18.752 C 152.183 18.241,147.796 17.752,146.833 17.663 C 142.358 17.253,140.885 17.099,135.667 16.495 C 119.759 14.652,121.730 14.657,120.498 16.459 C 119.981 17.215,119.402 18.002,119.212 18.209 C 119.022 18.415,118.510 19.108,118.076 19.750 C 117.641 20.392,117.127 21.120,116.934 21.370 C 116.741 21.619,116.374 22.106,116.118 22.453 C 115.863 22.800,115.000 23.967,114.202 25.046 C 113.403 26.126,112.263 27.687,111.667 28.515 C 111.071 29.343,110.205 30.522,109.742 31.135 C 109.280 31.748,108.643 32.617,108.326 33.066 C 108.009 33.515,107.546 34.153,107.296 34.483 C 106.805 35.132,106.067 36.163,105.667 36.759 C 105.430 37.111,103.492 39.728,103.204 40.083 C 103.130 40.175,102.838 40.587,102.554 41.000 C 101.751 42.169,101.537 42.297,100.081 42.480 C 98.926 42.626,94.101 43.540,88.583 44.659 C 87.667 44.845,86.722 44.998,86.484 44.998 C 86.246 44.999,83.396 45.528,80.151 46.174 C 76.905 46.820,73.735 47.414,73.105 47.495 C 72.475 47.575,71.893 47.707,71.812 47.788 C 71.653 47.947,70.429 51.262,70.072 52.500 C 69.953 52.913,69.620 53.850,69.331 54.583 C 69.043 55.317,68.409 57.079,67.922 58.500 C 67.435 59.921,66.869 61.533,66.665 62.083 C 66.461 62.633,65.787 64.546,65.168 66.333 C 64.548 68.121,63.728 70.446,63.344 71.500 C 62.961 72.554,62.586 73.642,62.512 73.917 C 62.381 74.401,61.954 75.567,61.658 76.250 C 61.579 76.433,61.200 77.521,60.816 78.667 C 60.432 79.813,59.896 81.350,59.624 82.083 C 59.353 82.817,59.044 83.693,58.937 84.031 C 58.831 84.368,58.689 84.700,58.622 84.767 C 58.555 84.834,58.500 85.006,58.500 85.150 C 58.500 85.293,58.357 85.787,58.183 86.247 C 58.008 86.707,57.630 87.758,57.342 88.583 C 57.055 89.408,56.566 90.758,56.256 91.583 C 55.947 92.408,55.503 93.683,55.271 94.417 C 55.040 95.150,54.650 96.275,54.405 96.917 C 54.160 97.558,53.563 99.246,53.078 100.667 C 52.592 102.087,51.958 103.888,51.668 104.667 C 51.379 105.446,50.771 107.194,50.318 108.551 C 49.864 109.908,49.352 111.333,49.180 111.717 C 49.008 112.102,48.827 112.567,48.778 112.750 C 48.172 115.030,46.830 117.580,45.665 118.667 C 45.616 118.712,45.258 119.244,44.870 119.848 C 44.481 120.451,43.977 121.120,43.748 121.335 C 43.520 121.549,43.333 121.784,43.333 121.857 C 43.333 121.929,42.674 122.872,41.868 123.953 C 40.424 125.887,39.928 126.564,37.706 129.635 C 37.089 130.488,36.376 131.463,36.124 131.801 C 35.871 132.140,35.441 132.737,35.169 133.129 C 34.896 133.520,34.596 133.933,34.501 134.045 C 34.406 134.158,33.842 134.925,33.247 135.750 C 32.652 136.575,31.922 137.539,31.624 137.893 C 31.327 138.247,31.046 138.622,31.000 138.727 C 30.886 138.986,30.293 139.875,30.085 140.097 C 29.993 140.197,29.787 140.459,29.628 140.681 C 29.470 140.902,28.451 142.283,27.366 143.750 C 26.280 145.217,25.248 146.642,25.072 146.917 C 24.896 147.192,24.359 147.942,23.879 148.583 C 23.399 149.225,22.782 150.050,22.508 150.417 C 21.958 151.153,20.215 153.549,19.829 154.101 C 19.412 154.697,18.022 156.572,17.840 156.785 C 17.744 156.895,17.667 157.031,17.667 157.085 C 17.667 157.140,17.442 157.424,17.167 157.717 C 16.893 158.010,16.668 158.301,16.667 158.363 C 16.667 158.425,16.569 158.575,16.450 158.696 C 16.331 158.818,15.979 159.292,15.668 159.750 C 15.356 160.208,14.647 161.170,14.092 161.886 C 13.537 162.603,12.936 163.428,12.756 163.720 C 12.576 164.011,12.351 164.334,12.256 164.437 C 12.161 164.539,11.671 165.209,11.167 165.924 C 10.662 166.639,9.946 167.605,9.574 168.070 C 9.203 168.536,8.490 169.508,7.991 170.230 C 7.492 170.953,6.980 171.685,6.853 171.857 C 6.621 172.174,7.366 174.206,9.045 177.833 C 10.065 180.036,10.667 181.418,10.667 181.555 C 10.667 181.604,11.012 182.380,11.434 183.280 C 12.805 186.201,13.333 187.394,13.333 187.564 C 13.333 187.617,13.627 188.280,13.987 189.038 C 14.346 189.796,15.162 191.617,15.801 193.083 C 16.440 194.550,17.079 195.975,17.221 196.250 C 18.029 197.805,18.369 198.959,18.189 199.524 C 17.699 201.052,17.301 202.211,16.825 203.500 C 16.537 204.279,15.931 206.004,15.478 207.333 C 15.025 208.662,14.515 210.125,14.343 210.583 C 13.981 211.551,13.873 211.884,13.883 212.000 C 13.887 212.046,13.787 212.271,13.661 212.500 C 13.536 212.729,13.419 212.992,13.402 213.083 C 13.318 213.538,12.763 215.109,12.621 215.292 C 12.532 215.406,12.501 215.500,12.551 215.500 C 12.602 215.500,12.414 216.119,12.135 216.875 C 11.117 219.626,10.816 220.477,7.990 228.583 C 6.940 231.594,6.922 231.408,8.458 233.198 C 10.436 235.502,11.319 236.543,12.494 237.955 C 13.086 238.667,13.858 239.556,14.208 239.930 C 14.559 240.304,14.970 240.792,15.122 241.013 C 15.274 241.235,15.516 241.529,15.659 241.667 C 15.803 241.804,16.332 242.403,16.835 242.998 C 17.338 243.593,17.947 244.306,18.187 244.582 C 18.427 244.858,19.549 246.171,20.679 247.500 C 21.810 248.829,22.778 249.954,22.831 250.000 C 22.885 250.046,23.100 250.308,23.311 250.583 C 23.522 250.858,23.969 251.380,24.305 251.743 C 24.642 252.106,25.260 252.830,25.679 253.352 C 26.098 253.875,26.678 254.553,26.968 254.860 C 27.258 255.166,28.030 256.054,28.684 256.833 C 29.338 257.612,30.296 258.734,30.812 259.326 C 31.328 259.918,32.377 261.156,33.143 262.076 C 33.909 262.997,34.622 263.825,34.727 263.917 C 34.832 264.008,35.248 264.496,35.652 265.000 C 36.056 265.504,36.506 266.029,36.652 266.167 C 36.797 266.304,37.252 266.829,37.662 267.333 C 38.605 268.492,38.996 268.950,39.424 269.395 C 39.611 269.590,40.061 270.118,40.424 270.568 C 40.787 271.018,41.300 271.618,41.564 271.902 C 41.829 272.185,42.316 272.754,42.648 273.167 C 42.979 273.579,43.289 273.954,43.336 274.000 C 43.406 274.068,44.932 275.840,45.583 276.610 C 45.872 276.952,47.239 278.526,47.500 278.819 C 47.637 278.973,48.119 279.545,48.571 280.091 C 49.022 280.637,49.472 281.158,49.571 281.250 C 49.669 281.342,50.119 281.867,50.571 282.417 C 51.022 282.967,51.472 283.492,51.571 283.583 C 51.761 283.760,52.330 284.428,53.417 285.750 C 53.783 286.196,54.238 286.716,54.428 286.906 C 54.617 287.095,55.104 287.662,55.509 288.167 C 55.914 288.671,56.286 289.121,56.335 289.167 C 56.385 289.212,56.836 289.737,57.338 290.332 C 57.839 290.928,58.653 291.865,59.147 292.416 C 59.640 292.966,60.192 293.754,60.374 294.167 C 60.556 294.579,60.928 295.404,61.200 296.000 C 61.472 296.596,62.033 297.871,62.448 298.833 C 63.117 300.390,63.376 300.978,64.246 302.917 C 65.153 304.940,65.549 305.859,65.574 306.000 C 65.583 306.046,65.745 306.421,65.935 306.833 C 66.906 308.940,67.727 310.778,68.503 312.583 C 68.977 313.683,69.458 314.771,69.573 315.000 C 69.817 315.484,69.838 315.532,71.752 319.917 C 72.552 321.750,73.322 323.512,73.462 323.833 C 73.602 324.154,73.996 325.017,74.336 325.750 C 74.676 326.483,75.013 327.271,75.084 327.500 C 75.156 327.729,75.566 328.667,75.996 329.583 C 76.879 331.468,77.625 333.153,78.172 334.500 C 78.510 335.334,78.899 336.198,80.113 338.813 C 80.342 339.305,80.626 339.980,80.744 340.313 C 80.863 340.645,81.262 341.554,81.632 342.333 C 82.002 343.113,82.791 344.875,83.385 346.250 C 85.002 349.988,85.174 350.347,85.387 350.423 C 85.495 350.462,87.571 350.721,90.000 351.000 C 92.429 351.278,95.729 351.662,97.333 351.852 C 98.938 352.042,100.662 352.223,101.167 352.253 C 102.955 352.360,104.458 352.506,107.815 352.895 L 111.213 353.289 111.947 354.089 C 112.350 354.528,112.735 354.985,112.801 355.104 C 112.868 355.222,113.446 355.896,114.086 356.602 C 114.726 357.308,115.359 358.042,115.492 358.234 C 115.626 358.426,116.048 358.921,116.431 359.333 C 116.813 359.746,117.523 360.571,118.009 361.167 C 118.494 361.762,119.022 362.379,119.183 362.537 C 119.344 362.695,119.687 363.105,119.946 363.448 C 120.205 363.791,120.529 364.193,120.667 364.340 C 121.268 364.983,122.142 365.988,122.909 366.916 C 123.364 367.466,123.820 367.992,123.921 368.083 C 124.023 368.175,124.433 368.662,124.833 369.167 C 125.234 369.671,125.641 370.158,125.739 370.250 C 125.901 370.402,127.299 372.014,128.333 373.241 C 128.563 373.513,129.054 374.076,129.425 374.493 C 129.796 374.909,130.312 375.512,130.572 375.833 C 130.832 376.154,131.439 376.867,131.921 377.417 C 132.403 377.967,133.019 378.673,133.290 378.987 L 133.783 379.558 139.433 378.444 C 142.541 377.831,145.246 377.331,145.444 377.332 C 145.643 377.333,148.643 376.771,152.111 376.083 C 155.579 375.396,158.597 374.833,158.817 374.833 C 159.178 374.833,168.394 373.061,170.139 372.656 C 170.536 372.564,171.431 372.416,172.128 372.328 C 172.825 372.239,176.050 371.642,179.296 371.000 C 182.542 370.358,185.361 369.833,185.562 369.833 C 185.762 369.833,188.774 369.271,192.255 368.584 C 195.735 367.898,198.756 367.335,198.966 367.334 C 199.177 367.334,202.215 366.777,205.716 366.097 C 213.675 364.552,214.039 364.499,215.538 364.669 C 216.204 364.745,217.402 364.849,218.200 364.901 C 219.494 364.986,223.424 365.425,234.750 366.750 C 236.675 366.975,239.262 367.236,240.500 367.329 C 241.737 367.423,244.025 367.647,245.583 367.828 C 247.142 368.008,251.379 368.500,255.000 368.919 C 258.621 369.339,262.521 369.751,263.667 369.834 C 264.813 369.917,266.987 370.133,268.500 370.313 C 270.012 370.494,273.006 370.846,275.152 371.094 L 279.055 371.545 279.402 371.070 C 279.594 370.809,279.825 370.466,279.917 370.306 C 280.008 370.147,280.533 369.423,281.083 368.696 C 281.633 367.970,282.208 367.198,282.361 366.980 C 282.514 366.762,283.077 365.983,283.612 365.250 C 284.148 364.517,284.698 363.756,284.835 363.560 C 284.972 363.364,285.502 362.651,286.015 361.977 C 286.527 361.302,287.183 360.399,287.472 359.971 C 287.762 359.542,288.096 359.092,288.214 358.971 C 288.333 358.849,288.826 358.188,289.309 357.500 C 289.793 356.813,290.557 355.762,291.007 355.167 C 291.458 354.571,292.081 353.703,292.392 353.238 C 292.703 352.774,293.180 352.136,293.453 351.822 C 293.725 351.507,294.229 350.838,294.572 350.335 L 295.196 349.420 299.556 348.545 C 301.955 348.065,304.687 347.556,305.629 347.415 C 306.571 347.275,309.981 346.636,313.208 345.996 C 316.436 345.357,319.228 344.835,319.413 344.838 C 319.598 344.840,321.005 344.599,322.538 344.302 L 325.326 343.762 325.565 343.089 C 325.696 342.719,326.041 341.779,326.332 341.000 C 326.623 340.221,327.035 339.021,327.247 338.333 C 327.460 337.646,327.726 336.858,327.839 336.583 C 328.222 335.655,329.021 333.422,329.240 332.667 C 329.360 332.254,330.000 330.454,330.663 328.667 C 331.325 326.879,332.013 324.929,332.192 324.333 C 332.370 323.737,332.583 323.100,332.665 322.917 C 332.747 322.733,333.014 322.021,333.259 321.333 C 334.121 318.903,335.885 313.879,336.916 310.917 C 337.890 308.115,338.333 306.892,338.669 306.083 C 338.746 305.900,339.048 305.000,339.341 304.083 C 339.634 303.167,339.971 302.192,340.090 301.917 C 340.210 301.642,340.361 301.192,340.427 300.917 C 340.492 300.642,340.600 300.342,340.666 300.250 C 340.800 300.065,342.329 295.621,342.418 295.159 C 342.449 294.998,342.585 294.652,342.719 294.391 C 342.853 294.130,343.042 293.654,343.138 293.333 C 343.234 293.012,343.438 292.412,343.591 292.000 C 343.744 291.587,344.342 289.900,344.921 288.250 C 345.499 286.600,346.284 284.387,346.665 283.333 C 347.046 282.279,347.385 281.285,347.419 281.124 C 347.453 280.964,347.527 280.758,347.583 280.667 C 347.640 280.576,347.716 280.370,347.754 280.209 C 348.054 278.923,349.605 275.166,350.165 274.369 C 351.568 272.371,352.280 271.384,353.003 270.437 C 353.759 269.446,354.324 268.673,354.707 268.105 C 354.822 267.934,355.260 267.334,355.680 266.772 C 356.100 266.210,356.908 265.112,357.475 264.333 C 358.042 263.554,358.589 262.817,358.689 262.694 C 358.790 262.572,359.554 261.522,360.386 260.361 C 361.218 259.200,361.964 258.175,362.043 258.083 C 362.122 257.992,362.314 257.718,362.469 257.474 C 362.623 257.231,363.168 256.481,363.679 255.808 C 364.515 254.705,365.830 252.927,367.544 250.583 C 367.879 250.125,368.775 248.904,369.535 247.870 C 370.816 246.127,371.314 245.441,371.923 244.583 C 372.157 244.253,374.368 241.217,375.332 239.902 C 375.607 239.527,375.963 239.057,376.124 238.859 C 376.285 238.660,376.679 238.116,377.000 237.650 C 377.321 237.184,377.808 236.514,378.083 236.162 C 378.358 235.809,378.883 235.102,379.250 234.590 C 379.617 234.078,380.372 233.042,380.928 232.288 C 381.484 231.534,382.212 230.542,382.546 230.083 C 382.880 229.625,383.663 228.551,384.285 227.697 C 384.907 226.842,385.813 225.605,386.297 224.947 C 386.781 224.288,387.435 223.363,387.751 222.890 C 388.066 222.418,388.387 222.005,388.465 221.974 C 388.543 221.942,388.934 221.429,389.335 220.833 C 389.736 220.237,390.350 219.375,390.700 218.917 C 391.955 217.272,392.219 216.918,392.500 216.500 C 392.719 216.174,392.952 215.855,393.966 214.495 C 394.150 214.248,394.084 213.996,393.515 212.782 C 393.148 211.999,392.653 210.885,392.414 210.305 C 392.175 209.725,391.863 208.987,391.720 208.667 C 391.032 207.116,390.468 205.889,390.323 205.624 C 390.234 205.462,389.942 204.777,389.673 204.100 C 389.404 203.423,388.838 202.130,388.416 201.226 C 387.993 200.323,387.585 199.433,387.509 199.250 C 386.940 197.879,386.370 196.566,385.883 195.500 C 385.568 194.813,385.249 194.100,385.174 193.917 C 385.098 193.733,384.439 192.233,383.709 190.583 C 382.978 188.933,382.142 187.018,381.850 186.328 L 381.320 185.072 382.004 183.161 C 382.380 182.110,382.727 181.100,382.776 180.917 C 382.824 180.733,382.892 180.489,382.927 180.373 C 382.962 180.258,382.991 180.126,382.992 180.080 C 382.993 180.034,383.098 179.791,383.227 179.540 C 383.355 179.289,383.768 178.183,384.145 177.083 C 384.522 175.983,385.176 174.108,385.599 172.917 C 387.097 168.691,388.156 165.678,389.302 162.385 C 390.235 159.703,390.248 159.841,388.915 158.417 C 388.572 158.050,387.947 157.337,387.525 156.833 C 387.104 156.329,386.494 155.612,386.171 155.239 C 385.055 153.952,383.877 152.581,383.173 151.750 C 381.951 150.309,381.786 150.115,380.617 148.750 C 377.974 145.663,377.020 144.553,375.910 143.271 C 375.265 142.526,374.565 141.692,374.355 141.417 C 374.145 141.142,373.660 140.579,373.278 140.167 C 372.895 139.754,372.045 138.779,371.388 138.000 C 370.731 137.221,370.055 136.433,369.885 136.250 C 369.463 135.795,367.207 133.128,366.543 132.299 C 366.246 131.928,365.746 131.353,365.432 131.021 C 364.868 130.424,363.693 129.054,362.440 127.532 C 362.086 127.102,361.397 126.300,360.909 125.750 C 360.421 125.200,359.810 124.487,359.553 124.167 C 359.295 123.846,358.847 123.321,358.557 123.000 C 358.267 122.679,357.742 122.067,357.390 121.639 C 356.192 120.183,351.101 114.254,350.116 113.167 C 349.077 112.020,348.272 110.515,346.907 107.167 C 346.664 106.571,346.202 105.521,345.880 104.833 C 345.254 103.496,345.115 103.182,344.403 101.500 C 344.151 100.904,343.665 99.817,343.323 99.083 C 342.982 98.350,342.387 97.000,342.001 96.083 C 341.615 95.167,341.055 93.892,340.757 93.250 C 340.458 92.608,340.041 91.671,339.829 91.167 C 339.618 90.662,339.223 89.763,338.951 89.167 C 338.081 87.253,337.333 85.532,337.333 85.441 C 337.333 85.392,337.042 84.730,336.685 83.968 C 335.350 81.114,334.963 80.250,334.490 79.059 C 334.223 78.386,333.935 77.704,333.849 77.543 C 333.388 76.675,332.888 75.569,332.248 74.001 C 331.854 73.038,331.150 71.445,330.683 70.460 C 330.216 69.476,329.833 68.631,329.833 68.582 C 329.833 68.507,328.996 66.590,327.542 63.333 C 327.358 62.921,326.812 61.683,326.329 60.583 C 325.846 59.483,325.398 58.508,325.333 58.417 C 325.268 58.325,325.136 58.015,325.040 57.728 C 324.857 57.184,322.223 51.174,321.214 49.000 C 320.895 48.313,320.270 46.887,319.825 45.833 C 319.380 44.779,318.779 43.429,318.488 42.833 C 318.198 42.237,317.636 40.957,317.238 39.988 C 316.841 39.019,316.325 37.846,316.091 37.381 C 315.858 36.915,315.667 36.450,315.667 36.347 C 315.667 36.007,314.970 35.883,310.583 35.436 C 302.082 34.570,296.381 33.940,288.417 32.989 C 286.858 32.802,284.533 32.580,283.250 32.494 L 280.917 32.339 280.435 31.794 C 279.691 30.953,279.162 30.340,278.168 29.165 C 277.664 28.570,277.214 28.046,277.168 28.000 C 277.121 27.954,276.710 27.467,276.254 26.917 C 275.797 26.367,275.381 25.879,275.327 25.833 C 275.274 25.787,274.791 25.225,274.254 24.583 C 273.717 23.942,273.231 23.379,273.173 23.333 C 273.116 23.287,272.512 22.575,271.831 21.750 C 271.151 20.925,270.505 20.175,270.397 20.083 C 270.289 19.992,269.870 19.504,269.465 19.000 C 269.060 18.496,268.519 17.858,268.262 17.583 C 268.004 17.308,267.522 16.746,267.189 16.333 C 266.856 15.921,266.503 15.508,266.404 15.417 C 266.306 15.325,265.859 14.800,265.413 14.250 C 264.245 12.812,263.458 11.997,263.258 12.019 C 263.162 12.029,262.558 12.135,261.917 12.256 M262.444 17.958 C 262.886 18.485,263.773 19.521,264.416 20.259 C 265.802 21.852,267.075 23.331,267.852 24.250 C 268.162 24.617,268.454 24.954,268.501 25.000 C 268.616 25.113,270.203 26.988,270.598 27.478 C 270.773 27.695,271.225 28.220,271.602 28.645 C 271.979 29.069,272.680 29.891,273.160 30.471 L 274.033 31.525 273.308 31.423 C 272.070 31.248,267.076 30.692,263.500 30.331 C 261.621 30.142,255.396 29.460,249.667 28.817 C 243.938 28.173,238.275 27.574,237.083 27.485 C 235.892 27.396,230.867 26.852,225.917 26.277 L 216.917 25.230 218.250 25.003 C 218.983 24.879,219.696 24.757,219.833 24.732 C 219.971 24.708,220.421 24.641,220.833 24.583 C 221.246 24.525,223.871 24.026,226.667 23.474 C 229.463 22.923,232.463 22.363,233.333 22.230 C 234.204 22.098,237.242 21.533,240.083 20.976 C 242.925 20.419,245.550 19.934,245.917 19.898 C 246.283 19.862,249.433 19.278,252.917 18.600 C 259.463 17.325,260.886 17.059,261.362 17.022 C 261.515 17.010,262.002 17.431,262.444 17.958 M132.000 20.674 C 135.162 21.039,138.462 21.415,139.333 21.509 C 140.204 21.604,141.179 21.715,141.500 21.757 C 142.293 21.859,144.974 22.127,146.500 22.255 C 147.188 22.313,150.037 22.618,152.833 22.933 C 165.035 24.309,168.148 24.652,169.167 24.733 C 170.949 24.874,172.070 24.989,175.917 25.427 C 181.899 26.109,185.230 26.507,185.270 26.548 C 185.305 26.583,181.420 27.294,179.000 27.695 C 178.404 27.794,175.503 28.353,172.552 28.937 C 169.602 29.522,166.997 30.000,166.764 30.000 C 166.531 30.000,163.522 30.563,160.078 31.250 C 156.633 31.938,153.638 32.500,153.422 32.500 C 153.206 32.500,150.378 33.027,147.139 33.672 C 143.900 34.316,140.688 34.917,140.000 35.006 C 139.313 35.096,136.118 35.693,132.901 36.334 C 129.684 36.975,126.867 37.500,126.641 37.500 C 126.415 37.500,123.397 38.062,119.933 38.750 C 116.470 39.437,113.470 40.000,113.267 40.000 C 113.064 40.000,111.934 40.188,110.756 40.419 C 108.387 40.882,108.253 40.868,108.891 40.230 C 109.134 39.987,109.333 39.738,109.333 39.676 C 109.333 39.615,109.765 38.991,110.292 38.290 C 110.819 37.590,111.513 36.638,111.833 36.176 C 112.154 35.714,112.761 34.896,113.181 34.358 C 113.601 33.820,114.181 33.030,114.469 32.603 C 114.758 32.176,115.074 31.734,115.172 31.621 C 115.270 31.509,116.105 30.367,117.027 29.083 C 117.949 27.800,118.883 26.558,119.102 26.324 C 119.321 26.090,119.500 25.827,119.500 25.739 C 119.500 25.651,119.761 25.281,120.080 24.915 C 120.399 24.549,120.662 24.199,120.663 24.137 C 120.665 24.075,120.763 23.925,120.881 23.804 C 121.103 23.574,122.837 21.193,123.417 20.321 C 123.823 19.710,123.562 19.699,132.000 20.674 M205.417 28.669 C 207.067 28.853,208.717 29.040,209.083 29.084 C 210.409 29.242,214.445 29.648,215.667 29.746 C 216.354 29.802,218.529 30.031,220.500 30.256 C 222.471 30.480,226.371 30.925,229.167 31.245 C 236.040 32.029,237.022 32.134,238.667 32.255 C 239.446 32.312,241.321 32.502,242.833 32.676 C 253.883 33.947,260.119 34.626,264.167 35.001 C 265.221 35.098,268.844 35.496,272.218 35.885 L 278.352 36.591 279.041 37.337 C 279.420 37.748,280.041 38.464,280.420 38.930 C 280.799 39.395,281.254 39.927,281.430 40.111 C 281.606 40.295,282.050 40.812,282.417 41.260 C 282.783 41.708,283.389 42.414,283.763 42.829 C 284.136 43.244,284.841 44.071,285.328 44.667 C 285.815 45.262,286.265 45.788,286.327 45.833 C 286.388 45.879,287.102 46.704,287.913 47.667 C 288.723 48.629,289.509 49.529,289.660 49.667 C 289.811 49.804,290.155 50.217,290.424 50.583 C 290.694 50.950,291.225 51.587,291.604 52.000 C 291.983 52.413,292.693 53.237,293.182 53.833 C 293.670 54.429,294.163 54.992,294.276 55.083 C 294.389 55.175,294.843 55.700,295.284 56.250 C 295.726 56.800,296.411 57.601,296.808 58.029 C 297.204 58.457,297.530 58.870,297.533 58.946 C 297.536 59.021,297.736 59.274,297.977 59.507 C 298.371 59.887,299.989 61.740,300.417 62.300 C 300.508 62.420,300.771 62.724,301.000 62.976 C 301.229 63.227,301.717 63.798,302.083 64.244 C 302.757 65.063,303.869 66.337,304.340 66.828 C 304.481 66.976,305.014 67.618,305.525 68.257 C 306.036 68.895,306.641 69.604,306.870 69.833 C 307.098 70.063,307.645 70.700,308.085 71.250 C 308.525 71.800,309.013 72.374,309.168 72.525 C 309.323 72.677,309.743 73.161,310.100 73.601 C 310.458 74.041,311.022 74.705,311.354 75.076 C 312.181 75.999,314.855 79.114,316.139 80.651 C 316.720 81.346,317.253 81.953,317.323 81.999 C 317.393 82.045,317.811 82.533,318.252 83.083 C 318.693 83.633,319.360 84.423,319.735 84.839 C 320.110 85.254,320.717 85.962,321.083 86.412 C 321.450 86.861,321.871 87.346,322.020 87.489 C 322.168 87.633,322.651 88.200,323.093 88.750 C 323.535 89.300,323.986 89.825,324.094 89.917 C 324.202 90.008,324.650 90.533,325.089 91.083 C 325.529 91.633,325.975 92.158,326.082 92.250 C 326.188 92.342,327.092 93.392,328.090 94.583 C 329.088 95.775,329.947 96.787,329.998 96.833 C 330.049 96.879,330.461 97.367,330.914 97.917 C 331.367 98.467,331.977 99.179,332.270 99.500 C 332.563 99.821,333.278 100.648,333.859 101.338 C 336.168 104.077,336.746 104.753,336.847 104.833 C 336.905 104.879,337.353 105.404,337.843 106.000 C 338.333 106.596,338.973 107.346,339.265 107.667 C 339.875 108.338,340.954 109.590,341.917 110.744 C 342.283 111.184,342.822 111.815,343.113 112.147 C 344.127 113.301,344.959 114.361,345.132 114.721 C 345.227 114.920,345.550 115.646,345.848 116.333 C 346.146 117.021,346.677 118.186,347.028 118.923 C 347.379 119.659,347.667 120.315,347.667 120.380 C 347.667 120.500,348.806 123.101,349.654 124.917 C 349.910 125.467,350.258 126.254,350.425 126.667 C 350.593 127.079,350.987 127.979,351.301 128.667 C 351.614 129.354,352.306 130.929,352.837 132.167 C 353.369 133.404,354.114 135.092,354.493 135.917 C 354.872 136.742,355.246 137.567,355.323 137.750 C 356.073 139.535,356.487 140.477,357.107 141.802 C 357.507 142.655,357.833 143.387,357.833 143.429 C 357.833 143.471,358.323 144.610,358.923 145.961 C 360.061 148.528,360.235 148.925,360.487 149.542 C 360.571 149.748,360.881 150.442,361.177 151.083 C 362.324 153.575,363.183 155.555,363.238 155.833 C 363.247 155.879,363.526 156.479,363.858 157.167 C 364.190 157.854,364.819 159.279,365.257 160.333 C 365.694 161.387,366.109 162.325,366.178 162.417 C 366.247 162.508,366.691 163.483,367.164 164.583 C 367.637 165.683,368.168 166.901,368.345 167.290 C 368.522 167.678,368.667 168.029,368.667 168.068 C 368.667 168.107,369.010 168.877,369.430 169.778 C 370.470 172.010,370.667 172.452,370.667 172.557 C 370.667 172.606,370.967 173.284,371.333 174.063 C 371.700 174.842,372.000 175.516,372.000 175.562 C 372.000 175.607,372.216 176.117,372.480 176.697 C 372.900 177.619,374.156 180.473,375.800 184.244 C 376.134 185.011,376.259 185.495,376.166 185.667 C 376.089 185.812,375.763 186.714,375.442 187.673 C 375.121 188.632,374.548 190.279,374.168 191.333 C 373.789 192.387,373.043 194.487,372.511 196.000 C 371.980 197.512,371.229 199.612,370.844 200.667 C 370.459 201.721,370.123 202.733,370.096 202.917 C 370.070 203.100,369.918 203.550,369.760 203.917 C 369.448 204.637,369.035 205.792,367.970 208.917 C 367.596 210.017,367.213 211.104,367.119 211.333 C 367.025 211.563,366.927 211.825,366.900 211.917 C 366.772 212.353,364.622 218.470,364.000 220.167 C 363.614 221.221,363.127 222.608,362.919 223.250 C 362.711 223.892,362.163 225.429,361.701 226.667 C 361.240 227.904,360.599 229.704,360.277 230.667 C 359.548 232.849,358.548 235.642,358.338 236.083 C 358.251 236.267,358.056 236.829,357.904 237.333 C 357.753 237.838,357.158 239.563,356.582 241.167 C 356.007 242.771,355.445 244.383,355.333 244.750 C 355.071 245.614,354.007 248.505,353.824 248.849 C 353.746 248.995,353.642 249.295,353.592 249.516 C 353.478 250.023,352.337 253.380,351.757 254.917 C 351.515 255.558,351.206 256.421,351.070 256.833 C 350.934 257.246,350.756 257.705,350.674 257.853 C 350.592 258.001,350.431 258.451,350.316 258.853 C 350.058 259.753,350.080 259.682,349.928 260.083 C 349.346 261.617,348.084 265.247,347.754 266.333 C 347.601 266.837,347.411 267.400,347.330 267.583 C 346.901 268.562,346.260 270.333,345.762 271.917 C 345.733 272.008,345.712 272.121,345.716 272.167 C 345.732 272.353,345.231 273.151,344.356 274.333 C 343.848 275.021,343.099 276.071,342.692 276.667 C 342.285 277.262,341.904 277.787,341.845 277.833 C 341.787 277.879,341.441 278.327,341.078 278.829 C 340.714 279.331,340.267 279.945,340.083 280.194 C 339.668 280.757,338.593 282.239,337.547 283.689 C 337.109 284.297,336.487 285.145,336.167 285.573 C 335.091 287.008,333.085 289.759,332.917 290.029 C 332.825 290.176,332.375 290.791,331.917 291.396 C 331.458 292.000,330.821 292.873,330.500 293.337 C 330.179 293.800,329.799 294.321,329.656 294.495 C 329.513 294.670,329.251 295.016,329.073 295.265 C 328.895 295.514,328.619 295.856,328.458 296.025 C 328.298 296.195,328.171 296.374,328.175 296.423 C 328.180 296.472,327.786 297.047,327.300 297.700 C 326.814 298.353,326.085 299.344,325.680 299.902 C 325.275 300.460,324.525 301.476,324.013 302.160 C 323.502 302.844,322.956 303.594,322.799 303.827 C 322.643 304.060,322.289 304.550,322.012 304.917 C 321.735 305.283,321.300 305.883,321.046 306.250 C 320.792 306.617,320.490 307.016,320.375 307.137 C 320.261 307.258,320.167 307.413,320.167 307.480 C 320.167 307.548,320.032 307.749,319.867 307.927 C 319.602 308.213,319.157 308.814,316.977 311.833 C 316.680 312.246,316.354 312.658,316.253 312.750 C 316.152 312.842,315.735 313.402,315.326 313.995 C 314.918 314.588,314.114 315.713,313.541 316.495 C 312.230 318.282,312.185 318.344,310.630 320.481 C 309.922 321.454,309.221 322.400,309.073 322.583 C 308.924 322.767,308.433 323.442,307.980 324.083 C 307.528 324.725,306.633 325.962,305.991 326.833 C 305.350 327.704,304.696 328.603,304.537 328.830 C 304.379 329.058,303.775 329.883,303.195 330.664 C 302.039 332.220,301.518 332.928,297.778 338.034 C 295.669 340.913,293.701 343.638,292.915 344.769 C 292.729 345.036,291.333 345.436,290.167 345.555 C 289.115 345.664,285.869 346.259,284.083 346.671 C 283.391 346.831,277.691 347.915,276.667 348.082 C 273.395 348.615,272.997 348.690,265.583 350.164 C 265.125 350.256,264.450 350.373,264.083 350.425 C 263.717 350.477,262.629 350.668,261.667 350.850 C 260.704 351.032,259.663 351.221,259.354 351.271 C 259.044 351.320,258.669 351.386,258.521 351.416 C 258.372 351.447,257.650 351.591,256.917 351.736 C 251.307 352.844,249.658 353.154,248.750 353.271 C 248.383 353.318,246.996 353.571,245.667 353.832 C 239.822 354.983,236.890 355.532,236.303 355.586 C 235.956 355.618,235.610 355.682,235.535 355.728 C 235.460 355.775,235.102 355.851,234.741 355.898 C 234.031 355.991,232.069 356.354,228.000 357.148 C 226.579 357.425,224.779 357.765,224.000 357.903 C 223.221 358.041,222.396 358.191,222.167 358.235 C 221.938 358.280,221.112 358.429,220.333 358.568 C 219.554 358.706,217.756 359.042,216.338 359.313 C 214.920 359.585,213.720 359.783,213.671 359.754 C 213.623 359.725,213.133 359.657,212.583 359.602 C 212.033 359.547,210.983 359.426,210.250 359.332 C 208.370 359.092,203.140 358.525,201.750 358.411 C 201.108 358.358,200.396 358.279,200.167 358.235 C 199.938 358.192,199.188 358.118,198.500 358.072 C 197.813 358.025,196.725 357.917,196.083 357.831 C 195.442 357.745,194.467 357.633,193.917 357.582 C 192.880 357.486,191.615 357.350,190.750 357.242 C 190.475 357.207,189.500 357.098,188.583 356.999 C 187.667 356.900,186.617 356.782,186.250 356.737 C 185.883 356.691,185.321 356.624,185.000 356.586 C 182.149 356.255,181.186 356.148,179.667 355.995 C 178.704 355.897,177.617 355.786,177.250 355.746 C 176.274 355.641,174.878 355.501,173.833 355.404 C 173.329 355.356,170.929 355.097,168.500 354.826 C 157.585 353.612,155.401 353.372,155.167 353.364 C 154.767 353.349,152.963 353.162,152.417 353.079 C 152.142 353.038,151.467 352.962,150.917 352.911 C 149.549 352.783,142.848 352.041,140.500 351.756 C 139.446 351.628,138.058 351.473,137.417 351.411 C 136.775 351.349,136.137 351.277,136.000 351.252 C 135.862 351.226,135.150 351.158,134.417 351.099 C 133.683 351.040,132.821 350.958,132.500 350.916 C 132.179 350.875,131.467 350.798,130.917 350.745 C 130.367 350.692,129.692 350.619,129.417 350.581 C 129.142 350.544,128.504 350.474,128.000 350.426 C 126.060 350.241,123.692 349.991,122.333 349.826 C 121.554 349.732,120.654 349.626,120.333 349.591 C 115.563 349.074,113.587 348.817,113.486 348.698 C 113.432 348.635,112.677 347.758,111.809 346.750 C 110.940 345.742,110.084 344.742,109.906 344.528 C 109.300 343.797,108.975 343.417,108.529 342.915 C 108.284 342.639,107.675 341.926,107.177 341.332 C 106.678 340.737,106.186 340.175,106.084 340.083 C 105.981 339.992,105.533 339.467,105.088 338.917 C 104.643 338.367,104.074 337.692,103.825 337.417 C 103.575 337.142,102.669 336.092,101.812 335.083 C 100.955 334.075,100.172 333.175,100.074 333.083 C 99.975 332.992,99.562 332.505,99.156 332.002 C 98.447 331.124,97.970 330.562,97.250 329.757 C 97.067 329.552,96.767 329.193,96.583 328.958 C 96.400 328.724,95.987 328.243,95.667 327.889 C 95.346 327.536,94.811 326.910,94.478 326.499 C 94.145 326.087,93.681 325.545,93.448 325.295 C 93.012 324.829,91.088 322.578,89.941 321.192 C 89.346 320.473,87.801 318.681,87.417 318.264 C 87.325 318.165,86.838 317.596,86.334 317.000 C 85.831 316.404,85.371 315.879,85.313 315.833 C 85.254 315.787,84.766 315.217,84.228 314.566 C 83.121 313.226,81.355 311.164,80.676 310.417 C 80.426 310.142,79.882 309.499,79.467 308.989 C 79.052 308.479,78.533 307.879,78.313 307.656 C 78.093 307.432,77.617 306.875,77.254 306.417 C 76.892 305.958,76.255 305.208,75.839 304.750 C 75.423 304.292,74.858 303.635,74.583 303.291 C 74.308 302.947,73.831 302.385,73.522 302.041 C 72.927 301.380,68.436 296.119,66.750 294.109 C 66.200 293.453,65.554 292.711,65.315 292.459 C 64.505 291.607,63.988 290.718,62.826 288.174 C 62.188 286.779,61.667 285.574,61.667 285.497 C 61.667 285.420,61.217 284.409,60.667 283.250 C 60.117 282.091,59.667 281.083,59.667 281.009 C 59.667 280.882,58.959 279.267,58.094 277.417 C 57.880 276.958,56.636 274.146,55.331 271.167 C 54.026 268.188,52.855 265.584,52.729 265.381 C 52.603 265.178,52.500 264.933,52.500 264.837 C 52.500 264.624,51.588 262.501,50.995 261.333 C 50.832 261.012,50.170 259.498,49.524 257.968 C 48.878 256.439,48.273 255.051,48.181 254.885 C 47.922 254.419,47.167 252.730,47.167 252.616 C 47.167 252.561,46.949 252.043,46.682 251.466 C 45.080 247.994,44.500 246.665,44.500 246.462 C 44.500 246.336,44.436 246.162,44.357 246.075 C 44.153 245.849,40.052 236.643,39.594 235.383 C 39.468 235.035,38.907 233.795,38.349 232.627 C 37.790 231.460,37.333 230.433,37.333 230.345 C 37.333 230.201,37.095 229.668,35.463 226.167 C 35.185 225.571,34.865 224.821,34.751 224.500 C 34.637 224.179,34.282 223.354,33.961 222.667 C 32.613 219.779,32.333 219.161,32.333 219.068 C 32.333 218.950,31.323 216.641,30.664 215.256 C 30.401 214.703,29.924 213.612,29.605 212.833 C 29.034 211.443,28.188 209.552,27.509 208.147 C 27.321 207.757,27.167 207.379,27.167 207.307 C 27.167 207.178,26.908 206.594,25.641 203.872 C 25.288 203.114,25.000 202.457,25.000 202.412 C 25.000 202.295,24.369 200.856,24.015 200.167 C 23.413 198.994,23.438 198.471,24.179 196.750 C 24.258 196.567,24.544 195.742,24.815 194.917 C 25.432 193.037,26.243 190.720,26.741 189.417 C 26.952 188.867,27.279 187.929,27.468 187.333 C 27.658 186.737,28.052 185.612,28.344 184.833 C 28.636 184.054,29.267 182.292,29.746 180.917 C 30.225 179.542,30.673 178.267,30.741 178.083 C 30.809 177.900,30.928 177.563,31.006 177.333 C 31.083 177.104,31.422 176.167,31.759 175.250 C 32.096 174.333,32.390 173.433,32.414 173.250 C 32.438 173.067,32.698 172.317,32.993 171.583 C 33.606 170.061,34.577 167.313,34.938 166.083 C 35.072 165.625,35.243 165.100,35.319 164.917 C 35.394 164.733,35.533 164.396,35.628 164.167 C 35.946 163.399,36.475 161.935,37.313 159.500 C 38.753 155.317,39.293 153.818,39.398 153.713 C 39.454 153.657,39.500 153.441,39.500 153.232 C 39.500 153.024,39.575 152.807,39.667 152.750 C 39.758 152.693,39.833 152.511,39.833 152.346 C 39.833 152.087,40.030 151.514,40.669 149.917 C 41.048 148.969,41.424 147.921,41.926 146.417 C 42.718 144.044,44.142 139.977,44.319 139.583 C 44.401 139.400,44.693 138.575,44.968 137.750 C 45.242 136.925,46.079 134.525,46.828 132.417 C 47.577 130.308,48.602 127.383,49.107 125.917 C 51.321 119.491,52.186 117.331,52.682 116.998 C 52.802 116.917,54.044 115.234,54.871 114.032 C 55.079 113.728,55.475 113.199,55.750 112.856 C 56.025 112.513,56.550 111.788,56.917 111.244 C 57.283 110.701,58.108 109.573,58.750 108.737 C 59.392 107.900,60.442 106.485,61.083 105.591 C 61.725 104.696,63.253 102.609,64.480 100.951 C 65.706 99.294,66.831 97.745,66.980 97.510 C 67.128 97.275,67.700 96.492,68.250 95.769 C 68.800 95.046,69.644 93.897,70.125 93.216 C 70.606 92.534,71.112 91.864,71.251 91.725 C 71.389 91.587,71.586 91.318,71.688 91.127 C 71.790 90.936,72.408 90.072,73.062 89.208 C 73.715 88.343,74.397 87.399,74.577 87.109 C 74.757 86.820,74.984 86.501,75.081 86.401 C 75.243 86.234,75.705 85.607,77.375 83.286 C 78.214 82.121,78.165 82.185,78.875 81.304 C 79.219 80.877,79.500 80.480,79.500 80.423 C 79.500 80.366,79.579 80.229,79.676 80.118 C 79.947 79.808,82.038 76.956,82.591 76.141 C 82.861 75.743,83.124 75.379,83.174 75.333 C 83.280 75.237,84.646 73.418,85.006 72.895 C 85.239 72.555,87.685 69.203,88.334 68.333 C 88.505 68.104,89.019 67.392,89.476 66.750 C 90.776 64.926,91.227 64.333,91.542 64.035 C 91.702 63.883,91.833 63.696,91.833 63.620 C 91.833 63.543,92.285 62.886,92.838 62.160 C 93.391 61.435,94.177 60.353,94.585 59.757 C 94.993 59.161,95.459 58.532,95.621 58.359 C 95.784 58.185,96.179 57.661,96.500 57.194 C 97.080 56.349,98.080 54.962,98.682 54.167 C 99.175 53.515,101.274 50.644,101.700 50.038 C 102.130 49.425,103.311 47.834,103.877 47.102 C 104.082 46.837,104.292 46.556,104.342 46.478 C 104.427 46.348,109.566 45.278,112.167 44.849 C 114.197 44.513,117.078 43.976,121.167 43.172 C 123.412 42.730,125.362 42.366,125.500 42.364 C 125.638 42.362,125.909 42.323,126.104 42.277 C 126.299 42.231,126.749 42.149,127.104 42.095 C 127.459 42.040,130.037 41.549,132.833 41.003 C 135.629 40.457,138.833 39.862,139.952 39.680 C 141.072 39.498,143.922 38.964,146.286 38.494 C 150.686 37.619,151.916 37.391,153.083 37.236 C 153.450 37.187,156.262 36.656,159.333 36.057 C 162.404 35.457,165.217 34.937,165.583 34.901 C 165.950 34.865,168.912 34.312,172.167 33.672 C 175.421 33.032,179.171 32.324,180.500 32.098 C 181.829 31.873,185.054 31.269,187.666 30.758 C 190.277 30.246,193.165 29.712,194.082 29.570 C 194.999 29.429,196.987 29.061,198.500 28.753 C 200.012 28.445,201.512 28.225,201.833 28.263 C 202.154 28.302,203.767 28.484,205.417 28.669 M292.538 38.079 C 296.169 38.489,299.427 38.865,299.778 38.914 C 300.953 39.078,308.235 39.834,309.417 39.915 C 312.512 40.127,312.213 39.950,313.093 42.083 C 313.497 43.064,313.973 44.141,314.419 45.083 C 314.635 45.542,315.148 46.704,315.559 47.667 C 315.970 48.629,316.583 50.017,316.923 50.750 C 317.262 51.483,317.876 52.871,318.287 53.833 C 318.698 54.796,319.280 56.108,319.581 56.750 C 319.883 57.392,320.225 58.179,320.343 58.500 C 320.461 58.821,320.815 59.646,321.129 60.333 C 322.144 62.551,323.500 65.630,323.500 65.716 C 323.500 65.762,323.902 66.651,324.392 67.691 C 324.883 68.732,325.342 69.771,325.413 70.000 C 325.484 70.229,325.907 71.190,326.354 72.135 C 326.801 73.080,327.166 73.905,327.166 73.968 C 327.166 74.032,327.314 74.383,327.496 74.750 C 327.678 75.117,328.062 75.979,328.350 76.667 C 328.638 77.354,329.135 78.479,329.455 79.167 C 329.775 79.854,330.099 80.567,330.175 80.750 C 330.714 82.047,331.474 83.784,331.998 84.917 C 332.337 85.650,332.810 86.737,333.049 87.333 C 333.288 87.929,333.647 88.752,333.847 89.162 C 334.047 89.572,334.614 90.847,335.108 91.995 C 335.602 93.144,336.133 94.308,336.287 94.583 C 336.442 94.858,336.550 95.104,336.527 95.128 C 336.505 95.153,336.720 95.678,337.005 96.295 C 337.698 97.795,337.776 97.974,338.075 98.750 L 338.332 99.417 337.995 99.000 C 337.379 98.237,336.420 97.103,336.167 96.839 C 336.029 96.695,335.342 95.904,334.639 95.081 C 333.937 94.257,333.149 93.355,332.889 93.076 C 332.629 92.797,332.304 92.411,332.167 92.219 C 332.029 92.027,331.439 91.318,330.855 90.643 C 330.271 89.969,329.446 89.006,329.022 88.504 C 328.597 88.003,328.067 87.404,327.843 87.173 C 327.620 86.943,327.282 86.529,327.093 86.252 C 326.904 85.976,326.471 85.450,326.132 85.083 C 325.793 84.717,325.193 84.038,324.799 83.576 C 324.135 82.795,322.695 81.128,321.917 80.237 C 321.733 80.028,321.358 79.579,321.083 79.241 C 320.808 78.902,320.353 78.391,320.071 78.104 C 319.789 77.818,319.489 77.462,319.404 77.313 C 319.319 77.165,318.792 76.527,318.232 75.897 C 316.045 73.432,314.724 71.900,314.474 71.537 C 314.330 71.328,313.919 70.840,313.561 70.454 C 313.203 70.067,312.314 69.037,311.585 68.167 C 310.856 67.296,310.220 66.546,310.171 66.500 C 310.123 66.454,309.412 65.629,308.591 64.667 C 306.771 62.531,305.169 60.682,304.833 60.329 C 304.696 60.185,304.396 59.811,304.167 59.500 C 303.938 59.188,303.478 58.648,303.146 58.301 C 302.813 57.954,302.353 57.425,302.123 57.126 C 301.689 56.563,301.343 56.159,300.445 55.164 C 300.155 54.842,299.543 54.130,299.087 53.581 C 298.631 53.032,298.210 52.546,298.153 52.500 C 298.095 52.454,297.651 51.929,297.166 51.333 C 296.681 50.737,296.199 50.175,296.095 50.083 C 295.992 49.992,295.347 49.242,294.662 48.417 C 293.978 47.592,293.378 46.879,293.330 46.833 C 293.281 46.788,292.831 46.264,292.329 45.671 C 291.827 45.077,291.342 44.507,291.250 44.405 C 291.012 44.138,289.704 42.621,287.271 39.792 C 285.480 37.708,285.217 37.333,285.547 37.333 C 285.761 37.333,288.907 37.669,292.538 38.079 M97.667 47.628 C 97.667 47.698,97.385 48.106,97.042 48.534 C 96.698 48.962,96.154 49.692,95.833 50.157 C 95.513 50.622,95.124 51.171,94.970 51.376 C 94.816 51.582,94.164 52.462,93.522 53.333 C 92.879 54.204,92.180 55.136,91.969 55.404 C 91.757 55.672,91.222 56.422,90.780 57.071 C 90.339 57.719,89.814 58.438,89.614 58.667 C 89.414 58.896,89.119 59.271,88.959 59.500 C 88.799 59.729,88.199 60.564,87.625 61.354 C 87.052 62.145,86.358 63.106,86.083 63.489 C 85.808 63.872,85.208 64.695,84.750 65.317 C 84.292 65.940,83.767 66.658,83.583 66.912 C 82.537 68.365,81.748 69.427,81.661 69.500 C 81.607 69.546,81.130 70.211,80.602 70.979 C 80.073 71.747,79.570 72.459,79.482 72.562 C 79.207 72.889,77.965 74.564,76.500 76.587 C 75.721 77.662,74.764 78.964,74.373 79.479 C 73.983 79.995,73.178 81.092,72.585 81.917 C 70.481 84.843,68.590 87.419,68.119 88.000 C 68.008 88.138,67.773 88.473,67.597 88.746 C 67.421 89.018,67.209 89.318,67.127 89.412 C 67.044 89.506,66.529 90.221,65.981 91.000 C 65.433 91.779,64.746 92.710,64.455 93.068 C 64.163 93.427,63.722 94.027,63.475 94.402 C 63.024 95.084,59.677 99.657,58.962 100.566 C 58.754 100.831,58.294 101.469,57.940 101.982 C 57.320 102.882,57.301 102.895,57.417 102.333 C 57.484 102.013,57.589 101.675,57.652 101.583 C 57.714 101.492,57.904 101.004,58.075 100.500 C 58.245 99.996,58.459 99.396,58.550 99.167 C 58.640 98.938,59.184 97.400,59.757 95.750 C 60.331 94.100,61.115 91.888,61.499 90.833 C 61.883 89.779,62.293 88.579,62.411 88.167 C 62.594 87.524,63.194 85.895,63.669 84.750 C 63.745 84.567,64.109 83.517,64.478 82.417 C 64.846 81.317,65.384 79.779,65.673 79.000 C 65.961 78.221,66.637 76.308,67.175 74.750 C 67.713 73.192,68.387 71.279,68.673 70.500 C 68.958 69.721,69.405 68.446,69.666 67.667 C 69.927 66.887,70.412 65.500,70.745 64.583 C 71.078 63.667,71.748 61.750,72.235 60.324 C 72.722 58.898,73.219 57.548,73.338 57.324 C 73.458 57.100,73.538 56.896,73.516 56.870 C 73.476 56.824,73.912 55.538,74.178 54.917 C 74.257 54.733,74.516 53.968,74.754 53.216 C 75.033 52.335,75.286 51.820,75.468 51.767 C 75.898 51.640,85.168 49.855,85.833 49.771 C 86.767 49.652,89.126 49.208,93.417 48.342 C 98.126 47.392,97.667 47.470,97.667 47.628 M356.583 127.858 C 356.950 128.323,357.402 128.864,357.588 129.060 C 357.774 129.256,358.336 129.904,358.837 130.500 C 359.338 131.096,359.791 131.621,359.843 131.667 C 359.895 131.712,360.346 132.244,360.844 132.847 C 361.342 133.450,362.425 134.715,363.250 135.658 C 364.075 136.601,364.951 137.632,365.196 137.949 C 365.441 138.266,366.041 138.952,366.529 139.474 C 367.017 139.995,367.539 140.608,367.688 140.836 C 367.837 141.064,368.170 141.475,368.427 141.750 C 368.684 142.025,369.570 143.037,370.396 144.000 C 371.221 144.962,371.976 145.835,372.073 145.940 C 372.170 146.044,372.397 146.307,372.577 146.523 C 373.589 147.739,374.744 149.094,374.831 149.167 C 374.886 149.212,375.289 149.695,375.728 150.239 C 376.471 151.161,377.622 152.500,378.717 153.716 C 378.974 154.001,379.462 154.566,379.801 154.970 C 380.139 155.374,380.754 156.093,381.167 156.568 C 381.579 157.042,382.329 157.913,382.833 158.503 C 383.337 159.092,384.030 159.884,384.373 160.262 C 384.715 160.640,384.960 160.985,384.916 161.029 C 384.805 161.139,383.908 163.581,383.256 165.545 C 382.958 166.441,382.666 167.223,382.607 167.282 C 382.548 167.341,382.500 167.527,382.500 167.697 C 382.500 167.866,382.431 168.135,382.346 168.294 C 382.074 168.804,381.317 170.855,380.579 173.083 C 379.821 175.372,378.694 178.528,378.602 178.620 C 378.507 178.715,378.245 178.276,377.885 177.417 C 377.184 175.746,376.431 174.049,375.705 172.500 C 375.297 171.629,374.867 170.654,374.750 170.333 C 374.520 169.700,371.526 162.908,370.530 160.759 C 370.193 160.030,369.912 159.393,369.907 159.342 C 369.901 159.291,369.779 158.987,369.636 158.667 C 369.493 158.346,368.799 156.771,368.094 155.167 C 367.389 153.563,366.555 151.706,366.240 151.041 C 365.925 150.376,365.667 149.775,365.667 149.705 C 365.667 149.636,365.507 149.281,365.312 148.917 C 365.117 148.554,364.865 147.992,364.750 147.670 C 364.465 146.863,363.889 145.564,363.420 144.667 C 363.204 144.254,363.023 143.860,363.017 143.790 C 363.011 143.720,362.896 143.448,362.760 143.185 C 362.624 142.922,362.332 142.229,362.111 141.645 C 361.890 141.061,361.353 139.833,360.918 138.917 C 360.482 138.000,359.878 136.641,359.575 135.896 C 359.273 135.152,358.764 133.989,358.444 133.313 C 358.125 132.637,357.554 131.333,357.174 130.417 C 356.794 129.500,356.417 128.627,356.335 128.476 C 355.520 126.977,355.644 126.668,356.583 127.858 M41.810 132.676 C 41.528 133.450,41.011 134.908,40.661 135.917 C 40.311 136.925,39.749 138.500,39.411 139.417 C 39.073 140.333,38.697 141.383,38.575 141.750 C 38.454 142.117,38.166 142.923,37.936 143.542 C 37.706 144.160,37.546 144.667,37.580 144.667 C 37.614 144.667,37.456 145.135,37.228 145.708 C 36.771 146.857,35.898 149.313,35.169 151.500 C 34.909 152.279,34.535 153.329,34.337 153.833 C 34.139 154.337,33.956 154.825,33.930 154.917 C 33.905 155.008,33.835 155.196,33.776 155.333 C 33.598 155.750,32.823 158.034,32.589 158.833 C 32.469 159.246,32.068 160.354,31.699 161.297 C 31.330 162.239,31.012 163.064,30.993 163.130 C 30.973 163.196,30.938 163.325,30.914 163.417 C 30.890 163.508,30.747 163.930,30.596 164.353 C 30.446 164.776,30.292 165.263,30.255 165.436 C 30.185 165.759,29.910 166.534,28.991 169.000 C 28.701 169.779,28.208 171.187,27.896 172.128 C 27.311 173.891,26.611 175.831,26.347 176.417 C 26.264 176.600,25.993 177.387,25.745 178.167 C 25.496 178.946,25.230 179.733,25.155 179.917 C 25.079 180.100,24.905 180.588,24.769 181.000 C 24.633 181.412,24.288 182.387,24.002 183.167 C 23.716 183.946,23.141 185.596,22.725 186.833 C 22.310 188.071,21.870 189.308,21.748 189.583 C 21.626 189.858,21.358 190.571,21.153 191.167 C 20.782 192.243,20.500 192.760,20.500 192.365 C 20.500 192.254,20.357 191.845,20.181 191.457 C 20.006 191.068,19.542 190.000,19.150 189.083 C 18.758 188.167,18.295 187.160,18.122 186.847 C 17.949 186.534,17.585 185.709,17.313 185.014 C 16.792 183.686,16.628 183.311,15.739 181.417 C 15.438 180.775,14.877 179.500,14.492 178.583 C 14.108 177.667,13.509 176.317,13.162 175.583 C 12.815 174.850,12.405 173.905,12.252 173.483 L 11.974 172.717 12.445 172.052 C 12.705 171.686,13.442 170.683,14.083 169.822 C 15.751 167.585,15.838 167.466,16.654 166.302 C 17.060 165.723,18.140 164.237,19.055 163.000 C 21.282 159.986,22.308 158.587,25.583 154.097 C 26.225 153.217,27.269 151.804,27.902 150.957 C 28.536 150.110,29.307 149.042,29.615 148.583 C 30.102 147.859,30.787 146.949,31.581 145.972 C 31.706 145.818,31.900 145.518,32.012 145.305 C 32.125 145.091,32.263 144.879,32.321 144.833 C 32.378 144.787,32.835 144.188,33.335 143.500 C 33.836 142.813,34.341 142.150,34.457 142.029 C 34.574 141.907,34.745 141.665,34.839 141.490 C 35.006 141.177,36.437 139.198,37.905 137.250 C 39.578 135.029,40.844 133.284,41.117 132.822 C 41.275 132.553,41.465 132.333,41.539 132.333 C 41.612 132.333,41.797 132.072,41.949 131.752 C 42.414 130.778,42.352 131.191,41.810 132.676 M379.747 193.125 C 381.202 196.480,381.588 197.345,382.351 198.955 C 382.708 199.709,383.000 200.413,383.000 200.518 C 383.000 200.623,383.225 201.187,383.500 201.771 C 384.748 204.422,385.021 205.023,385.721 206.667 C 386.131 207.629,386.742 209.017,387.080 209.750 C 387.418 210.483,387.757 211.233,387.834 211.417 C 387.911 211.600,388.157 212.168,388.381 212.679 L 388.788 213.608 388.102 214.557 C 387.725 215.078,386.592 216.629,385.583 218.002 C 384.575 219.375,383.400 220.998,382.973 221.609 C 382.545 222.219,382.001 222.940,381.764 223.210 C 381.527 223.480,381.333 223.730,381.333 223.767 C 381.333 223.843,379.821 225.979,379.162 226.833 C 378.330 227.912,375.407 231.912,375.130 232.352 C 374.980 232.591,374.754 232.891,374.628 233.018 C 374.503 233.146,373.729 234.188,372.909 235.333 C 372.088 236.479,371.319 237.520,371.200 237.646 C 371.080 237.772,370.610 238.410,370.156 239.063 C 369.701 239.716,368.992 240.700,368.580 241.250 C 368.167 241.800,367.324 242.948,366.707 243.801 C 366.089 244.655,365.298 245.742,364.950 246.218 C 364.602 246.694,364.189 247.263,364.033 247.482 C 363.878 247.702,363.554 248.114,363.315 248.399 C 363.075 248.684,362.761 249.142,362.616 249.417 C 362.471 249.692,362.153 250.142,361.908 250.417 C 361.664 250.692,361.153 251.358,360.773 251.896 C 360.394 252.435,359.933 253.083,359.750 253.335 C 359.567 253.587,359.159 254.159,358.845 254.605 C 357.693 256.240,355.095 259.651,355.042 259.598 C 355.012 259.568,355.149 259.140,355.346 258.647 C 355.543 258.154,355.766 257.563,355.840 257.333 C 356.018 256.789,358.155 250.701,358.883 248.667 C 359.194 247.796,359.727 246.258,360.067 245.250 C 360.407 244.242,360.749 243.267,360.827 243.083 C 361.098 242.447,361.526 241.261,362.000 239.833 C 362.560 238.147,362.973 237.018,363.158 236.661 C 363.231 236.521,363.347 236.146,363.415 235.828 C 363.483 235.510,363.595 235.175,363.664 235.083 C 363.777 234.933,364.349 233.324,364.434 232.917 C 364.453 232.825,364.783 231.887,365.168 230.833 C 365.552 229.779,365.930 228.729,366.007 228.500 C 366.429 227.247,368.350 221.772,368.668 220.917 C 369.307 219.195,373.300 207.794,373.454 207.250 C 373.506 207.067,373.602 206.842,373.668 206.750 C 373.735 206.658,374.067 205.721,374.406 204.667 C 374.746 203.612,375.086 202.600,375.160 202.417 C 375.592 201.360,376.394 199.151,377.006 197.333 C 377.579 195.631,378.146 194.008,378.914 191.875 C 379.038 191.532,379.088 191.607,379.747 193.125 M21.678 206.417 C 21.794 206.692,21.901 206.954,21.916 207.000 C 21.931 207.046,22.172 207.575,22.450 208.176 C 22.729 208.777,23.013 209.452,23.081 209.676 C 23.149 209.900,23.341 210.346,23.506 210.667 C 24.018 211.658,24.955 213.706,25.321 214.636 C 25.513 215.123,26.673 217.786,27.899 220.553 C 29.768 224.771,32.447 230.847,33.461 233.167 C 33.601 233.487,34.069 234.503,34.502 235.422 C 34.934 236.342,35.344 237.280,35.413 237.506 C 35.481 237.732,35.832 238.544,36.192 239.310 C 36.553 240.076,37.154 241.426,37.528 242.310 C 38.372 244.303,38.715 245.080,39.454 246.667 C 39.774 247.354,40.247 248.442,40.505 249.083 C 40.762 249.725,41.282 250.925,41.660 251.750 C 42.537 253.668,42.484 253.549,43.559 256.000 C 44.062 257.146,44.622 258.383,44.805 258.749 C 44.987 259.115,45.101 259.471,45.058 259.541 C 45.015 259.610,45.048 259.667,45.130 259.667 C 45.213 259.667,45.384 259.985,45.511 260.375 C 45.638 260.765,45.939 261.496,46.181 262.000 C 46.422 262.504,47.012 263.817,47.493 264.917 C 47.974 266.017,48.735 267.726,49.184 268.716 C 49.633 269.705,50.000 270.547,50.000 270.586 C 50.000 270.625,50.193 271.091,50.429 271.620 C 50.665 272.150,50.959 272.808,51.082 273.083 C 51.204 273.358,51.567 274.146,51.888 274.833 C 52.209 275.521,52.618 276.458,52.798 276.917 C 52.977 277.375,53.184 277.900,53.257 278.083 L 53.390 278.417 53.004 278.083 C 52.792 277.900,52.398 277.450,52.130 277.083 C 51.862 276.717,51.400 276.154,51.104 275.833 C 50.808 275.512,50.122 274.725,49.579 274.083 C 49.037 273.442,48.390 272.692,48.143 272.417 C 47.895 272.142,47.443 271.605,47.138 271.223 C 46.615 270.569,44.084 267.613,42.951 266.333 C 42.667 266.012,42.058 265.300,41.597 264.750 C 41.136 264.200,40.560 263.525,40.318 263.250 C 39.326 262.125,37.692 260.208,36.778 259.099 C 36.243 258.450,35.754 257.881,35.692 257.834 C 35.629 257.788,34.945 257.000,34.172 256.083 C 33.398 255.167,32.462 254.075,32.091 253.658 C 31.720 253.241,31.104 252.528,30.722 252.075 C 30.341 251.621,29.524 250.650,28.907 249.917 C 28.290 249.183,27.740 248.546,27.685 248.500 C 27.629 248.454,27.214 247.967,26.763 247.417 C 26.311 246.867,25.859 246.342,25.757 246.250 C 25.580 246.089,23.719 243.916,22.489 242.433 C 22.163 242.039,21.375 241.119,20.739 240.388 C 20.104 239.658,19.401 238.840,19.178 238.572 C 18.523 237.782,17.090 236.090,17.000 236.000 C 16.815 235.816,14.826 233.511,13.907 232.417 C 13.369 231.775,12.794 231.105,12.631 230.927 C 12.233 230.494,12.422 229.540,13.328 227.417 C 13.494 227.026,13.419 227.238,14.755 223.417 C 17.099 216.719,17.996 214.171,18.571 212.583 C 18.902 211.667,19.435 210.129,19.755 209.167 C 20.074 208.204,20.410 207.286,20.501 207.127 C 20.592 206.968,20.667 206.759,20.667 206.664 C 20.667 206.123,21.201 205.256,21.333 205.583 C 21.407 205.767,21.562 206.142,21.678 206.417 M339.655 289.167 C 339.417 289.934,339.226 290.493,338.827 291.583 C 338.279 293.084,336.763 297.372,335.587 300.750 C 333.974 305.384,333.498 306.722,333.334 307.083 C 333.251 307.267,332.874 308.317,332.497 309.417 C 330.930 313.988,330.658 314.766,330.521 315.083 C 330.441 315.267,330.260 315.792,330.118 316.250 C 329.855 317.097,329.433 318.291,328.496 320.833 C 328.087 321.943,327.469 323.755,327.246 324.500 C 327.232 324.546,327.176 324.696,327.122 324.833 C 327.067 324.971,326.711 325.946,326.331 327.000 C 325.950 328.054,325.579 329.067,325.506 329.250 C 325.433 329.433,325.186 330.146,324.957 330.833 C 324.468 332.301,323.537 334.940,323.340 335.417 C 323.101 335.994,322.659 337.276,322.586 337.603 C 322.548 337.775,322.382 338.302,322.217 338.773 L 321.918 339.628 319.655 340.068 C 318.411 340.310,317.098 340.547,316.738 340.596 C 316.378 340.644,315.896 340.710,315.667 340.742 C 315.438 340.774,314.688 340.917,314.000 341.058 C 313.313 341.200,312.487 341.362,312.167 341.417 C 311.846 341.472,310.083 341.808,308.250 342.165 C 304.940 342.808,303.685 343.035,303.125 343.094 C 302.965 343.111,302.815 343.140,302.792 343.159 C 302.728 343.210,302.187 343.315,301.083 343.490 C 300.533 343.578,299.921 343.685,299.722 343.729 L 299.360 343.809 299.722 343.280 C 299.922 342.988,300.533 342.150,301.081 341.417 C 301.628 340.683,302.251 339.830,302.464 339.520 C 302.678 339.211,302.942 338.862,303.051 338.746 C 303.161 338.630,303.700 337.878,304.250 337.075 C 304.800 336.271,305.441 335.382,305.675 335.099 C 305.910 334.815,306.467 334.058,306.915 333.417 C 307.363 332.775,307.776 332.212,307.831 332.167 C 307.887 332.121,308.113 331.821,308.333 331.500 C 308.554 331.179,308.784 330.879,308.846 330.833 C 308.908 330.787,309.099 330.521,309.271 330.241 C 309.443 329.960,310.162 328.948,310.870 327.991 C 312.676 325.548,317.319 319.220,318.956 316.970 C 319.711 315.932,320.554 314.783,320.829 314.417 C 321.103 314.050,321.643 313.300,322.029 312.750 C 322.415 312.200,322.997 311.398,323.324 310.968 C 323.650 310.538,324.179 309.826,324.500 309.385 C 325.298 308.288,325.259 308.341,325.909 307.500 C 326.228 307.087,326.828 306.262,327.242 305.667 C 327.657 305.071,328.203 304.311,328.457 303.978 C 328.710 303.645,329.029 303.205,329.167 302.999 C 329.304 302.794,329.510 302.528,329.625 302.408 C 329.740 302.288,329.833 302.134,329.833 302.064 C 329.833 301.995,329.978 301.783,330.154 301.594 C 330.330 301.405,331.042 300.462,331.737 299.500 C 332.431 298.537,333.205 297.495,333.458 297.183 C 333.710 296.872,334.217 296.179,334.583 295.644 C 335.751 293.940,339.665 288.667,339.761 288.667 C 339.788 288.667,339.740 288.892,339.655 289.167 M72.583 308.115 C 73.317 308.991,74.292 310.134,74.750 310.655 C 75.208 311.176,75.883 311.960,76.250 312.397 C 76.617 312.834,77.029 313.310,77.167 313.454 C 77.304 313.599,77.529 313.883,77.667 314.087 C 77.804 314.290,78.413 315.010,79.019 315.686 C 79.626 316.363,80.373 317.217,80.680 317.583 C 80.987 317.950,81.541 318.591,81.911 319.007 C 82.281 319.423,82.808 320.049,83.083 320.397 C 83.358 320.745,83.911 321.379,84.311 321.806 C 84.711 322.234,85.233 322.846,85.471 323.167 C 85.708 323.487,86.281 324.167,86.743 324.676 C 87.205 325.185,87.733 325.785,87.916 326.009 C 88.534 326.765,91.383 330.083,91.487 330.167 C 91.543 330.212,92.105 330.887,92.735 331.667 C 93.365 332.446,93.965 333.158,94.067 333.250 C 94.170 333.342,94.628 333.867,95.085 334.417 C 95.543 334.967,95.955 335.454,96.001 335.500 C 96.295 335.788,100.169 340.301,100.554 340.803 C 100.812 341.141,101.431 341.847,101.929 342.374 C 102.426 342.901,102.836 343.388,102.838 343.457 C 102.841 343.527,103.235 344.007,103.713 344.525 C 104.192 345.042,104.820 345.755,105.110 346.108 C 105.400 346.461,105.866 347.005,106.147 347.316 C 106.640 347.863,106.704 348.220,106.286 348.088 C 106.175 348.053,105.584 347.981,104.973 347.929 C 104.012 347.846,95.983 346.965,94.333 346.761 C 94.013 346.721,92.587 346.561,91.167 346.405 C 88.176 346.077,88.354 346.165,87.752 344.709 C 87.339 343.708,86.946 342.796,85.796 340.167 C 85.615 339.754,85.327 339.117,85.155 338.750 C 84.726 337.834,82.889 333.639,82.382 332.417 C 81.757 330.909,81.416 330.143,80.195 327.500 C 79.835 326.721,79.485 325.896,79.418 325.667 C 79.350 325.438,79.158 324.987,78.990 324.667 C 78.507 323.743,77.395 321.291,77.251 320.833 C 77.180 320.604,76.861 319.854,76.543 319.167 C 76.225 318.479,75.854 317.654,75.718 317.333 C 75.583 317.012,75.394 316.604,75.298 316.427 C 75.202 316.249,74.877 315.489,74.574 314.739 C 74.272 313.989,73.744 312.785,73.402 312.063 C 72.228 309.589,70.890 306.366,71.070 306.444 C 71.169 306.488,71.850 307.240,72.583 308.115 M287.663 351.875 C 287.191 352.540,286.325 353.721,285.736 354.500 C 285.148 355.279,284.468 356.215,284.224 356.580 C 283.981 356.944,283.682 357.342,283.560 357.464 C 283.439 357.585,283.073 358.074,282.747 358.551 C 282.101 359.496,280.178 362.168,279.664 362.833 C 279.487 363.063,278.964 363.775,278.502 364.417 C 278.040 365.058,277.491 365.802,277.282 366.070 L 276.902 366.557 275.159 366.357 C 274.201 366.248,273.004 366.125,272.500 366.086 C 271.996 366.046,271.283 365.976,270.917 365.931 C 270.550 365.886,269.837 365.807,269.333 365.756 C 268.829 365.705,268.154 365.630,267.833 365.590 C 267.512 365.549,266.762 365.470,266.167 365.413 C 265.571 365.356,262.796 365.052,260.000 364.736 C 257.204 364.421,253.829 364.051,252.500 363.914 C 249.741 363.630,248.890 363.538,247.833 363.412 C 247.421 363.362,246.708 363.286,246.250 363.243 C 245.792 363.200,245.117 363.130,244.750 363.087 C 244.383 363.044,243.564 362.963,242.929 362.908 C 242.295 362.852,241.282 362.749,240.679 362.679 C 240.077 362.608,237.671 362.339,235.333 362.081 C 232.996 361.823,231.027 361.564,230.958 361.506 C 230.827 361.394,238.473 359.828,239.131 359.831 C 239.341 359.832,242.341 359.280,245.798 358.605 C 249.255 357.929,252.683 357.284,253.417 357.172 C 254.150 357.060,257.172 356.488,260.133 355.901 C 263.094 355.314,265.699 354.833,265.923 354.833 C 266.146 354.833,269.151 354.271,272.600 353.583 C 276.049 352.896,279.106 352.329,279.394 352.323 C 279.681 352.317,281.679 351.950,283.833 351.507 C 289.036 350.436,288.706 350.405,287.663 351.875 M125.917 354.892 C 126.742 354.946,131.954 355.518,137.500 356.162 C 143.046 356.806,147.955 357.333,148.410 357.333 C 148.864 357.333,150.139 357.446,151.243 357.584 C 155.704 358.140,170.600 359.814,170.833 359.785 C 171.180 359.742,172.857 359.917,179.417 360.680 C 190.555 361.975,193.489 362.294,195.477 362.425 C 198.169 362.602,198.502 362.920,196.167 363.084 C 195.908 363.102,195.759 363.129,192.847 363.695 C 191.892 363.880,190.917 364.066,190.681 364.106 C 189.964 364.230,187.857 364.633,185.917 365.016 C 184.908 365.216,183.708 365.440,183.250 365.514 C 182.286 365.671,181.563 365.804,181.066 365.915 C 180.874 365.959,180.424 366.037,180.066 366.090 C 179.464 366.178,178.421 366.377,173.083 367.419 C 171.983 367.634,170.821 367.847,170.500 367.893 C 169.761 368.000,167.217 368.452,166.667 368.575 C 166.438 368.627,165.762 368.748,165.167 368.844 C 164.571 368.940,162.883 369.270,161.417 369.576 C 159.950 369.882,158.213 370.221,157.556 370.329 C 156.899 370.437,156.262 370.545,156.139 370.569 C 155.925 370.612,155.663 370.658,153.667 371.006 C 151.829 371.326,148.225 372.024,147.250 372.248 C 146.700 372.375,145.537 372.596,144.667 372.740 C 143.796 372.884,142.896 373.042,142.667 373.090 C 142.438 373.138,142.025 373.208,141.750 373.245 C 141.475 373.282,140.200 373.510,138.917 373.751 C 135.207 374.449,135.440 374.440,135.024 373.893 C 134.586 373.316,133.513 372.042,133.161 371.680 C 133.020 371.535,132.345 370.746,131.661 369.926 C 130.976 369.106,130.229 368.231,130.000 367.983 C 129.771 367.734,129.173 367.036,128.671 366.432 C 128.170 365.828,127.703 365.333,127.634 365.333 C 127.565 365.333,127.401 365.127,127.270 364.875 C 127.139 364.623,126.675 364.042,126.238 363.583 C 125.802 363.125,125.107 362.337,124.695 361.833 C 124.283 361.329,123.586 360.504,123.147 360.000 C 122.708 359.496,121.381 357.957,120.198 356.581 L 118.048 354.078 121.232 354.435 C 122.984 354.632,125.092 354.837,125.917 354.892 " stroke="none" fill="#cc9444" fill-rule="evenodd"></path><path id="path1" d="M190.135 96.753 C 186.595 97.458,184.141 98.319,181.839 99.663 C 181.208 100.032,180.643 100.333,180.583 100.333 C 180.255 100.333,176.971 103.079,175.661 104.449 C 173.582 106.624,171.208 109.961,170.290 112.000 C 170.145 112.321,169.788 113.108,169.496 113.750 C 166.036 121.349,164.142 134.544,165.310 142.917 C 167.721 160.203,167.086 171.875,163.454 177.057 C 162.670 178.175,162.447 178.306,160.571 178.746 C 156.937 179.597,154.272 180.735,152.504 182.190 C 152.185 182.452,151.836 182.667,151.729 182.667 C 151.489 182.667,148.237 185.872,147.570 186.766 C 147.304 187.124,147.040 187.454,146.985 187.500 C 146.711 187.727,145.152 190.054,144.586 191.083 C 144.232 191.725,143.815 192.438,143.660 192.667 C 143.504 192.896,143.153 193.608,142.879 194.250 C 142.606 194.892,142.067 196.146,141.683 197.038 C 140.896 198.864,140.000 201.372,140.000 201.750 C 140.000 201.967,139.257 202.000,134.292 202.001 C 125.445 202.003,123.826 202.577,121.996 206.362 L 121.333 207.732 121.333 210.298 C 121.333 212.572,121.391 213.112,121.844 215.057 C 122.125 216.263,122.457 217.850,122.582 218.583 C 122.707 219.317,123.302 222.034,123.905 224.622 C 124.507 227.210,125.000 229.478,125.000 229.663 C 125.000 229.847,125.553 232.418,126.230 235.374 C 126.906 238.331,127.548 241.237,127.656 241.833 C 127.765 242.429,128.329 244.979,128.909 247.500 C 129.490 250.021,130.053 252.608,130.160 253.250 C 130.268 253.892,130.838 256.476,131.428 258.993 C 132.018 261.509,132.500 263.719,132.500 263.903 C 132.500 264.087,133.055 266.678,133.734 269.660 C 134.413 272.643,135.118 275.908,135.302 276.917 C 135.485 277.925,135.721 279.220,135.825 279.794 C 136.409 283.019,138.558 285.657,141.386 286.622 C 142.442 286.982,252.554 287.184,254.667 286.829 C 256.890 286.456,260.150 284.143,260.259 282.861 C 260.265 282.800,260.477 282.337,260.731 281.833 C 261.027 281.246,261.312 280.228,261.524 279.000 C 261.706 277.946,261.885 276.933,261.922 276.750 C 262.301 274.854,262.946 271.892,263.500 269.500 C 263.871 267.896,264.246 266.246,264.332 265.833 C 264.419 265.421,264.529 264.896,264.577 264.667 C 264.626 264.438,264.744 263.818,264.840 263.290 C 264.937 262.761,265.240 261.374,265.515 260.206 C 265.789 259.039,266.130 257.558,266.271 256.917 C 266.413 256.275,266.558 255.637,266.594 255.500 C 266.630 255.362,266.882 254.162,267.154 252.833 C 267.427 251.504,268.061 248.617,268.565 246.417 C 269.069 244.217,269.515 242.229,269.557 242.000 C 269.599 241.771,269.685 241.283,269.749 240.917 C 269.814 240.550,270.231 238.675,270.676 236.750 C 271.122 234.825,271.524 233.063,271.569 232.833 C 272.124 230.010,273.002 225.955,273.752 222.750 C 274.181 220.917,274.466 219.640,274.587 219.000 C 274.631 218.771,274.777 218.006,274.911 217.301 C 275.046 216.595,275.313 215.379,275.506 214.599 C 276.373 211.075,275.808 206.527,274.302 204.917 C 274.045 204.642,273.835 204.367,273.834 204.306 C 273.832 204.049,272.047 202.913,271.024 202.518 L 269.917 202.091 263.562 202.035 L 257.207 201.979 257.118 201.448 C 257.069 201.156,256.936 200.692,256.822 200.417 C 256.709 200.142,256.594 199.807,256.567 199.674 C 256.541 199.540,256.446 199.278,256.357 199.090 C 256.268 198.903,255.956 198.150,255.663 197.417 C 255.370 196.683,254.951 195.687,254.732 195.203 C 254.513 194.719,254.333 194.295,254.333 194.261 C 254.333 194.226,253.883 193.390,253.333 192.403 C 252.783 191.416,252.333 190.588,252.333 190.563 C 252.333 189.917,246.382 183.000,245.827 183.000 C 245.752 183.000,245.582 182.891,245.448 182.758 C 243.979 181.288,240.142 179.552,236.605 178.757 C 234.609 178.308,234.440 178.201,233.502 176.797 C 230.450 172.226,229.683 160.493,231.488 146.000 C 231.676 144.487,231.863 142.987,231.902 142.667 C 231.942 142.346,232.063 141.527,232.171 140.847 C 232.349 139.728,232.298 134.755,232.086 132.583 C 232.050 132.217,231.976 131.354,231.920 130.667 C 231.731 128.329,231.238 125.314,230.641 122.833 C 230.187 120.946,229.351 117.812,229.218 117.500 C 229.160 117.362,229.099 117.212,229.083 117.167 C 228.329 114.983,226.457 110.968,225.664 109.833 C 225.503 109.604,225.210 109.127,225.012 108.774 C 223.992 106.951,220.564 103.290,218.268 101.569 C 216.017 99.882,212.161 97.903,210.501 97.584 C 210.292 97.543,209.737 97.400,209.269 97.266 C 206.822 96.565,205.878 96.499,198.440 96.516 C 193.177 96.527,190.951 96.591,190.135 96.753 M187.809 124.558 C 188.235 124.774,188.921 125.119,189.333 125.326 C 189.746 125.532,190.817 126.106,191.714 126.601 C 192.611 127.095,193.441 127.500,193.557 127.500 C 193.674 127.500,194.215 127.771,194.760 128.103 C 195.304 128.435,196.762 129.212,198.000 129.830 C 199.237 130.448,201.412 131.555,202.833 132.290 C 204.254 133.024,206.654 134.262,208.167 135.040 C 209.679 135.818,212.079 137.053,213.500 137.785 C 214.921 138.517,217.352 139.766,218.902 140.560 L 221.721 142.003 222.952 140.810 C 224.363 139.442,224.447 139.456,224.598 141.087 C 224.776 143.004,224.241 145.544,223.238 147.552 C 222.516 148.996,222.338 149.068,221.507 148.256 C 220.789 147.556,220.644 147.634,220.275 148.917 C 219.736 150.788,219.272 152.082,218.785 153.067 C 218.517 153.608,217.979 154.739,217.589 155.580 C 212.908 165.666,203.864 172.028,196.250 170.591 C 188.568 169.141,179.916 159.421,177.254 149.249 C 176.810 147.553,176.656 147.447,175.825 148.257 L 175.149 148.917 174.818 148.500 C 173.640 147.015,172.936 144.600,172.925 142.000 C 172.915 139.933,173.318 138.634,173.750 139.333 C 173.807 139.425,174.245 139.500,174.724 139.500 L 175.594 139.500 175.788 137.958 C 176.000 136.274,176.006 136.242,176.415 134.667 C 177.853 129.140,180.278 125.728,183.500 124.700 C 185.605 124.029,186.690 123.993,187.809 124.558 M185.469 174.453 C 185.690 174.656,186.031 174.872,186.227 174.932 C 186.423 174.991,186.935 175.290,187.365 175.596 C 193.725 180.117,203.567 180.066,210.280 175.476 C 210.663 175.214,211.030 175.000,211.096 175.000 C 211.203 175.000,212.625 173.906,212.833 173.664 C 213.009 173.460,214.022 172.800,214.072 172.857 C 214.102 172.890,214.295 173.254,214.501 173.667 C 214.995 174.652,217.209 176.829,218.210 177.314 C 218.696 177.549,218.959 177.772,218.893 177.890 C 218.636 178.348,217.399 179.929,217.197 180.056 C 217.076 180.133,216.438 180.666,215.780 181.239 C 215.122 181.813,214.321 182.415,214.000 182.578 C 213.679 182.741,213.304 182.968,213.167 183.084 C 213.029 183.200,212.092 183.712,211.083 184.221 C 202.413 188.597,192.856 188.313,184.603 183.433 C 183.889 183.012,183.246 182.667,183.172 182.667 C 182.914 182.667,179.908 180.035,179.249 179.231 C 178.009 177.721,178.058 177.862,178.688 177.597 C 180.204 176.960,182.317 174.955,182.928 173.574 L 183.340 172.641 184.204 173.362 C 184.679 173.759,185.248 174.250,185.469 174.453 M270.396 205.394 C 273.073 206.968,274.030 209.138,273.345 212.083 C 273.153 212.908,272.849 214.372,272.670 215.335 C 272.490 216.299,271.862 219.149,271.274 221.669 C 270.685 224.188,270.153 226.588,270.091 227.000 C 270.029 227.412,269.711 228.912,269.385 230.333 C 267.815 237.177,267.500 238.606,267.500 238.894 C 267.500 239.065,267.055 241.090,266.511 243.394 C 265.967 245.698,265.358 248.446,265.157 249.500 C 264.957 250.554,264.423 252.992,263.971 254.917 C 263.519 256.842,262.996 259.204,262.809 260.167 C 262.480 261.858,261.721 265.296,260.915 268.750 C 260.702 269.667,260.402 271.054,260.250 271.833 C 260.099 272.612,259.747 274.262,259.470 275.500 C 259.192 276.737,258.905 278.225,258.830 278.805 C 258.552 280.985,257.470 282.458,255.364 283.527 L 254.267 284.083 198.592 284.083 L 142.917 284.083 141.809 283.560 C 139.783 282.603,138.669 281.034,138.333 278.664 C 138.236 277.980,138.014 276.820,137.840 276.085 C 137.666 275.351,137.402 274.075,137.253 273.250 C 137.104 272.425,136.916 271.525,136.835 271.250 C 136.755 270.975,136.602 270.337,136.496 269.833 C 136.389 269.329,136.081 267.942,135.810 266.750 C 135.540 265.558,135.060 263.346,134.744 261.833 C 134.428 260.321,134.068 258.633,133.943 258.083 C 132.190 250.342,132.200 250.391,132.072 249.580 C 132.016 249.230,131.904 248.769,131.823 248.556 C 131.741 248.342,131.705 248.167,131.742 248.167 C 131.780 248.167,131.739 247.923,131.652 247.625 C 131.566 247.327,131.454 246.858,131.404 246.583 C 131.355 246.308,131.136 245.333,130.918 244.417 C 130.153 241.198,129.862 239.911,129.771 239.333 C 129.606 238.297,129.359 237.142,128.666 234.167 C 128.293 232.563,127.691 229.825,127.328 228.083 C 126.966 226.342,126.330 223.454,125.915 221.667 C 125.500 219.879,125.014 217.667,124.835 216.750 C 124.270 213.863,124.040 212.781,123.758 211.695 C 123.062 209.013,125.053 205.625,127.695 204.998 C 128.000 204.926,160.050 204.878,198.917 204.892 L 269.583 204.917 270.396 205.394 M198.163 239.888 C 198.119 239.929,197.783 240.005,197.417 240.055 C 193.782 240.556,192.119 245.274,194.513 248.289 C 197.638 252.226,203.833 250.058,203.833 245.028 C 203.833 242.896,202.019 240.430,200.202 240.092 C 199.355 239.935,198.233 239.822,198.163 239.888 M135.667 288.520 C 133.441 289.405,132.979 292.659,134.829 294.417 L 135.355 294.917 198.585 294.917 L 261.815 294.917 262.415 294.335 C 264.272 292.535,263.822 289.508,261.557 288.562 C 260.874 288.276,136.384 288.235,135.667 288.520 M128.071 307.167 C 128.071 309.229,128.095 310.073,128.124 309.042 C 128.154 308.010,128.154 306.323,128.124 305.292 C 128.095 304.260,128.071 305.104,128.071 307.167 M272.218 306.250 C 272.219 306.800,272.250 307.005,272.287 306.705 C 272.325 306.406,272.324 305.956,272.286 305.705 C 272.248 305.455,272.217 305.700,272.218 306.250 M307.229 309.083 C 307.229 310.092,307.257 310.483,307.290 309.952 C 307.323 309.422,307.323 308.597,307.289 308.119 C 307.256 307.641,307.229 308.075,307.229 309.083 " stroke="none" fill="#a37c6c" fill-rule="evenodd"></path><path id="path2" d="M193.958 52.951 C 193.364 53.149,192.967 53.449,192.374 54.146 C 191.939 54.657,191.485 55.190,191.364 55.330 C 190.854 55.922,190.167 56.890,190.167 57.017 C 190.167 57.093,189.939 57.476,189.661 57.869 C 189.383 58.262,189.035 58.771,188.887 59.000 C 188.740 59.229,188.488 59.609,188.327 59.845 C 188.166 60.080,187.825 60.680,187.568 61.178 C 187.312 61.676,186.755 62.646,186.331 63.333 C 185.907 64.021,185.517 64.699,185.465 64.841 C 185.381 65.068,183.332 65.635,182.958 65.534 C 182.890 65.515,182.833 65.575,182.833 65.667 C 182.833 65.758,182.678 65.833,182.488 65.833 C 182.042 65.833,181.626 66.253,181.702 66.625 C 181.778 66.992,183.169 66.976,184.074 66.598 C 184.740 66.320,184.776 66.373,184.399 67.083 C 183.534 68.711,182.638 70.548,182.588 70.796 C 182.556 70.954,182.377 71.437,182.190 71.869 C 178.618 80.128,184.068 80.845,190.833 73.005 C 191.504 72.227,192.093 71.441,192.959 70.167 C 193.115 69.938,193.299 69.709,193.369 69.658 C 193.659 69.448,193.703 68.549,193.427 68.444 C 193.111 68.322,192.969 68.469,190.728 71.250 C 187.780 74.908,186.014 76.326,185.271 75.632 C 184.814 75.206,186.281 70.701,188.143 66.815 L 188.750 65.547 190.000 65.285 C 190.688 65.140,191.662 64.972,192.167 64.909 C 193.444 64.752,194.167 64.428,194.167 64.014 C 194.167 63.372,193.676 63.322,191.572 63.749 C 189.269 64.216,189.378 64.245,189.879 63.313 C 190.994 61.241,191.567 60.226,191.746 60.000 C 191.855 59.862,192.078 59.458,192.241 59.101 C 192.405 58.744,193.242 57.306,194.103 55.907 C 195.800 53.145,195.821 53.094,195.344 52.839 C 194.946 52.626,194.930 52.627,193.958 52.951 M214.417 64.964 C 213.462 65.031,211.195 65.497,210.595 65.750 C 210.313 65.868,209.858 66.061,209.583 66.179 C 209.308 66.297,209.046 66.400,209.000 66.409 C 208.861 66.435,206.431 67.897,206.222 68.080 C 202.260 71.542,201.732 74.872,204.917 76.312 C 205.631 76.634,208.214 76.686,209.417 76.401 C 211.071 76.009,211.789 75.746,213.736 74.815 C 214.280 74.556,214.491 74.534,214.997 74.686 C 215.858 74.943,217.680 74.772,218.448 74.361 C 218.614 74.272,218.791 74.211,218.842 74.225 C 219.275 74.344,223.000 71.761,223.000 71.342 C 223.000 70.677,222.217 70.851,221.129 71.759 C 220.880 71.967,220.242 72.338,219.713 72.583 C 219.183 72.828,218.605 73.107,218.428 73.201 C 217.793 73.542,215.391 74.048,215.667 73.783 C 215.713 73.739,216.313 73.249,217.000 72.693 C 218.625 71.380,219.376 70.603,219.741 69.856 C 219.904 69.523,220.104 69.120,220.185 68.961 C 220.753 67.852,219.795 65.333,218.805 65.333 C 218.491 65.333,218.455 65.432,218.172 67.069 C 218.078 67.611,217.982 68.066,217.959 68.081 C 217.936 68.095,217.504 68.302,217.000 68.541 C 216.149 68.943,215.891 69.155,214.779 70.366 C 214.295 70.894,213.833 71.769,213.833 72.161 C 213.833 72.314,213.571 72.563,213.250 72.716 C 212.929 72.869,212.667 73.058,212.667 73.134 C 212.667 73.211,212.348 73.442,211.958 73.647 C 211.569 73.852,210.893 74.238,210.457 74.505 C 209.000 75.399,206.501 75.811,206.199 75.208 C 205.704 74.223,208.421 70.916,211.333 68.958 C 211.563 68.804,212.051 68.464,212.420 68.202 C 213.277 67.594,214.830 66.779,216.000 66.323 C 216.504 66.127,217.087 65.900,217.295 65.819 C 218.500 65.352,216.664 64.806,214.417 64.964 M239.132 72.098 C 238.261 72.366,237.833 72.840,237.833 73.537 C 237.833 73.792,237.777 74.006,237.708 74.013 C 237.640 74.020,237.471 74.056,237.333 74.093 C 236.808 74.236,231.359 75.506,230.167 75.763 C 229.479 75.912,227.867 76.278,226.583 76.578 C 225.300 76.877,223.762 77.213,223.167 77.323 C 222.571 77.434,221.920 77.557,221.719 77.596 C 221.332 77.672,221.068 78.205,221.262 78.519 C 221.471 78.857,223.683 78.464,230.500 76.877 C 231.554 76.631,232.529 76.417,232.667 76.402 C 232.804 76.386,233.404 76.244,234.000 76.085 C 234.596 75.927,235.158 75.784,235.250 75.769 C 235.342 75.753,235.510 75.682,235.625 75.610 C 235.740 75.539,235.833 75.515,235.833 75.558 C 235.833 75.601,236.302 75.494,236.875 75.319 C 238.306 74.884,238.339 74.891,239.617 75.849 C 240.240 76.316,240.956 76.805,241.208 76.936 C 242.056 77.378,241.826 77.512,239.833 77.743 C 239.421 77.791,238.783 77.870,238.417 77.920 C 238.050 77.969,237.450 78.036,237.083 78.069 C 234.240 78.325,230.793 79.644,230.066 80.754 C 229.056 82.294,230.453 84.203,233.000 84.763 C 233.697 84.916,237.847 84.960,239.000 84.827 C 239.596 84.758,240.458 84.659,240.917 84.608 C 243.764 84.287,244.884 83.861,244.448 83.265 C 244.255 83.001,244.110 82.992,242.826 83.170 C 242.051 83.278,241.229 83.392,241.000 83.423 C 240.172 83.534,237.576 83.744,237.250 83.725 C 237.067 83.715,236.341 83.697,235.637 83.686 C 233.575 83.655,233.313 82.971,235.061 82.181 C 236.344 81.602,241.300 80.000,241.809 80.000 C 241.948 80.000,242.385 79.843,242.781 79.651 C 244.415 78.860,243.797 77.367,241.055 75.481 C 240.131 74.845,240.328 74.580,241.952 74.281 C 243.067 74.075,243.083 74.065,243.029 73.580 C 242.886 72.280,240.943 71.541,239.132 72.098 M164.833 72.369 C 163.329 72.584,161.434 74.106,160.402 75.929 C 159.467 77.579,159.218 78.040,158.811 78.867 C 158.554 79.390,158.294 80.027,158.232 80.284 C 158.171 80.540,158.047 80.844,157.957 80.958 C 157.866 81.073,157.829 81.167,157.874 81.167 C 157.919 81.167,157.859 81.586,157.740 82.099 C 157.140 84.680,157.689 87.703,158.956 88.796 C 161.639 91.111,167.452 85.871,169.544 79.250 C 170.515 76.175,170.677 75.553,170.573 75.284 C 170.340 74.677,169.642 75.165,169.429 76.083 C 168.320 80.857,164.813 86.365,162.736 86.593 C 161.481 86.731,160.932 82.650,161.726 79.083 C 161.889 78.350,162.053 77.608,162.090 77.434 C 162.514 75.438,163.834 73.278,164.215 73.956 C 164.339 74.174,164.488 74.910,164.584 75.763 C 164.812 77.795,165.952 78.288,167.035 76.824 C 167.932 75.612,167.295 72.500,166.150 72.500 C 165.991 72.500,165.836 72.441,165.806 72.369 C 165.775 72.297,165.337 72.297,164.833 72.369 M139.545 78.728 C 139.169 78.930,138.395 79.833,138.597 79.833 C 138.664 79.833,138.604 79.965,138.465 80.125 C 137.791 80.900,138.018 82.309,138.937 83.058 C 140.333 84.195,140.777 84.112,141.173 82.642 C 141.809 80.280,140.867 78.014,139.545 78.728 M143.138 89.375 C 141.889 90.382,141.451 92.362,141.895 95.000 C 141.965 95.412,142.174 96.688,142.361 97.833 C 142.713 99.996,142.785 100.388,142.841 100.458 C 142.860 100.481,142.888 100.556,142.904 100.625 C 143.704 104.031,145.707 105.969,147.124 104.708 C 147.532 104.346,148.634 102.961,148.651 102.791 C 148.657 102.722,148.770 102.408,148.901 102.095 C 149.853 99.817,149.598 90.417,148.585 90.417 C 148.168 90.417,148.035 91.058,148.187 92.333 C 148.499 94.964,148.175 100.326,147.671 100.868 C 146.955 101.635,145.582 98.165,144.929 93.939 C 144.874 93.584,144.798 93.244,144.760 93.183 C 144.723 93.122,144.641 92.700,144.580 92.245 C 144.418 91.054,144.405 90.978,144.246 90.333 C 144.167 90.013,144.098 89.691,144.093 89.619 C 144.066 89.248,143.482 89.098,143.138 89.375 M114.102 95.580 C 113.213 96.178,112.822 97.506,113.395 97.982 C 113.806 98.323,115.782 98.610,117.333 98.553 C 119.759 98.465,121.318 98.932,122.417 100.079 C 123.601 101.314,125.833 104.072,125.833 104.300 C 125.833 104.390,125.946 104.508,126.083 104.560 C 126.221 104.613,126.333 104.742,126.333 104.846 C 126.333 104.950,126.549 105.309,126.813 105.643 C 127.078 105.977,127.453 106.531,127.647 106.875 C 127.841 107.219,128.146 107.758,128.324 108.072 C 128.503 108.387,128.847 108.959,129.089 109.342 C 129.331 109.725,129.751 110.537,130.022 111.145 C 130.293 111.753,130.587 112.362,130.675 112.500 C 130.763 112.638,130.879 112.862,130.933 113.000 C 130.986 113.138,131.095 113.400,131.174 113.583 C 131.474 114.278,131.888 115.253,131.916 115.333 C 131.952 115.438,132.309 116.335,132.447 116.667 C 132.504 116.804,132.570 116.992,132.594 117.083 C 132.618 117.175,132.938 118.150,133.305 119.250 C 134.037 121.445,134.434 122.894,134.586 123.917 C 134.751 125.032,134.789 125.250,134.823 125.250 C 134.841 125.250,134.888 125.513,134.928 125.833 C 134.968 126.154,135.045 126.717,135.099 127.083 C 135.292 128.389,135.354 134.699,135.173 134.587 C 135.078 134.528,135.000 134.275,135.000 134.025 C 135.000 133.651,134.416 131.344,134.065 130.333 C 134.018 130.196,133.982 130.065,133.986 130.043 C 134.011 129.897,132.944 127.217,132.783 127.023 C 132.673 126.890,132.593 126.737,132.604 126.683 C 132.651 126.455,131.413 123.604,131.077 123.167 C 130.971 123.029,130.636 122.467,130.331 121.917 C 128.592 118.775,124.695 113.724,123.193 112.663 C 122.887 112.446,122.390 112.040,122.089 111.760 C 121.192 110.925,120.566 110.540,119.000 109.859 C 117.084 109.027,113.000 109.034,113.000 109.870 C 113.000 109.942,112.892 110.000,112.761 110.000 C 111.647 110.000,109.909 113.139,109.193 116.442 C 108.854 118.004,109.100 121.561,109.680 123.476 C 109.856 124.058,110.000 124.682,110.000 124.862 C 110.000 125.196,110.512 126.568,110.932 127.359 C 111.061 127.602,111.167 127.880,111.167 127.977 C 111.167 128.146,111.432 128.614,112.726 130.735 C 118.483 140.167,128.113 137.789,125.088 127.683 C 124.149 124.544,120.618 120.000,119.118 120.000 C 118.992 120.000,118.839 119.950,118.778 119.889 C 118.331 119.442,116.612 119.158,115.721 119.384 C 114.752 119.629,114.017 120.683,114.923 120.527 C 115.918 120.355,116.999 120.477,117.472 120.813 C 117.745 121.008,118.014 121.167,118.071 121.167 C 118.788 121.167,121.767 124.408,122.776 126.285 C 123.280 127.223,123.594 127.770,123.763 128.000 C 124.840 129.467,124.988 132.225,124.066 133.635 C 122.413 136.161,117.931 134.713,114.531 130.555 C 113.051 128.744,112.947 128.568,111.555 125.521 C 111.326 125.020,110.796 123.323,110.584 122.417 C 110.154 120.569,110.065 119.899,110.096 118.750 C 110.255 112.818,113.543 111.361,118.917 114.839 C 119.192 115.017,119.514 115.211,119.632 115.269 C 120.189 115.542,125.000 120.197,125.000 120.464 C 125.001 120.529,125.222 120.843,125.493 121.159 C 126.509 122.347,129.704 127.013,130.295 128.169 C 130.411 128.397,130.806 129.108,131.172 129.750 C 131.787 130.828,132.878 132.921,132.974 133.205 C 133.035 133.388,133.501 134.514,133.752 135.083 C 133.955 135.547,134.414 136.917,134.365 136.917 C 134.354 136.917,134.446 137.212,134.570 137.574 C 134.694 137.936,134.738 138.348,134.666 138.491 C 133.483 140.857,133.314 145.065,134.390 145.353 C 135.379 145.617,136.003 143.625,136.026 140.133 C 136.033 139.097,136.113 137.912,136.204 137.500 C 136.659 135.433,136.887 128.813,136.589 126.339 C 136.539 125.923,136.464 125.283,136.423 124.917 C 136.382 124.550,136.305 123.876,136.252 123.419 C 136.146 122.500,135.342 119.155,134.730 117.083 C 134.314 115.676,134.046 114.972,133.378 113.534 C 133.153 113.049,132.951 112.562,132.929 112.451 C 132.848 112.040,131.127 108.674,130.901 108.487 C 130.772 108.380,130.667 108.215,130.667 108.120 C 130.667 108.026,130.490 107.716,130.274 107.432 C 130.058 107.149,129.710 106.579,129.500 106.167 C 129.290 105.755,129.029 105.343,128.921 105.251 C 128.813 105.159,128.083 104.296,127.298 103.333 C 126.057 101.811,124.414 100.172,122.333 98.379 C 121.704 97.837,119.877 96.636,118.667 95.967 C 117.109 95.107,115.062 94.934,114.102 95.580 M251.667 95.908 C 249.771 96.488,249.092 97.656,249.860 99.020 C 250.688 100.490,252.412 101.932,253.841 102.350 C 254.249 102.469,254.883 102.728,255.250 102.926 C 256.702 103.708,262.214 105.094,262.501 104.749 C 262.926 104.237,262.484 103.988,259.750 103.198 C 256.794 102.345,256.067 102.093,254.867 101.503 C 253.382 100.773,252.654 100.112,252.979 99.789 C 253.417 99.354,259.069 99.629,262.667 100.260 C 263.705 100.442,265.104 100.490,265.319 100.350 C 265.653 100.132,264.817 98.460,264.112 97.940 C 262.573 96.804,253.552 95.331,251.667 95.908 M273.363 97.618 C 272.938 97.700,271.831 98.404,271.631 98.718 C 271.368 99.133,271.521 99.486,272.125 99.853 C 272.469 100.061,272.787 100.278,272.833 100.333 C 273.315 100.916,275.419 101.304,276.124 100.939 C 277.786 100.079,275.409 97.220,273.363 97.618 M263.774 118.831 C 262.793 119.139,262.167 120.097,262.167 121.290 C 262.167 122.134,262.714 124.071,263.046 124.403 C 263.192 124.549,263.359 124.818,263.417 125.001 C 263.475 125.184,263.587 125.333,263.667 125.333 C 263.746 125.333,263.856 125.474,263.910 125.646 C 263.965 125.819,264.493 126.475,265.083 127.105 C 266.328 128.433,266.353 128.500,265.608 128.500 C 262.380 128.500,262.689 132.016,266.250 135.800 C 268.129 137.796,271.925 141.000,272.412 141.000 C 273.276 141.000,272.813 140.230,271.083 138.790 C 266.097 134.639,263.960 131.000,267.604 132.867 C 268.541 133.347,269.929 134.125,270.768 134.642 C 271.237 134.931,271.681 135.167,271.755 135.167 C 271.830 135.167,272.028 135.291,272.196 135.444 C 272.365 135.596,272.648 135.802,272.827 135.902 C 273.570 136.318,275.590 137.581,275.667 137.678 C 276.571 138.820,277.614 138.149,277.323 136.612 C 277.148 135.691,277.008 135.485,275.708 134.232 C 274.790 133.348,274.776 133.186,275.601 132.934 C 276.728 132.589,276.687 128.907,275.542 127.696 C 275.427 127.575,275.333 127.332,275.333 127.155 C 275.333 126.978,275.277 126.833,275.207 126.833 C 275.138 126.833,274.974 126.590,274.842 126.292 C 274.171 124.771,271.061 121.323,269.583 120.461 C 266.927 118.912,265.127 118.407,263.774 118.831 M265.301 122.410 C 266.062 122.557,268.619 124.144,270.333 125.535 C 270.654 125.795,271.214 126.250,271.577 126.546 C 274.503 128.926,276.008 131.342,275.003 132.046 C 273.642 132.999,266.323 127.788,264.510 124.575 C 263.639 123.033,263.724 121.971,264.695 122.263 C 264.848 122.310,265.121 122.376,265.301 122.410 M91.039 301.458 C 87.934 303.139,88.206 305.916,91.623 307.427 C 92.533 307.829,92.776 308.324,92.300 308.800 C 91.952 309.148,91.698 309.022,91.157 308.236 C 90.645 307.491,90.005 307.313,89.668 307.822 C 89.622 307.892,89.407 308.043,89.191 308.157 C 88.178 308.691,90.308 311.333,91.752 311.333 C 92.738 311.333,94.569 309.675,94.737 308.630 C 94.984 307.083,94.557 306.528,91.916 304.958 C 91.096 304.470,90.952 303.971,91.528 303.610 C 91.884 303.387,92.300 303.712,92.611 304.458 C 92.910 305.173,93.581 305.142,94.458 304.373 C 95.734 303.254,92.622 300.601,91.039 301.458 M103.583 301.476 C 101.685 302.645,101.183 303.965,101.380 307.270 C 101.485 309.034,101.498 309.065,102.554 310.153 C 103.952 311.594,104.575 311.622,105.972 310.308 C 107.259 309.098,107.332 308.883,107.333 306.303 C 107.333 303.709,107.266 303.443,106.386 302.582 C 105.023 301.247,104.372 300.990,103.583 301.476 M116.900 301.381 C 116.391 301.675,115.651 302.339,115.125 302.973 L 114.667 303.526 114.667 307.263 L 114.667 311.000 115.750 311.000 L 116.833 311.000 116.833 309.167 L 116.833 307.333 118.000 307.333 L 119.167 307.333 119.167 306.351 C 119.167 305.218,119.104 305.167,117.736 305.167 C 116.723 305.167,116.530 304.785,117.103 303.911 C 117.429 303.413,117.685 303.393,118.083 303.833 C 118.564 304.364,120.333 303.643,120.333 302.916 C 120.333 302.108,117.688 300.925,116.900 301.381 M145.957 301.707 C 144.971 302.390,144.908 302.562,145.373 303.310 C 146.015 304.343,145.838 308.667,145.154 308.667 C 144.837 308.667,144.668 307.249,144.668 304.575 C 144.667 301.303,144.679 301.333,143.300 301.333 L 142.333 301.333 142.333 304.508 C 142.333 307.028,142.281 307.785,142.079 308.175 C 141.493 309.307,141.263 308.421,141.167 304.667 L 141.083 301.417 140.000 301.417 L 138.917 301.417 138.917 304.833 C 138.917 308.757,138.953 308.887,140.479 310.462 C 141.523 311.539,141.824 311.555,142.747 310.578 L 143.461 309.822 143.866 310.303 C 144.898 311.530,145.440 311.530,146.607 310.307 C 147.847 309.007,147.914 308.770,147.915 305.667 C 147.917 301.678,147.428 300.688,145.957 301.707 M157.417 301.442 C 156.761 301.787,155.700 302.800,155.403 303.367 C 155.220 303.715,155.167 304.632,155.167 307.416 L 155.167 311.015 156.292 310.966 L 157.417 310.917 157.467 310.042 L 157.517 309.167 158.175 309.167 L 158.833 309.167 158.833 310.083 L 158.833 311.000 159.917 311.000 L 161.000 311.000 161.000 307.511 C 161.000 303.685,160.959 303.468,160.044 302.478 C 158.986 301.333,158.209 301.026,157.417 301.442 M168.625 301.797 C 167.939 302.324,167.567 303.000,167.963 303.000 C 168.379 303.000,168.559 304.232,168.626 307.542 L 168.696 311.000 169.765 311.000 L 170.833 311.000 170.833 309.156 L 170.833 307.312 171.371 307.364 C 171.968 307.422,171.998 307.509,172.243 309.875 L 172.360 311.000 173.513 311.000 L 174.667 311.000 174.662 310.208 C 174.650 308.469,174.355 306.990,173.914 306.467 L 173.489 305.962 173.911 305.409 C 175.224 303.687,172.809 300.450,170.965 301.460 L 170.277 301.836 169.966 301.501 C 169.567 301.074,169.564 301.074,168.625 301.797 M183.329 301.452 C 183.102 301.609,182.730 301.909,182.502 302.119 C 182.273 302.329,182.030 302.500,181.960 302.500 C 181.890 302.500,181.833 304.414,181.833 306.754 L 181.833 311.008 184.542 310.962 L 187.250 310.917 187.302 310.196 C 187.379 309.129,187.191 309.000,185.563 309.000 L 184.167 309.000 184.167 308.091 L 184.167 307.182 185.292 307.133 L 186.417 307.083 186.417 306.083 L 186.417 305.083 185.283 305.034 L 184.149 304.984 184.200 304.201 L 184.250 303.417 185.250 303.374 C 187.006 303.298,187.000 303.303,187.000 302.163 L 187.000 301.167 185.370 301.167 C 184.103 301.167,183.649 301.230,183.329 301.452 M204.292 301.849 C 203.424 302.451,203.122 302.878,203.458 303.028 C 204.032 303.283,204.167 304.144,204.167 307.567 L 204.167 311.000 205.978 311.000 C 207.987 311.000,208.094 310.957,209.386 309.611 L 210.021 308.949 209.969 306.120 L 209.917 303.290 208.917 302.378 C 207.646 301.218,207.296 301.079,206.479 301.406 C 205.923 301.628,205.819 301.629,205.603 301.412 C 205.297 301.107,205.420 301.066,204.292 301.849 M218.667 301.667 C 218.346 301.937,218.017 302.160,217.935 302.162 C 217.420 302.178,217.344 302.780,217.339 306.879 L 217.333 311.008 220.042 310.962 L 222.750 310.917 222.804 310.352 C 222.926 309.076,222.834 309.000,221.163 309.000 L 219.667 309.000 219.667 308.091 L 219.667 307.182 220.792 307.133 L 221.917 307.083 221.917 306.083 L 221.917 305.083 220.783 305.034 L 219.649 304.984 219.700 304.201 L 219.750 303.417 221.125 303.368 L 222.500 303.320 222.500 302.243 L 222.500 301.167 220.875 301.171 C 219.322 301.175,219.224 301.197,218.667 301.667 M233.743 301.550 C 233.465 301.752,233.052 302.050,232.827 302.212 L 232.417 302.508 232.800 303.177 C 233.492 304.384,233.460 308.077,232.752 308.665 C 232.252 309.080,232.087 308.218,232.000 304.750 L 231.917 301.417 230.833 301.417 L 229.750 301.417 229.697 303.500 C 229.576 308.273,230.083 309.953,231.978 311.059 C 234.268 312.396,236.452 306.774,235.238 302.667 C 234.801 301.186,234.528 300.982,233.743 301.550 M243.627 301.852 C 242.439 302.665,242.480 302.471,242.536 307.083 L 242.583 310.917 245.292 310.962 L 248.000 311.008 248.000 310.004 L 248.000 309.000 246.500 309.000 L 245.000 309.000 245.000 308.091 L 245.000 307.182 246.125 307.133 L 247.250 307.083 247.250 306.083 L 247.250 305.083 246.125 305.034 L 245.000 304.985 245.000 304.159 L 245.000 303.333 246.153 303.333 C 247.797 303.333,247.833 303.307,247.833 302.149 L 247.833 301.167 246.208 301.182 C 244.601 301.197,244.573 301.204,243.627 301.852 M268.417 301.475 C 266.710 302.523,266.167 303.634,266.167 306.073 C 266.167 308.638,266.233 308.873,267.283 310.007 C 268.897 311.750,270.438 311.461,271.906 309.139 C 272.287 308.535,272.320 304.006,271.947 303.444 C 270.812 301.735,269.335 300.911,268.417 301.475 M279.458 301.778 C 278.561 302.443,278.541 302.516,279.000 303.417 C 279.302 304.008,279.333 304.400,279.333 307.535 L 279.333 311.000 280.497 311.000 L 281.660 311.000 281.705 307.292 L 281.750 303.583 282.245 303.583 C 283.514 303.583,283.387 306.139,282.117 306.161 C 281.856 306.166,281.824 306.300,281.867 307.208 L 281.917 308.250 282.538 308.231 C 283.191 308.212,284.418 307.367,284.931 306.585 C 286.385 304.366,283.928 300.406,281.752 301.464 C 281.041 301.809,281.030 301.809,280.741 301.490 C 280.373 301.084,280.404 301.077,279.458 301.778 M293.583 301.612 C 292.044 302.661,292.155 302.239,292.205 306.841 L 292.250 310.917 294.967 310.963 L 297.684 311.008 297.633 310.046 L 297.583 309.083 296.042 309.035 L 294.500 308.987 294.500 308.077 L 294.500 307.167 295.486 307.167 C 296.924 307.167,297.000 307.113,297.000 306.083 C 297.000 305.053,296.925 305.000,295.477 305.000 L 294.482 305.000 294.533 304.208 L 294.583 303.417 295.667 303.374 C 297.528 303.301,297.524 303.304,297.466 302.203 L 297.417 301.250 295.833 301.204 C 294.346 301.161,294.209 301.186,293.583 301.612 M305.579 301.340 C 305.520 301.435,305.178 301.699,304.819 301.926 C 304.067 302.401,304.024 302.607,304.542 303.265 C 304.900 303.720,304.919 303.904,304.975 307.371 L 305.033 311.000 306.100 311.000 L 307.167 311.000 307.167 309.167 C 307.167 307.347,307.170 307.333,307.563 307.333 C 308.192 307.333,308.353 307.708,308.454 309.408 L 308.549 311.000 309.794 311.000 L 311.040 311.000 310.920 309.398 C 310.776 307.480,310.627 306.907,310.140 306.389 L 309.773 305.997 310.149 305.488 C 311.456 303.720,309.186 300.472,307.334 301.460 C 306.702 301.798,306.686 301.798,306.403 301.485 C 306.085 301.133,305.744 301.073,305.579 301.340 M126.615 301.440 C 126.552 301.504,126.500 301.993,126.500 302.528 L 126.500 303.500 127.333 303.500 L 128.167 303.500 128.167 307.258 L 128.167 311.015 129.263 310.966 L 130.359 310.917 130.340 307.217 L 130.322 303.518 131.203 303.467 L 132.083 303.417 132.083 302.417 L 132.083 301.417 129.407 301.371 C 127.935 301.346,126.678 301.377,126.615 301.440 M254.708 301.444 C 254.549 301.508,254.500 302.631,254.500 306.264 L 254.500 311.000 257.175 311.000 L 259.850 311.000 259.800 310.042 L 259.750 309.083 258.292 309.035 L 256.833 308.987 256.833 305.160 L 256.833 301.333 255.875 301.346 C 255.348 301.354,254.823 301.397,254.708 301.444 M171.725 303.902 C 171.969 304.275,171.964 304.334,171.649 304.735 C 171.102 305.429,170.833 305.297,170.833 304.333 C 170.833 303.374,171.248 303.174,171.725 303.902 M207.433 303.850 C 208.290 304.796,207.865 309.000,206.912 309.000 L 206.500 309.000 206.500 306.347 C 206.500 303.766,206.534 303.577,207.016 303.513 C 207.070 303.506,207.258 303.658,207.433 303.850 M269.900 306.172 C 269.910 308.541,269.455 309.456,268.759 308.463 C 268.311 307.823,268.391 304.411,268.866 303.917 L 269.231 303.537 269.562 303.957 C 269.843 304.315,269.893 304.642,269.900 306.172 M307.999 303.915 C 308.165 304.351,308.064 304.833,307.762 305.039 C 307.366 305.310,307.230 305.133,307.218 304.333 C 307.203 303.382,307.696 303.118,307.999 303.915 M104.741 304.037 C 105.165 304.643,105.110 308.000,104.667 308.523 L 104.333 308.917 104.000 308.523 C 103.325 307.727,103.604 303.667,104.333 303.667 C 104.415 303.667,104.598 303.833,104.741 304.037 M158.488 304.106 C 158.771 304.466,158.833 304.782,158.833 305.856 L 158.833 307.167 158.167 307.167 L 157.500 307.167 157.500 305.617 C 157.500 303.667,157.792 303.221,158.488 304.106 " stroke="none" fill="#d3a404" fill-rule="evenodd"></path><path id="path3" d="M124.208 19.948 C 124.369 19.990,124.631 19.990,124.792 19.948 C 124.952 19.906,124.821 19.872,124.500 19.872 C 124.179 19.872,124.048 19.906,124.208 19.948 M216.708 29.948 C 216.869 29.990,217.131 29.990,217.292 29.948 C 217.452 29.906,217.321 29.872,217.000 29.872 C 216.679 29.872,216.548 29.906,216.708 29.948 M239.875 32.448 C 240.035 32.490,240.298 32.490,240.458 32.448 C 240.619 32.406,240.487 32.372,240.167 32.372 C 239.846 32.372,239.715 32.406,239.875 32.448 M285.458 37.451 C 285.665 37.491,286.002 37.491,286.208 37.451 C 286.415 37.411,286.246 37.379,285.833 37.379 C 285.421 37.379,285.252 37.411,285.458 37.451 M97.474 55.792 C 97.135 56.195,96.643 57.000,96.734 57.000 C 96.776 57.000,97.037 56.663,97.316 56.250 C 97.836 55.479,97.906 55.276,97.474 55.792 M82.667 68.000 C 82.471 68.275,82.348 68.500,82.394 68.500 C 82.440 68.500,82.638 68.275,82.833 68.000 C 83.029 67.725,83.152 67.500,83.106 67.500 C 83.060 67.500,82.862 67.725,82.667 68.000 M314.667 71.833 C 314.862 72.108,315.060 72.333,315.106 72.333 C 315.152 72.333,315.029 72.108,314.833 71.833 C 314.638 71.558,314.440 71.333,314.394 71.333 C 314.348 71.333,314.471 71.558,314.667 71.833 M340.167 108.885 C 340.167 108.914,340.410 109.158,340.708 109.427 L 341.250 109.917 340.760 109.375 C 340.304 108.870,340.167 108.757,340.167 108.885 M349.667 112.719 C 349.667 112.748,349.910 112.991,350.208 113.260 L 350.750 113.750 350.260 113.208 C 349.804 112.703,349.667 112.590,349.667 112.719 M383.348 159.270 C 383.569 159.556,383.784 159.760,383.824 159.723 C 383.865 159.686,383.684 159.453,383.422 159.203 L 382.945 158.750 383.348 159.270 M367.019 225.519 C 366.916 225.813,366.861 226.083,366.897 226.119 C 366.932 226.155,367.045 225.943,367.148 225.648 C 367.251 225.354,367.306 225.083,367.270 225.048 C 367.234 225.012,367.121 225.224,367.019 225.519 M11.425 236.879 C 11.470 236.995,11.674 237.192,11.878 237.317 C 12.233 237.533,12.231 237.524,11.846 237.105 C 11.395 236.616,11.306 236.568,11.425 236.879 M20.991 240.741 C 21.211 240.975,21.416 241.167,21.447 241.167 C 21.597 241.167,21.058 240.494,20.841 240.411 C 20.704 240.358,20.771 240.506,20.991 240.741 M357.262 253.095 C 357.201 253.339,357.183 253.571,357.222 253.611 C 357.261 253.650,357.343 253.482,357.405 253.238 C 357.466 252.994,357.484 252.762,357.445 252.723 C 357.406 252.683,357.323 252.851,357.262 253.095 M181.739 306.833 C 181.739 309.079,181.762 309.998,181.791 308.875 C 181.820 307.752,181.820 305.915,181.791 304.792 C 181.762 303.669,181.739 304.587,181.739 306.833 M130.404 307.083 C 130.404 309.100,130.429 309.902,130.458 308.866 C 130.487 307.829,130.487 306.179,130.458 305.199 C 130.428 304.219,130.404 305.067,130.404 307.083 M294.548 304.250 C 294.549 304.708,294.581 304.876,294.620 304.623 C 294.658 304.369,294.657 303.994,294.617 303.789 C 294.578 303.584,294.546 303.792,294.548 304.250 M269.881 306.250 C 269.882 306.708,269.915 306.876,269.953 306.623 C 269.991 306.369,269.990 305.994,269.951 305.789 C 269.911 305.584,269.880 305.792,269.881 306.250 M294.552 308.083 C 294.553 308.633,294.584 308.838,294.621 308.539 C 294.658 308.239,294.657 307.789,294.619 307.539 C 294.581 307.288,294.551 307.533,294.552 308.083 M84.528 337.342 C 84.625 337.622,84.736 337.819,84.774 337.782 C 84.856 337.699,84.542 336.833,84.429 336.833 C 84.386 336.833,84.430 337.062,84.528 337.342 M290.750 345.333 L 290.250 345.461 290.698 345.480 C 290.945 345.491,291.193 345.425,291.250 345.333 C 291.307 345.242,291.330 345.176,291.302 345.186 C 291.273 345.197,291.025 345.263,290.750 345.333 M275.417 348.167 L 274.917 348.294 275.365 348.314 C 275.612 348.324,275.860 348.258,275.917 348.167 C 275.973 348.075,275.996 348.009,275.968 348.020 C 275.940 348.031,275.692 348.097,275.417 348.167 M102.708 352.448 C 102.869 352.490,103.131 352.490,103.292 352.448 C 103.452 352.406,103.321 352.372,103.000 352.372 C 102.679 352.372,102.548 352.406,102.708 352.448 M291.667 354.250 C 291.451 354.479,291.345 354.664,291.429 354.661 C 291.572 354.657,292.259 353.833,292.120 353.833 C 292.086 353.833,291.882 354.021,291.667 354.250 M125.542 354.948 C 125.702 354.990,125.965 354.990,126.125 354.948 C 126.285 354.906,126.154 354.872,125.833 354.872 C 125.513 354.872,125.381 354.906,125.542 354.948 M148.794 357.451 C 149.001 357.491,149.301 357.490,149.460 357.448 C 149.620 357.406,149.450 357.374,149.083 357.375 C 148.717 357.377,148.586 357.411,148.794 357.451 M196.809 357.876 C 196.893 357.960,197.139 358.000,197.356 357.966 C 197.689 357.914,197.666 357.890,197.203 357.814 C 196.872 357.759,196.716 357.783,196.809 357.876 M171.794 359.951 C 172.001 359.991,172.301 359.990,172.460 359.948 C 172.620 359.906,172.450 359.874,172.083 359.875 C 171.717 359.877,171.586 359.911,171.794 359.951 M194.708 362.448 C 194.869 362.490,195.131 362.490,195.292 362.448 C 195.452 362.406,195.321 362.372,195.000 362.372 C 194.679 362.372,194.548 362.406,194.708 362.448 M283.573 365.279 C 283.316 365.615,283.191 365.838,283.295 365.773 C 283.509 365.642,284.230 364.667,284.114 364.667 C 284.073 364.667,283.830 364.942,283.573 365.279 M217.708 364.948 C 217.869 364.990,218.131 364.990,218.292 364.948 C 218.452 364.906,218.321 364.872,218.000 364.872 C 217.679 364.872,217.548 364.906,217.708 364.948 M240.792 367.451 C 240.998 367.491,241.335 367.491,241.542 367.451 C 241.748 367.411,241.579 367.379,241.167 367.379 C 240.754 367.379,240.585 367.411,240.792 367.451 M263.794 369.951 C 264.001 369.991,264.301 369.990,264.460 369.948 C 264.620 369.906,264.450 369.874,264.083 369.875 C 263.717 369.877,263.586 369.911,263.794 369.951 " stroke="none" fill="#d09034" fill-rule="evenodd"></path><path id="path4" d="" stroke="none" fill="#d49040" fill-rule="evenodd"></path></g></svg>